G04 EAGLE Gerber RS-274X export*
G75*
%MOMM*%
%FSLAX34Y34*%
%LPD*%
%INBottom Copper*%
%IPPOS*%
%AMOC8*
5,1,8,0,0,1.08239X$1,22.5*%
G01*
%ADD10C,3.327400*%
%ADD11C,1.879600*%
%ADD12C,4.318000*%
%ADD13C,1.709600*%
%ADD14C,1.625600*%
%ADD15C,0.406400*%
%ADD16C,1.016000*%
%ADD17C,0.304800*%
%ADD18C,0.203200*%
%ADD19C,0.812800*%

G36*
X101844Y2541D02*
X101844Y2541D01*
X101848Y2541D01*
X102016Y2561D01*
X102186Y2581D01*
X102190Y2582D01*
X102194Y2582D01*
X102353Y2640D01*
X102515Y2698D01*
X102518Y2700D01*
X102521Y2701D01*
X102665Y2796D01*
X102807Y2887D01*
X102810Y2890D01*
X102813Y2892D01*
X102933Y3017D01*
X103050Y3138D01*
X103051Y3141D01*
X103054Y3144D01*
X103141Y3290D01*
X103228Y3437D01*
X103230Y3440D01*
X103231Y3444D01*
X103283Y3606D01*
X103335Y3769D01*
X103335Y3773D01*
X103336Y3776D01*
X103349Y3949D01*
X103363Y4116D01*
X103362Y4120D01*
X103362Y4124D01*
X103336Y4294D01*
X103311Y4461D01*
X103310Y4464D01*
X103309Y4468D01*
X103244Y4629D01*
X103182Y4785D01*
X103180Y4788D01*
X103179Y4791D01*
X103078Y4934D01*
X102983Y5071D01*
X102981Y5073D01*
X102978Y5076D01*
X102849Y5192D01*
X102724Y5304D01*
X102721Y5306D01*
X102718Y5309D01*
X102569Y5390D01*
X102419Y5473D01*
X102416Y5474D01*
X102412Y5476D01*
X102179Y5549D01*
X100309Y5976D01*
X97751Y6871D01*
X95309Y8047D01*
X93014Y9489D01*
X90895Y11179D01*
X88979Y13095D01*
X87289Y15214D01*
X85847Y17509D01*
X84671Y19951D01*
X83776Y22509D01*
X83173Y25152D01*
X83060Y26153D01*
X105476Y26153D01*
X105502Y26156D01*
X105528Y26154D01*
X105675Y26176D01*
X105822Y26193D01*
X105847Y26201D01*
X105873Y26205D01*
X106011Y26260D01*
X106150Y26310D01*
X106172Y26324D01*
X106197Y26334D01*
X106318Y26419D01*
X106443Y26499D01*
X106461Y26518D01*
X106483Y26533D01*
X106582Y26643D01*
X106685Y26750D01*
X106699Y26772D01*
X106716Y26792D01*
X106788Y26922D01*
X106864Y27049D01*
X106872Y27074D01*
X106885Y27097D01*
X106925Y27240D01*
X106970Y27381D01*
X106972Y27407D01*
X106979Y27432D01*
X106999Y27676D01*
X106999Y29201D01*
X107001Y29201D01*
X107001Y27676D01*
X107004Y27650D01*
X107002Y27624D01*
X107024Y27477D01*
X107041Y27330D01*
X107050Y27305D01*
X107053Y27279D01*
X107108Y27141D01*
X107158Y27002D01*
X107173Y26980D01*
X107182Y26955D01*
X107267Y26834D01*
X107347Y26709D01*
X107366Y26691D01*
X107381Y26669D01*
X107491Y26570D01*
X107598Y26467D01*
X107620Y26453D01*
X107640Y26436D01*
X107770Y26364D01*
X107897Y26288D01*
X107922Y26280D01*
X107945Y26267D01*
X108088Y26227D01*
X108229Y26182D01*
X108255Y26180D01*
X108280Y26172D01*
X108524Y26153D01*
X130940Y26153D01*
X130827Y25151D01*
X130224Y22509D01*
X129329Y19951D01*
X128153Y17509D01*
X126711Y15214D01*
X125021Y13095D01*
X123105Y11179D01*
X120986Y9489D01*
X118691Y8047D01*
X116249Y6871D01*
X113691Y5976D01*
X111821Y5549D01*
X111817Y5548D01*
X111814Y5547D01*
X111652Y5490D01*
X111492Y5433D01*
X111489Y5431D01*
X111485Y5430D01*
X111343Y5338D01*
X111198Y5246D01*
X111196Y5243D01*
X111193Y5241D01*
X111074Y5118D01*
X110955Y4996D01*
X110953Y4993D01*
X110950Y4990D01*
X110862Y4842D01*
X110775Y4698D01*
X110774Y4694D01*
X110772Y4691D01*
X110720Y4529D01*
X110667Y4367D01*
X110667Y4363D01*
X110665Y4359D01*
X110652Y4191D01*
X110637Y4019D01*
X110638Y4015D01*
X110637Y4012D01*
X110663Y3842D01*
X110687Y3674D01*
X110689Y3671D01*
X110689Y3667D01*
X110753Y3507D01*
X110814Y3350D01*
X110816Y3347D01*
X110818Y3343D01*
X110915Y3203D01*
X111012Y3063D01*
X111015Y3060D01*
X111017Y3057D01*
X111143Y2943D01*
X111269Y2828D01*
X111273Y2826D01*
X111276Y2824D01*
X111424Y2741D01*
X111574Y2658D01*
X111577Y2657D01*
X111581Y2655D01*
X111743Y2609D01*
X111909Y2562D01*
X111912Y2561D01*
X111916Y2560D01*
X112160Y2541D01*
X162960Y2541D01*
X163060Y2552D01*
X163160Y2554D01*
X163232Y2572D01*
X163306Y2581D01*
X163400Y2614D01*
X163498Y2639D01*
X163564Y2673D01*
X163634Y2698D01*
X163718Y2753D01*
X163808Y2799D01*
X163864Y2847D01*
X163927Y2887D01*
X163997Y2959D01*
X164073Y3024D01*
X164117Y3084D01*
X164169Y3138D01*
X164221Y3224D01*
X164280Y3305D01*
X164310Y3373D01*
X164348Y3437D01*
X164379Y3533D01*
X164418Y3625D01*
X164431Y3698D01*
X164454Y3769D01*
X164462Y3869D01*
X164480Y3968D01*
X164476Y4042D01*
X164482Y4116D01*
X164467Y4216D01*
X164462Y4316D01*
X164441Y4387D01*
X164430Y4461D01*
X164393Y4554D01*
X164365Y4651D01*
X164329Y4716D01*
X164302Y4785D01*
X164244Y4867D01*
X164195Y4955D01*
X164130Y5031D01*
X164103Y5071D01*
X164076Y5095D01*
X164037Y5141D01*
X133057Y36121D01*
X132981Y36181D01*
X132912Y36249D01*
X132845Y36289D01*
X132784Y36338D01*
X132697Y36379D01*
X132614Y36429D01*
X132539Y36453D01*
X132469Y36486D01*
X132374Y36507D01*
X132282Y36537D01*
X132204Y36543D01*
X132128Y36560D01*
X132032Y36558D01*
X131935Y36566D01*
X131858Y36555D01*
X131780Y36554D01*
X131686Y36530D01*
X131590Y36516D01*
X131518Y36488D01*
X131442Y36469D01*
X131356Y36425D01*
X131266Y36389D01*
X131201Y36345D01*
X131132Y36309D01*
X131058Y36246D01*
X130979Y36192D01*
X130926Y36134D01*
X130867Y36083D01*
X130809Y36006D01*
X130744Y35934D01*
X130706Y35866D01*
X130659Y35803D01*
X130621Y35714D01*
X130574Y35630D01*
X130552Y35555D01*
X130521Y35483D01*
X130504Y35388D01*
X130477Y35295D01*
X130474Y35217D01*
X130460Y35140D01*
X130465Y35043D01*
X130460Y34947D01*
X130475Y34841D01*
X130478Y34792D01*
X130487Y34760D01*
X130495Y34705D01*
X130827Y33248D01*
X130940Y32247D01*
X110047Y32247D01*
X110047Y53140D01*
X111049Y53027D01*
X113691Y52424D01*
X116249Y51529D01*
X118691Y50353D01*
X120986Y48911D01*
X123105Y47221D01*
X125021Y45305D01*
X126711Y43186D01*
X128090Y40991D01*
X128151Y40915D01*
X128203Y40834D01*
X128259Y40780D01*
X128308Y40719D01*
X128384Y40659D01*
X128454Y40592D01*
X128521Y40552D01*
X128582Y40504D01*
X128670Y40463D01*
X128753Y40413D01*
X128827Y40389D01*
X128898Y40356D01*
X128993Y40336D01*
X129085Y40307D01*
X129163Y40301D01*
X129239Y40285D01*
X129336Y40287D01*
X129432Y40279D01*
X129510Y40291D01*
X129588Y40292D01*
X129681Y40316D01*
X129777Y40331D01*
X129849Y40359D01*
X129925Y40379D01*
X130011Y40424D01*
X130101Y40459D01*
X130165Y40504D01*
X130234Y40540D01*
X130308Y40603D01*
X130387Y40658D01*
X130439Y40716D01*
X130498Y40767D01*
X130556Y40845D01*
X130620Y40917D01*
X130658Y40985D01*
X130704Y41048D01*
X130742Y41137D01*
X130789Y41222D01*
X130810Y41297D01*
X130841Y41369D01*
X130857Y41464D01*
X130884Y41558D01*
X130892Y41664D01*
X130901Y41712D01*
X130899Y41746D01*
X130903Y41801D01*
X130903Y52138D01*
X130895Y52214D01*
X130896Y52291D01*
X130875Y52387D01*
X130863Y52485D01*
X130838Y52557D01*
X130821Y52631D01*
X130779Y52720D01*
X130746Y52813D01*
X130704Y52877D01*
X130672Y52946D01*
X130610Y53023D01*
X130557Y53106D01*
X130502Y53159D01*
X130454Y53218D01*
X130377Y53279D01*
X130306Y53348D01*
X130241Y53387D01*
X130181Y53434D01*
X130047Y53503D01*
X130007Y53527D01*
X129989Y53532D01*
X129963Y53546D01*
X123619Y56174D01*
X116974Y62819D01*
X113377Y71501D01*
X113377Y80899D01*
X116974Y89581D01*
X123619Y96226D01*
X132301Y99823D01*
X141699Y99823D01*
X150381Y96226D01*
X157026Y89581D01*
X160623Y80899D01*
X160623Y71501D01*
X157026Y62819D01*
X150381Y56174D01*
X144037Y53546D01*
X143970Y53509D01*
X143899Y53480D01*
X143818Y53424D01*
X143732Y53376D01*
X143676Y53325D01*
X143613Y53281D01*
X143547Y53209D01*
X143474Y53142D01*
X143431Y53079D01*
X143380Y53023D01*
X143332Y52937D01*
X143276Y52856D01*
X143248Y52785D01*
X143211Y52718D01*
X143184Y52623D01*
X143148Y52531D01*
X143137Y52456D01*
X143116Y52382D01*
X143104Y52233D01*
X143097Y52187D01*
X143099Y52168D01*
X143097Y52138D01*
X143097Y43956D01*
X143111Y43831D01*
X143118Y43705D01*
X143131Y43658D01*
X143137Y43610D01*
X143179Y43491D01*
X143214Y43370D01*
X143238Y43328D01*
X143254Y43282D01*
X143323Y43176D01*
X143384Y43065D01*
X143424Y43019D01*
X143443Y42989D01*
X143478Y42956D01*
X143543Y42879D01*
X173275Y13147D01*
X173374Y13068D01*
X173468Y12984D01*
X173510Y12960D01*
X173548Y12930D01*
X173662Y12876D01*
X173773Y12815D01*
X173820Y12802D01*
X173863Y12781D01*
X173987Y12755D01*
X174109Y12720D01*
X174169Y12715D01*
X174204Y12708D01*
X174252Y12709D01*
X174352Y12701D01*
X424931Y12701D01*
X424981Y12706D01*
X425031Y12704D01*
X425154Y12726D01*
X425277Y12741D01*
X425325Y12758D01*
X425374Y12767D01*
X425488Y12816D01*
X425605Y12858D01*
X425648Y12885D01*
X425694Y12906D01*
X425794Y12980D01*
X425898Y13047D01*
X425933Y13083D01*
X425974Y13113D01*
X426054Y13208D01*
X426140Y13298D01*
X426166Y13341D01*
X426199Y13379D01*
X426255Y13490D01*
X426319Y13597D01*
X426334Y13645D01*
X426357Y13690D01*
X426387Y13810D01*
X426425Y13929D01*
X426429Y13979D01*
X426442Y14028D01*
X426443Y14152D01*
X426453Y14276D01*
X426446Y14326D01*
X426447Y14376D01*
X426420Y14498D01*
X426402Y14621D01*
X426383Y14668D01*
X426372Y14717D01*
X426319Y14829D01*
X426273Y14945D01*
X426244Y14986D01*
X426222Y15032D01*
X426145Y15129D01*
X426074Y15231D01*
X426037Y15265D01*
X426005Y15304D01*
X425907Y15381D01*
X425815Y15464D01*
X425771Y15489D01*
X425732Y15520D01*
X425514Y15631D01*
X425325Y15710D01*
X422110Y18925D01*
X420369Y23126D01*
X420369Y27674D01*
X422110Y31875D01*
X425325Y35090D01*
X429193Y36693D01*
X429281Y36741D01*
X429373Y36781D01*
X429433Y36826D01*
X429498Y36862D01*
X429572Y36930D01*
X429653Y36989D01*
X429701Y37046D01*
X429756Y37096D01*
X429813Y37179D01*
X429878Y37255D01*
X429912Y37322D01*
X429954Y37383D01*
X429991Y37476D01*
X430037Y37566D01*
X430055Y37638D01*
X430082Y37707D01*
X430096Y37806D01*
X430121Y37904D01*
X430122Y37978D01*
X430133Y38052D01*
X430124Y38152D01*
X430126Y38252D01*
X430110Y38325D01*
X430104Y38399D01*
X430073Y38495D01*
X430051Y38593D01*
X430020Y38660D01*
X429997Y38731D01*
X429945Y38817D01*
X429902Y38908D01*
X429855Y38966D01*
X429817Y39029D01*
X429747Y39102D01*
X429684Y39180D01*
X429626Y39226D01*
X429574Y39279D01*
X429490Y39334D01*
X429411Y39396D01*
X429321Y39442D01*
X429281Y39468D01*
X429247Y39480D01*
X429193Y39507D01*
X425325Y41110D01*
X422110Y44325D01*
X420369Y48526D01*
X420369Y53074D01*
X422110Y57275D01*
X425325Y60490D01*
X429526Y62231D01*
X434074Y62231D01*
X438275Y60490D01*
X441490Y57275D01*
X442858Y53973D01*
X442936Y53833D01*
X443011Y53692D01*
X443021Y53681D01*
X443028Y53668D01*
X443135Y53550D01*
X443240Y53429D01*
X443252Y53421D01*
X443262Y53410D01*
X443393Y53319D01*
X443523Y53226D01*
X443536Y53220D01*
X443548Y53212D01*
X443697Y53153D01*
X443845Y53092D01*
X443859Y53089D01*
X443873Y53084D01*
X444031Y53061D01*
X444189Y53035D01*
X444203Y53035D01*
X444217Y53033D01*
X444377Y53047D01*
X444536Y53057D01*
X444550Y53061D01*
X444565Y53062D01*
X444717Y53111D01*
X444870Y53158D01*
X444883Y53165D01*
X444896Y53169D01*
X445033Y53252D01*
X445172Y53332D01*
X445183Y53341D01*
X445195Y53349D01*
X445310Y53461D01*
X445426Y53570D01*
X445435Y53582D01*
X445445Y53592D01*
X445532Y53727D01*
X445620Y53859D01*
X445627Y53875D01*
X445633Y53885D01*
X445646Y53922D01*
X445714Y54085D01*
X446136Y55383D01*
X446989Y57057D01*
X448094Y58578D01*
X449422Y59906D01*
X450943Y61011D01*
X452617Y61864D01*
X454404Y62445D01*
X454661Y62485D01*
X454661Y51816D01*
X454664Y51790D01*
X454662Y51764D01*
X454684Y51617D01*
X454701Y51470D01*
X454709Y51445D01*
X454713Y51419D01*
X454768Y51282D01*
X454818Y51142D01*
X454832Y51120D01*
X454842Y51095D01*
X454927Y50974D01*
X455007Y50849D01*
X455026Y50831D01*
X455041Y50809D01*
X455057Y50795D01*
X454975Y50710D01*
X454961Y50687D01*
X454944Y50668D01*
X454872Y50538D01*
X454796Y50411D01*
X454788Y50386D01*
X454775Y50363D01*
X454735Y50220D01*
X454690Y50079D01*
X454687Y50053D01*
X454680Y50028D01*
X454661Y49784D01*
X454661Y26416D01*
X454664Y26390D01*
X454662Y26364D01*
X454684Y26217D01*
X454701Y26070D01*
X454709Y26045D01*
X454713Y26019D01*
X454768Y25882D01*
X454818Y25742D01*
X454832Y25720D01*
X454842Y25695D01*
X454927Y25574D01*
X455007Y25449D01*
X455026Y25431D01*
X455041Y25409D01*
X455151Y25310D01*
X455258Y25207D01*
X455280Y25193D01*
X455300Y25176D01*
X455430Y25104D01*
X455557Y25028D01*
X455582Y25020D01*
X455605Y25007D01*
X455748Y24967D01*
X455889Y24922D01*
X455915Y24920D01*
X455940Y24913D01*
X456184Y24893D01*
X456693Y24893D01*
X456693Y24384D01*
X456696Y24358D01*
X456694Y24332D01*
X456716Y24185D01*
X456733Y24038D01*
X456742Y24013D01*
X456746Y23987D01*
X456800Y23849D01*
X456850Y23710D01*
X456865Y23688D01*
X456874Y23663D01*
X456959Y23542D01*
X457039Y23417D01*
X457058Y23399D01*
X457073Y23377D01*
X457183Y23278D01*
X457290Y23175D01*
X457313Y23161D01*
X457332Y23144D01*
X457462Y23072D01*
X457589Y22996D01*
X457614Y22988D01*
X457637Y22975D01*
X457780Y22935D01*
X457921Y22890D01*
X457947Y22887D01*
X457972Y22880D01*
X458216Y22861D01*
X481584Y22861D01*
X481610Y22864D01*
X481636Y22862D01*
X481783Y22884D01*
X481930Y22901D01*
X481955Y22909D01*
X481981Y22913D01*
X482118Y22968D01*
X482258Y23018D01*
X482280Y23032D01*
X482305Y23042D01*
X482426Y23127D01*
X482551Y23207D01*
X482569Y23226D01*
X482591Y23241D01*
X482690Y23351D01*
X482793Y23458D01*
X482807Y23480D01*
X482824Y23500D01*
X482896Y23630D01*
X482972Y23757D01*
X482980Y23782D01*
X482993Y23805D01*
X483033Y23948D01*
X483078Y24089D01*
X483080Y24115D01*
X483087Y24140D01*
X483107Y24384D01*
X483107Y24893D01*
X483616Y24893D01*
X483642Y24896D01*
X483668Y24894D01*
X483815Y24916D01*
X483962Y24933D01*
X483987Y24942D01*
X484013Y24946D01*
X484151Y25000D01*
X484290Y25050D01*
X484312Y25065D01*
X484337Y25074D01*
X484458Y25159D01*
X484583Y25239D01*
X484601Y25258D01*
X484623Y25273D01*
X484722Y25383D01*
X484825Y25490D01*
X484839Y25513D01*
X484856Y25532D01*
X484928Y25662D01*
X485004Y25789D01*
X485012Y25814D01*
X485025Y25837D01*
X485065Y25980D01*
X485110Y26121D01*
X485112Y26147D01*
X485120Y26172D01*
X485139Y26416D01*
X485139Y49784D01*
X485137Y49801D01*
X485138Y49814D01*
X485137Y49821D01*
X485138Y49836D01*
X485116Y49983D01*
X485099Y50130D01*
X485091Y50155D01*
X485087Y50181D01*
X485032Y50318D01*
X484982Y50458D01*
X484968Y50480D01*
X484958Y50505D01*
X484873Y50626D01*
X484793Y50751D01*
X484774Y50769D01*
X484759Y50791D01*
X484743Y50805D01*
X484825Y50890D01*
X484839Y50913D01*
X484856Y50932D01*
X484928Y51062D01*
X485004Y51189D01*
X485012Y51214D01*
X485025Y51237D01*
X485065Y51380D01*
X485110Y51521D01*
X485112Y51547D01*
X485120Y51572D01*
X485139Y51816D01*
X485139Y62485D01*
X485396Y62445D01*
X487081Y61897D01*
X487243Y61864D01*
X487403Y61830D01*
X487413Y61830D01*
X487422Y61828D01*
X487589Y61833D01*
X487752Y61836D01*
X487761Y61838D01*
X487771Y61839D01*
X487931Y61881D01*
X488090Y61921D01*
X488098Y61925D01*
X488108Y61928D01*
X488253Y62005D01*
X488399Y62081D01*
X488407Y62087D01*
X488415Y62091D01*
X488539Y62200D01*
X488665Y62306D01*
X488671Y62314D01*
X488678Y62321D01*
X488774Y62454D01*
X488872Y62587D01*
X488876Y62596D01*
X488881Y62603D01*
X488945Y62755D01*
X489010Y62907D01*
X489012Y62916D01*
X489015Y62925D01*
X489043Y63088D01*
X489072Y63250D01*
X489071Y63259D01*
X489073Y63269D01*
X489062Y63434D01*
X489054Y63598D01*
X489051Y63607D01*
X489050Y63617D01*
X489003Y63774D01*
X488957Y63933D01*
X488952Y63941D01*
X488950Y63950D01*
X488868Y64092D01*
X488787Y64237D01*
X488780Y64245D01*
X488776Y64252D01*
X488755Y64275D01*
X488629Y64423D01*
X475012Y78039D01*
X474913Y78118D01*
X474820Y78202D01*
X474777Y78226D01*
X474739Y78256D01*
X474625Y78310D01*
X474515Y78371D01*
X474468Y78384D01*
X474424Y78405D01*
X474301Y78431D01*
X474179Y78466D01*
X474118Y78471D01*
X474084Y78478D01*
X474036Y78477D01*
X473935Y78485D01*
X404716Y78485D01*
X278162Y205039D01*
X278063Y205118D01*
X277970Y205202D01*
X277927Y205226D01*
X277889Y205256D01*
X277775Y205310D01*
X277665Y205371D01*
X277618Y205384D01*
X277574Y205405D01*
X277451Y205431D01*
X277329Y205466D01*
X277268Y205471D01*
X277234Y205478D01*
X277186Y205477D01*
X277085Y205485D01*
X139975Y205485D01*
X139850Y205471D01*
X139723Y205464D01*
X139677Y205451D01*
X139629Y205445D01*
X139510Y205403D01*
X139388Y205368D01*
X139346Y205344D01*
X139301Y205328D01*
X139195Y205259D01*
X139084Y205198D01*
X139038Y205158D01*
X139008Y205139D01*
X138974Y205104D01*
X138898Y205039D01*
X137379Y203520D01*
X134765Y202437D01*
X131935Y202437D01*
X129321Y203520D01*
X127320Y205521D01*
X126237Y208135D01*
X126237Y210965D01*
X127320Y213579D01*
X129321Y215580D01*
X131935Y216663D01*
X134765Y216663D01*
X137379Y215580D01*
X138898Y214061D01*
X138997Y213982D01*
X139091Y213898D01*
X139133Y213874D01*
X139171Y213844D01*
X139285Y213790D01*
X139396Y213729D01*
X139442Y213716D01*
X139486Y213695D01*
X139610Y213669D01*
X139731Y213634D01*
X139792Y213629D01*
X139827Y213622D01*
X139875Y213623D01*
X139975Y213615D01*
X281084Y213615D01*
X407638Y87061D01*
X407737Y86982D01*
X407830Y86898D01*
X407873Y86874D01*
X407911Y86844D01*
X408025Y86790D01*
X408135Y86729D01*
X408182Y86716D01*
X408226Y86695D01*
X408349Y86669D01*
X408471Y86634D01*
X408532Y86629D01*
X408566Y86622D01*
X408614Y86623D01*
X408715Y86615D01*
X477934Y86615D01*
X480761Y83788D01*
X502596Y61952D01*
X502656Y61905D01*
X502709Y61850D01*
X502792Y61797D01*
X502869Y61735D01*
X502938Y61703D01*
X503003Y61662D01*
X503096Y61629D01*
X503184Y61587D01*
X503259Y61570D01*
X503331Y61545D01*
X503429Y61534D01*
X503525Y61513D01*
X503601Y61514D01*
X503677Y61506D01*
X503775Y61517D01*
X503874Y61519D01*
X503948Y61538D01*
X504024Y61547D01*
X504166Y61593D01*
X504212Y61604D01*
X504229Y61613D01*
X504256Y61622D01*
X505726Y62231D01*
X510274Y62231D01*
X514475Y60490D01*
X517690Y57275D01*
X519293Y53407D01*
X519342Y53319D01*
X519382Y53227D01*
X519426Y53167D01*
X519462Y53102D01*
X519529Y53028D01*
X519589Y52947D01*
X519646Y52899D01*
X519696Y52844D01*
X519779Y52787D01*
X519855Y52722D01*
X519922Y52688D01*
X519983Y52646D01*
X520076Y52609D01*
X520166Y52563D01*
X520238Y52545D01*
X520307Y52518D01*
X520406Y52504D01*
X520504Y52479D01*
X520578Y52478D01*
X520652Y52467D01*
X520752Y52476D01*
X520852Y52474D01*
X520925Y52490D01*
X520999Y52496D01*
X521095Y52527D01*
X521193Y52549D01*
X521260Y52580D01*
X521331Y52603D01*
X521417Y52655D01*
X521508Y52698D01*
X521566Y52745D01*
X521629Y52783D01*
X521701Y52853D01*
X521780Y52916D01*
X521826Y52974D01*
X521879Y53026D01*
X521934Y53110D01*
X521996Y53189D01*
X522042Y53279D01*
X522068Y53319D01*
X522080Y53353D01*
X522107Y53407D01*
X523710Y57275D01*
X526925Y60490D01*
X531126Y62231D01*
X535674Y62231D01*
X539875Y60490D01*
X543090Y57275D01*
X544693Y53407D01*
X544741Y53319D01*
X544781Y53227D01*
X544826Y53167D01*
X544862Y53102D01*
X544930Y53028D01*
X544989Y52947D01*
X545046Y52899D01*
X545096Y52844D01*
X545179Y52787D01*
X545255Y52722D01*
X545322Y52688D01*
X545383Y52646D01*
X545476Y52609D01*
X545566Y52563D01*
X545638Y52545D01*
X545707Y52518D01*
X545806Y52504D01*
X545904Y52479D01*
X545978Y52478D01*
X546052Y52467D01*
X546152Y52476D01*
X546252Y52474D01*
X546325Y52490D01*
X546399Y52496D01*
X546495Y52527D01*
X546593Y52549D01*
X546660Y52580D01*
X546731Y52603D01*
X546817Y52655D01*
X546908Y52698D01*
X546966Y52745D01*
X547029Y52783D01*
X547102Y52853D01*
X547180Y52916D01*
X547226Y52974D01*
X547279Y53026D01*
X547334Y53110D01*
X547396Y53189D01*
X547442Y53279D01*
X547468Y53319D01*
X547480Y53353D01*
X547507Y53407D01*
X549110Y57275D01*
X552325Y60490D01*
X556526Y62231D01*
X561074Y62231D01*
X565275Y60490D01*
X568490Y57275D01*
X570093Y53407D01*
X570141Y53319D01*
X570181Y53227D01*
X570226Y53167D01*
X570262Y53102D01*
X570330Y53028D01*
X570389Y52947D01*
X570446Y52899D01*
X570496Y52844D01*
X570579Y52787D01*
X570655Y52722D01*
X570722Y52688D01*
X570783Y52646D01*
X570876Y52609D01*
X570966Y52563D01*
X571038Y52545D01*
X571107Y52518D01*
X571206Y52504D01*
X571304Y52479D01*
X571378Y52478D01*
X571452Y52467D01*
X571552Y52476D01*
X571652Y52474D01*
X571725Y52490D01*
X571799Y52496D01*
X571895Y52527D01*
X571993Y52549D01*
X572060Y52580D01*
X572131Y52603D01*
X572217Y52655D01*
X572308Y52698D01*
X572366Y52745D01*
X572429Y52783D01*
X572502Y52853D01*
X572580Y52916D01*
X572626Y52974D01*
X572679Y53026D01*
X572734Y53110D01*
X572796Y53189D01*
X572842Y53279D01*
X572868Y53319D01*
X572880Y53353D01*
X572907Y53407D01*
X574510Y57275D01*
X577725Y60490D01*
X581926Y62231D01*
X586474Y62231D01*
X590675Y60490D01*
X593890Y57275D01*
X595631Y53074D01*
X595631Y48526D01*
X593890Y44325D01*
X590743Y41177D01*
X590664Y41078D01*
X590580Y40985D01*
X590556Y40942D01*
X590526Y40904D01*
X590472Y40790D01*
X590411Y40679D01*
X590398Y40633D01*
X590377Y40589D01*
X590351Y40466D01*
X590316Y40344D01*
X590311Y40283D01*
X590304Y40249D01*
X590305Y40201D01*
X590297Y40100D01*
X590297Y36100D01*
X590311Y35974D01*
X590318Y35848D01*
X590331Y35801D01*
X590337Y35753D01*
X590379Y35635D01*
X590414Y35513D01*
X590438Y35471D01*
X590454Y35425D01*
X590523Y35319D01*
X590584Y35209D01*
X590624Y35163D01*
X590643Y35133D01*
X590678Y35099D01*
X590743Y35023D01*
X593890Y31875D01*
X595631Y27674D01*
X595631Y23126D01*
X593890Y18925D01*
X590675Y15710D01*
X588484Y14802D01*
X588482Y14801D01*
X588480Y14800D01*
X588331Y14717D01*
X588179Y14633D01*
X588178Y14631D01*
X588176Y14630D01*
X587990Y14472D01*
X587439Y13921D01*
X578659Y5141D01*
X578597Y5063D01*
X578527Y4990D01*
X578489Y4926D01*
X578443Y4868D01*
X578400Y4777D01*
X578348Y4691D01*
X578325Y4620D01*
X578294Y4553D01*
X578273Y4455D01*
X578242Y4359D01*
X578236Y4285D01*
X578220Y4212D01*
X578222Y4112D01*
X578214Y4012D01*
X578225Y3938D01*
X578226Y3864D01*
X578251Y3767D01*
X578266Y3667D01*
X578293Y3598D01*
X578311Y3526D01*
X578357Y3436D01*
X578394Y3343D01*
X578437Y3282D01*
X578471Y3216D01*
X578536Y3139D01*
X578593Y3057D01*
X578648Y3007D01*
X578697Y2951D01*
X578778Y2891D01*
X578852Y2824D01*
X578917Y2788D01*
X578977Y2743D01*
X579069Y2704D01*
X579157Y2655D01*
X579229Y2635D01*
X579297Y2605D01*
X579396Y2588D01*
X579492Y2560D01*
X579593Y2552D01*
X579640Y2544D01*
X579676Y2546D01*
X579736Y2541D01*
X799900Y2541D01*
X799948Y2546D01*
X800049Y2548D01*
X801734Y2714D01*
X801834Y2736D01*
X801935Y2747D01*
X802028Y2778D01*
X802075Y2788D01*
X802108Y2803D01*
X802168Y2823D01*
X805281Y4112D01*
X805283Y4113D01*
X805285Y4114D01*
X805433Y4196D01*
X805585Y4281D01*
X805587Y4283D01*
X805589Y4284D01*
X805775Y4442D01*
X808158Y6825D01*
X808159Y6827D01*
X808161Y6828D01*
X808271Y6967D01*
X808374Y7098D01*
X808375Y7100D01*
X808376Y7101D01*
X808488Y7319D01*
X809777Y10432D01*
X809805Y10531D01*
X809843Y10625D01*
X809860Y10721D01*
X809873Y10767D01*
X809875Y10804D01*
X809886Y10866D01*
X810052Y12551D01*
X810051Y12599D01*
X810059Y12700D01*
X810059Y466600D01*
X810054Y466648D01*
X810052Y466749D01*
X809886Y468434D01*
X809864Y468534D01*
X809853Y468635D01*
X809822Y468728D01*
X809812Y468775D01*
X809797Y468808D01*
X809777Y468868D01*
X808488Y471981D01*
X808487Y471983D01*
X808486Y471985D01*
X808404Y472133D01*
X808319Y472285D01*
X808317Y472287D01*
X808316Y472289D01*
X808158Y472475D01*
X805775Y474858D01*
X805773Y474859D01*
X805772Y474861D01*
X805633Y474971D01*
X805502Y475074D01*
X805500Y475075D01*
X805499Y475076D01*
X805281Y475188D01*
X802168Y476477D01*
X802069Y476505D01*
X801975Y476543D01*
X801879Y476560D01*
X801833Y476573D01*
X801796Y476575D01*
X801734Y476586D01*
X800049Y476752D01*
X800001Y476751D01*
X799900Y476759D01*
X46987Y476759D01*
X46937Y476754D01*
X46887Y476756D01*
X46764Y476734D01*
X46641Y476719D01*
X46593Y476702D01*
X46544Y476693D01*
X46430Y476644D01*
X46313Y476602D01*
X46270Y476575D01*
X46224Y476555D01*
X46124Y476480D01*
X46020Y476413D01*
X45985Y476377D01*
X45944Y476347D01*
X45864Y476252D01*
X45778Y476162D01*
X45752Y476119D01*
X45719Y476081D01*
X45663Y475970D01*
X45599Y475863D01*
X45583Y475815D01*
X45560Y475770D01*
X45530Y475650D01*
X45493Y475531D01*
X45488Y475481D01*
X45476Y475432D01*
X45475Y475308D01*
X45465Y475184D01*
X45472Y475134D01*
X45471Y475084D01*
X45498Y474962D01*
X45516Y474839D01*
X45535Y474792D01*
X45546Y474743D01*
X45599Y474631D01*
X45645Y474515D01*
X45674Y474474D01*
X45695Y474428D01*
X45773Y474331D01*
X45844Y474229D01*
X45881Y474195D01*
X45913Y474156D01*
X46010Y474079D01*
X46103Y473996D01*
X46147Y473971D01*
X46186Y473940D01*
X46404Y473829D01*
X48603Y472918D01*
X53818Y467703D01*
X56641Y460888D01*
X56641Y453512D01*
X53818Y446697D01*
X48603Y441482D01*
X41788Y438659D01*
X34412Y438659D01*
X27597Y441482D01*
X22382Y446697D01*
X19559Y453512D01*
X19559Y460888D01*
X22382Y467703D01*
X27597Y472918D01*
X29796Y473829D01*
X29840Y473853D01*
X29887Y473870D01*
X29992Y473938D01*
X30101Y473998D01*
X30138Y474032D01*
X30180Y474059D01*
X30267Y474149D01*
X30359Y474232D01*
X30387Y474274D01*
X30422Y474310D01*
X30486Y474417D01*
X30557Y474519D01*
X30575Y474566D01*
X30601Y474609D01*
X30639Y474727D01*
X30685Y474843D01*
X30692Y474893D01*
X30707Y474941D01*
X30717Y475065D01*
X30736Y475188D01*
X30731Y475238D01*
X30735Y475288D01*
X30717Y475411D01*
X30707Y475535D01*
X30691Y475583D01*
X30684Y475633D01*
X30638Y475748D01*
X30600Y475867D01*
X30574Y475910D01*
X30555Y475957D01*
X30484Y476059D01*
X30420Y476165D01*
X30385Y476202D01*
X30356Y476243D01*
X30264Y476326D01*
X30177Y476415D01*
X30135Y476443D01*
X30097Y476476D01*
X29988Y476536D01*
X29884Y476604D01*
X29836Y476621D01*
X29792Y476645D01*
X29673Y476679D01*
X29555Y476720D01*
X29505Y476726D01*
X29457Y476740D01*
X29213Y476759D01*
X12700Y476759D01*
X12652Y476754D01*
X12551Y476752D01*
X10866Y476586D01*
X10766Y476564D01*
X10665Y476553D01*
X10572Y476522D01*
X10525Y476512D01*
X10492Y476497D01*
X10432Y476477D01*
X7319Y475188D01*
X7317Y475187D01*
X7315Y475186D01*
X7167Y475104D01*
X7015Y475019D01*
X7013Y475017D01*
X7011Y475016D01*
X6825Y474858D01*
X4442Y472475D01*
X4441Y472473D01*
X4439Y472472D01*
X4326Y472329D01*
X4226Y472202D01*
X4225Y472200D01*
X4224Y472199D01*
X4112Y471981D01*
X2823Y468868D01*
X2795Y468769D01*
X2757Y468675D01*
X2740Y468579D01*
X2727Y468533D01*
X2725Y468496D01*
X2714Y468434D01*
X2548Y466749D01*
X2549Y466701D01*
X2541Y466600D01*
X2541Y12700D01*
X2546Y12652D01*
X2548Y12551D01*
X2714Y10866D01*
X2736Y10766D01*
X2747Y10665D01*
X2778Y10572D01*
X2788Y10525D01*
X2803Y10492D01*
X2823Y10432D01*
X4112Y7319D01*
X4113Y7317D01*
X4114Y7315D01*
X4196Y7167D01*
X4281Y7015D01*
X4283Y7013D01*
X4284Y7011D01*
X4442Y6825D01*
X6825Y4442D01*
X6827Y4441D01*
X6828Y4439D01*
X6970Y4327D01*
X7098Y4226D01*
X7100Y4225D01*
X7101Y4224D01*
X7319Y4112D01*
X10432Y2823D01*
X10531Y2795D01*
X10625Y2757D01*
X10721Y2740D01*
X10767Y2727D01*
X10804Y2725D01*
X10866Y2714D01*
X12551Y2548D01*
X12599Y2549D01*
X12700Y2541D01*
X101840Y2541D01*
X101844Y2541D01*
G37*
%LPC*%
G36*
X582785Y88137D02*
X582785Y88137D01*
X580171Y89220D01*
X578144Y91247D01*
X578045Y91326D01*
X577951Y91410D01*
X577909Y91434D01*
X577871Y91464D01*
X577757Y91518D01*
X577646Y91579D01*
X577600Y91592D01*
X577556Y91613D01*
X577432Y91639D01*
X577311Y91674D01*
X577250Y91679D01*
X577215Y91686D01*
X577167Y91685D01*
X577067Y91693D01*
X411277Y91693D01*
X390143Y112827D01*
X390143Y224429D01*
X390138Y224480D01*
X390140Y224530D01*
X390118Y224652D01*
X390103Y224776D01*
X390086Y224823D01*
X390077Y224873D01*
X390028Y224987D01*
X389986Y225104D01*
X389959Y225146D01*
X389938Y225192D01*
X389864Y225292D01*
X389797Y225397D01*
X389761Y225432D01*
X389731Y225472D01*
X389636Y225552D01*
X389546Y225639D01*
X389503Y225665D01*
X389465Y225697D01*
X389354Y225754D01*
X389247Y225818D01*
X389199Y225833D01*
X389154Y225856D01*
X389034Y225886D01*
X388915Y225924D01*
X388865Y225928D01*
X388816Y225940D01*
X388692Y225942D01*
X388568Y225952D01*
X388518Y225944D01*
X388468Y225945D01*
X388346Y225919D01*
X388223Y225900D01*
X388176Y225882D01*
X388127Y225871D01*
X388015Y225817D01*
X387899Y225771D01*
X387858Y225743D01*
X387812Y225721D01*
X387715Y225643D01*
X387613Y225572D01*
X387579Y225535D01*
X387540Y225504D01*
X387463Y225406D01*
X387380Y225314D01*
X387355Y225270D01*
X387324Y225230D01*
X387213Y225012D01*
X387030Y224571D01*
X385029Y222570D01*
X382415Y221487D01*
X379585Y221487D01*
X376971Y222570D01*
X374944Y224597D01*
X374845Y224676D01*
X374751Y224760D01*
X374709Y224784D01*
X374671Y224814D01*
X374557Y224868D01*
X374446Y224929D01*
X374400Y224942D01*
X374356Y224963D01*
X374232Y224989D01*
X374111Y225024D01*
X374050Y225029D01*
X374015Y225036D01*
X373967Y225035D01*
X373867Y225043D01*
X163627Y225043D01*
X154929Y233741D01*
X154830Y233820D01*
X154736Y233904D01*
X154694Y233928D01*
X154656Y233958D01*
X154542Y234012D01*
X154431Y234073D01*
X154384Y234086D01*
X154341Y234107D01*
X154217Y234133D01*
X154096Y234168D01*
X154035Y234173D01*
X154000Y234180D01*
X153952Y234179D01*
X153852Y234187D01*
X150985Y234187D01*
X148371Y235270D01*
X146370Y237271D01*
X145287Y239885D01*
X145287Y242715D01*
X146370Y245329D01*
X148371Y247330D01*
X150985Y248413D01*
X153815Y248413D01*
X156429Y247330D01*
X158430Y245329D01*
X159513Y242715D01*
X159513Y239848D01*
X159527Y239723D01*
X159534Y239596D01*
X159547Y239550D01*
X159553Y239502D01*
X159595Y239383D01*
X159630Y239262D01*
X159654Y239219D01*
X159670Y239174D01*
X159739Y239068D01*
X159800Y238957D01*
X159840Y238911D01*
X159859Y238881D01*
X159894Y238848D01*
X159959Y238771D01*
X166127Y232603D01*
X166226Y232524D01*
X166320Y232440D01*
X166362Y232416D01*
X166400Y232386D01*
X166514Y232332D01*
X166625Y232271D01*
X166672Y232258D01*
X166715Y232237D01*
X166839Y232211D01*
X166960Y232176D01*
X167021Y232171D01*
X167056Y232164D01*
X167104Y232165D01*
X167204Y232157D01*
X373867Y232157D01*
X373992Y232171D01*
X374119Y232178D01*
X374165Y232191D01*
X374213Y232197D01*
X374332Y232239D01*
X374454Y232274D01*
X374496Y232298D01*
X374541Y232314D01*
X374647Y232383D01*
X374758Y232444D01*
X374804Y232484D01*
X374834Y232503D01*
X374868Y232538D01*
X374944Y232603D01*
X376971Y234630D01*
X379585Y235713D01*
X382415Y235713D01*
X385029Y234630D01*
X387030Y232629D01*
X387213Y232188D01*
X387237Y232144D01*
X387254Y232096D01*
X387322Y231992D01*
X387382Y231883D01*
X387416Y231846D01*
X387443Y231803D01*
X387533Y231717D01*
X387616Y231625D01*
X387658Y231596D01*
X387694Y231561D01*
X387801Y231497D01*
X387903Y231427D01*
X387950Y231408D01*
X387993Y231382D01*
X388111Y231344D01*
X388227Y231299D01*
X388277Y231291D01*
X388325Y231276D01*
X388449Y231266D01*
X388572Y231248D01*
X388622Y231252D01*
X388672Y231248D01*
X388795Y231267D01*
X388919Y231277D01*
X388967Y231292D01*
X389017Y231300D01*
X389133Y231346D01*
X389251Y231384D01*
X389294Y231410D01*
X389341Y231429D01*
X389443Y231500D01*
X389549Y231564D01*
X389586Y231599D01*
X389627Y231628D01*
X389710Y231720D01*
X389799Y231806D01*
X389827Y231849D01*
X389860Y231886D01*
X389920Y231995D01*
X389988Y232100D01*
X390004Y232147D01*
X390029Y232191D01*
X390063Y232311D01*
X390104Y232428D01*
X390110Y232478D01*
X390124Y232527D01*
X390143Y232771D01*
X390143Y296346D01*
X390129Y296471D01*
X390122Y296598D01*
X390109Y296644D01*
X390103Y296692D01*
X390061Y296811D01*
X390026Y296932D01*
X390002Y296975D01*
X389986Y297020D01*
X389917Y297126D01*
X389856Y297237D01*
X389816Y297283D01*
X389797Y297313D01*
X389762Y297347D01*
X389697Y297423D01*
X272612Y414508D01*
X272552Y414556D01*
X272499Y414611D01*
X272416Y414664D01*
X272339Y414725D01*
X272270Y414758D01*
X272205Y414799D01*
X272113Y414832D01*
X272024Y414874D01*
X271949Y414890D01*
X271877Y414916D01*
X271779Y414927D01*
X271683Y414947D01*
X271607Y414946D01*
X271531Y414955D01*
X271433Y414943D01*
X271334Y414941D01*
X271260Y414923D01*
X271184Y414914D01*
X271042Y414868D01*
X270996Y414856D01*
X270979Y414847D01*
X270952Y414839D01*
X268974Y414019D01*
X264426Y414019D01*
X260225Y415760D01*
X257010Y418975D01*
X255269Y423176D01*
X255269Y427724D01*
X257010Y431925D01*
X260225Y435140D01*
X262203Y435960D01*
X262270Y435997D01*
X262341Y436025D01*
X262421Y436081D01*
X262508Y436129D01*
X262564Y436181D01*
X262627Y436224D01*
X262693Y436297D01*
X262766Y436363D01*
X262809Y436426D01*
X262860Y436483D01*
X262908Y436569D01*
X262964Y436650D01*
X262992Y436721D01*
X263029Y436788D01*
X263056Y436883D01*
X263092Y436974D01*
X263103Y437050D01*
X263124Y437123D01*
X263136Y437272D01*
X263143Y437319D01*
X263141Y437338D01*
X263143Y437367D01*
X263143Y438933D01*
X263135Y439009D01*
X263136Y439085D01*
X263115Y439182D01*
X263103Y439279D01*
X263078Y439351D01*
X263061Y439426D01*
X263019Y439515D01*
X262986Y439607D01*
X262944Y439672D01*
X262912Y439740D01*
X262850Y439817D01*
X262797Y439900D01*
X262742Y439953D01*
X262694Y440013D01*
X262617Y440074D01*
X262546Y440142D01*
X262481Y440181D01*
X262421Y440229D01*
X262288Y440297D01*
X262247Y440321D01*
X262229Y440327D01*
X262203Y440340D01*
X260225Y441160D01*
X257010Y444375D01*
X255269Y448576D01*
X255269Y453124D01*
X257010Y457325D01*
X260225Y460540D01*
X264426Y462281D01*
X268974Y462281D01*
X273175Y460540D01*
X276390Y457325D01*
X277758Y454023D01*
X277836Y453883D01*
X277911Y453742D01*
X277921Y453731D01*
X277928Y453718D01*
X278035Y453600D01*
X278140Y453479D01*
X278152Y453471D01*
X278162Y453460D01*
X278293Y453369D01*
X278423Y453276D01*
X278436Y453270D01*
X278448Y453262D01*
X278597Y453203D01*
X278745Y453142D01*
X278759Y453139D01*
X278773Y453134D01*
X278931Y453111D01*
X279089Y453085D01*
X279103Y453085D01*
X279117Y453083D01*
X279277Y453097D01*
X279436Y453107D01*
X279450Y453111D01*
X279465Y453112D01*
X279617Y453161D01*
X279770Y453208D01*
X279783Y453215D01*
X279796Y453219D01*
X279933Y453302D01*
X280072Y453382D01*
X280083Y453391D01*
X280095Y453399D01*
X280210Y453511D01*
X280326Y453620D01*
X280335Y453632D01*
X280345Y453642D01*
X280432Y453777D01*
X280520Y453909D01*
X280527Y453925D01*
X280533Y453935D01*
X280546Y453972D01*
X280614Y454135D01*
X281036Y455433D01*
X281889Y457107D01*
X282994Y458628D01*
X284322Y459956D01*
X285843Y461061D01*
X287517Y461914D01*
X289304Y462495D01*
X289561Y462535D01*
X289561Y451866D01*
X289562Y451854D01*
X289562Y451847D01*
X289563Y451836D01*
X289562Y451814D01*
X289584Y451667D01*
X289601Y451520D01*
X289609Y451495D01*
X289613Y451469D01*
X289668Y451332D01*
X289718Y451192D01*
X289732Y451170D01*
X289742Y451145D01*
X289827Y451024D01*
X289907Y450899D01*
X289926Y450881D01*
X289941Y450859D01*
X289957Y450845D01*
X289875Y450760D01*
X289861Y450737D01*
X289844Y450718D01*
X289772Y450588D01*
X289696Y450461D01*
X289688Y450436D01*
X289675Y450413D01*
X289635Y450270D01*
X289590Y450129D01*
X289587Y450103D01*
X289580Y450078D01*
X289561Y449834D01*
X289561Y426466D01*
X289564Y426440D01*
X289562Y426414D01*
X289584Y426267D01*
X289601Y426120D01*
X289609Y426095D01*
X289613Y426069D01*
X289668Y425932D01*
X289718Y425792D01*
X289732Y425770D01*
X289742Y425745D01*
X289827Y425624D01*
X289907Y425499D01*
X289926Y425481D01*
X289941Y425459D01*
X289957Y425445D01*
X289875Y425360D01*
X289861Y425337D01*
X289844Y425318D01*
X289772Y425188D01*
X289696Y425061D01*
X289688Y425036D01*
X289675Y425013D01*
X289635Y424870D01*
X289590Y424729D01*
X289587Y424703D01*
X289580Y424678D01*
X289561Y424434D01*
X289561Y413765D01*
X289304Y413805D01*
X287517Y414386D01*
X286457Y414926D01*
X286354Y414965D01*
X286254Y415012D01*
X286191Y415025D01*
X286130Y415048D01*
X286021Y415062D01*
X285913Y415085D01*
X285849Y415084D01*
X285784Y415092D01*
X285675Y415081D01*
X285565Y415079D01*
X285502Y415063D01*
X285438Y415057D01*
X285334Y415021D01*
X285227Y414994D01*
X285169Y414964D01*
X285108Y414943D01*
X285015Y414885D01*
X284917Y414834D01*
X284868Y414793D01*
X284813Y414758D01*
X284736Y414680D01*
X284652Y414609D01*
X284613Y414557D01*
X284568Y414510D01*
X284510Y414417D01*
X284445Y414328D01*
X284419Y414269D01*
X284385Y414214D01*
X284350Y414109D01*
X284307Y414008D01*
X284295Y413945D01*
X284275Y413883D01*
X284264Y413774D01*
X284245Y413665D01*
X284248Y413601D01*
X284242Y413536D01*
X284257Y413427D01*
X284263Y413317D01*
X284281Y413255D01*
X284290Y413191D01*
X284329Y413088D01*
X284359Y412982D01*
X284391Y412926D01*
X284414Y412865D01*
X284476Y412774D01*
X284530Y412678D01*
X284584Y412614D01*
X284609Y412577D01*
X284640Y412549D01*
X284688Y412492D01*
X393893Y303287D01*
X393971Y303225D01*
X394044Y303155D01*
X394108Y303117D01*
X394166Y303070D01*
X394257Y303028D01*
X394343Y302976D01*
X394414Y302953D01*
X394481Y302922D01*
X394579Y302900D01*
X394675Y302870D01*
X394749Y302864D01*
X394822Y302848D01*
X394922Y302850D01*
X395022Y302842D01*
X395096Y302853D01*
X395170Y302854D01*
X395267Y302879D01*
X395367Y302893D01*
X395436Y302921D01*
X395508Y302939D01*
X395598Y302985D01*
X395691Y303022D01*
X395752Y303065D01*
X395818Y303099D01*
X395895Y303164D01*
X395977Y303221D01*
X396027Y303276D01*
X396083Y303325D01*
X396143Y303405D01*
X396210Y303480D01*
X396246Y303545D01*
X396291Y303605D01*
X396330Y303697D01*
X396379Y303785D01*
X396399Y303857D01*
X396429Y303925D01*
X396446Y304024D01*
X396474Y304120D01*
X396482Y304220D01*
X396490Y304268D01*
X396488Y304304D01*
X396493Y304364D01*
X396493Y340796D01*
X396479Y340921D01*
X396472Y341048D01*
X396459Y341094D01*
X396453Y341142D01*
X396411Y341261D01*
X396376Y341382D01*
X396352Y341425D01*
X396336Y341470D01*
X396267Y341576D01*
X396206Y341687D01*
X396166Y341733D01*
X396147Y341763D01*
X396112Y341797D01*
X396047Y341873D01*
X323412Y414508D01*
X323352Y414556D01*
X323299Y414611D01*
X323216Y414664D01*
X323139Y414725D01*
X323070Y414758D01*
X323005Y414799D01*
X322913Y414832D01*
X322824Y414874D01*
X322749Y414890D01*
X322677Y414916D01*
X322579Y414927D01*
X322483Y414947D01*
X322407Y414946D01*
X322331Y414955D01*
X322233Y414943D01*
X322134Y414941D01*
X322060Y414923D01*
X321984Y414914D01*
X321842Y414868D01*
X321796Y414856D01*
X321779Y414847D01*
X321752Y414839D01*
X319774Y414019D01*
X315226Y414019D01*
X311025Y415760D01*
X307810Y418975D01*
X306442Y422277D01*
X306364Y422417D01*
X306289Y422558D01*
X306279Y422569D01*
X306272Y422582D01*
X306165Y422700D01*
X306060Y422821D01*
X306048Y422829D01*
X306038Y422840D01*
X305908Y422930D01*
X305777Y423024D01*
X305764Y423030D01*
X305752Y423038D01*
X305603Y423097D01*
X305455Y423158D01*
X305441Y423161D01*
X305427Y423166D01*
X305269Y423189D01*
X305111Y423215D01*
X305097Y423215D01*
X305083Y423217D01*
X304923Y423203D01*
X304764Y423193D01*
X304750Y423189D01*
X304735Y423188D01*
X304583Y423139D01*
X304430Y423092D01*
X304417Y423085D01*
X304404Y423081D01*
X304267Y422998D01*
X304128Y422918D01*
X304117Y422909D01*
X304105Y422901D01*
X303990Y422789D01*
X303874Y422680D01*
X303865Y422668D01*
X303855Y422658D01*
X303768Y422523D01*
X303680Y422391D01*
X303673Y422375D01*
X303667Y422365D01*
X303654Y422328D01*
X303586Y422165D01*
X303164Y420867D01*
X302311Y419193D01*
X301206Y417672D01*
X299878Y416344D01*
X298357Y415239D01*
X296683Y414386D01*
X294896Y413805D01*
X294639Y413765D01*
X294639Y424434D01*
X294636Y424460D01*
X294638Y424486D01*
X294616Y424633D01*
X294599Y424780D01*
X294591Y424805D01*
X294587Y424831D01*
X294532Y424968D01*
X294482Y425108D01*
X294468Y425130D01*
X294458Y425155D01*
X294373Y425276D01*
X294293Y425401D01*
X294274Y425419D01*
X294259Y425441D01*
X294243Y425455D01*
X294325Y425540D01*
X294339Y425563D01*
X294356Y425582D01*
X294428Y425712D01*
X294504Y425839D01*
X294512Y425864D01*
X294525Y425887D01*
X294565Y426030D01*
X294610Y426171D01*
X294612Y426197D01*
X294620Y426222D01*
X294639Y426466D01*
X294639Y449834D01*
X294636Y449860D01*
X294638Y449886D01*
X294616Y450033D01*
X294599Y450180D01*
X294591Y450205D01*
X294587Y450231D01*
X294532Y450368D01*
X294482Y450508D01*
X294468Y450530D01*
X294458Y450555D01*
X294373Y450676D01*
X294293Y450801D01*
X294274Y450819D01*
X294259Y450841D01*
X294243Y450855D01*
X294325Y450940D01*
X294339Y450963D01*
X294356Y450982D01*
X294428Y451112D01*
X294504Y451239D01*
X294512Y451264D01*
X294525Y451287D01*
X294565Y451430D01*
X294610Y451571D01*
X294612Y451597D01*
X294620Y451622D01*
X294639Y451866D01*
X294639Y462535D01*
X294896Y462495D01*
X296683Y461914D01*
X298357Y461061D01*
X299878Y459956D01*
X301206Y458628D01*
X302311Y457107D01*
X303164Y455433D01*
X303586Y454135D01*
X303652Y453991D01*
X303716Y453843D01*
X303725Y453831D01*
X303731Y453818D01*
X303828Y453692D01*
X303924Y453563D01*
X303935Y453554D01*
X303944Y453542D01*
X304068Y453441D01*
X304190Y453338D01*
X304203Y453332D01*
X304214Y453322D01*
X304359Y453252D01*
X304500Y453179D01*
X304514Y453176D01*
X304527Y453169D01*
X304684Y453134D01*
X304838Y453095D01*
X304853Y453095D01*
X304867Y453092D01*
X305027Y453093D01*
X305187Y453090D01*
X305201Y453093D01*
X305215Y453093D01*
X305371Y453130D01*
X305527Y453165D01*
X305540Y453171D01*
X305555Y453174D01*
X305699Y453246D01*
X305842Y453314D01*
X305853Y453323D01*
X305866Y453330D01*
X305990Y453433D01*
X306114Y453532D01*
X306123Y453543D01*
X306135Y453552D01*
X306231Y453679D01*
X306330Y453805D01*
X306338Y453821D01*
X306345Y453830D01*
X306361Y453865D01*
X306442Y454023D01*
X307810Y457325D01*
X311025Y460540D01*
X315226Y462281D01*
X319774Y462281D01*
X323975Y460540D01*
X327190Y457325D01*
X328793Y453457D01*
X328842Y453369D01*
X328882Y453277D01*
X328926Y453217D01*
X328962Y453152D01*
X329029Y453078D01*
X329089Y452997D01*
X329146Y452949D01*
X329196Y452894D01*
X329279Y452837D01*
X329355Y452772D01*
X329422Y452738D01*
X329483Y452696D01*
X329576Y452659D01*
X329666Y452613D01*
X329738Y452595D01*
X329807Y452568D01*
X329906Y452554D01*
X330004Y452529D01*
X330078Y452528D01*
X330152Y452517D01*
X330252Y452526D01*
X330352Y452524D01*
X330425Y452540D01*
X330499Y452546D01*
X330595Y452577D01*
X330693Y452599D01*
X330760Y452630D01*
X330831Y452653D01*
X330917Y452705D01*
X331008Y452748D01*
X331066Y452795D01*
X331129Y452833D01*
X331201Y452903D01*
X331280Y452966D01*
X331326Y453024D01*
X331379Y453076D01*
X331434Y453160D01*
X331496Y453239D01*
X331542Y453329D01*
X331568Y453369D01*
X331580Y453403D01*
X331607Y453457D01*
X333210Y457325D01*
X336425Y460540D01*
X340626Y462281D01*
X345174Y462281D01*
X349375Y460540D01*
X352590Y457325D01*
X354193Y453457D01*
X354242Y453369D01*
X354282Y453277D01*
X354326Y453217D01*
X354362Y453152D01*
X354429Y453078D01*
X354489Y452997D01*
X354546Y452949D01*
X354596Y452894D01*
X354679Y452837D01*
X354755Y452772D01*
X354822Y452738D01*
X354883Y452696D01*
X354976Y452659D01*
X355066Y452613D01*
X355138Y452595D01*
X355207Y452568D01*
X355306Y452554D01*
X355404Y452529D01*
X355478Y452528D01*
X355552Y452517D01*
X355652Y452526D01*
X355752Y452524D01*
X355825Y452540D01*
X355899Y452546D01*
X355995Y452577D01*
X356093Y452599D01*
X356160Y452630D01*
X356231Y452653D01*
X356317Y452705D01*
X356408Y452748D01*
X356466Y452795D01*
X356529Y452833D01*
X356601Y452903D01*
X356680Y452966D01*
X356726Y453024D01*
X356779Y453076D01*
X356834Y453160D01*
X356896Y453239D01*
X356942Y453329D01*
X356968Y453369D01*
X356980Y453403D01*
X357007Y453457D01*
X358610Y457325D01*
X361825Y460540D01*
X366026Y462281D01*
X370574Y462281D01*
X374775Y460540D01*
X377990Y457325D01*
X379593Y453457D01*
X379642Y453369D01*
X379682Y453277D01*
X379726Y453217D01*
X379762Y453152D01*
X379829Y453078D01*
X379889Y452997D01*
X379946Y452949D01*
X379996Y452894D01*
X380079Y452837D01*
X380155Y452772D01*
X380222Y452738D01*
X380283Y452696D01*
X380376Y452659D01*
X380466Y452613D01*
X380538Y452595D01*
X380607Y452568D01*
X380706Y452554D01*
X380804Y452529D01*
X380878Y452528D01*
X380952Y452517D01*
X381052Y452526D01*
X381152Y452524D01*
X381225Y452540D01*
X381299Y452546D01*
X381395Y452577D01*
X381493Y452599D01*
X381560Y452630D01*
X381631Y452653D01*
X381717Y452705D01*
X381808Y452748D01*
X381866Y452795D01*
X381929Y452833D01*
X382001Y452903D01*
X382080Y452966D01*
X382126Y453024D01*
X382179Y453076D01*
X382234Y453160D01*
X382296Y453239D01*
X382342Y453329D01*
X382368Y453369D01*
X382380Y453403D01*
X382407Y453457D01*
X384010Y457325D01*
X387225Y460540D01*
X391426Y462281D01*
X395974Y462281D01*
X400175Y460540D01*
X403390Y457325D01*
X404993Y453457D01*
X405042Y453369D01*
X405082Y453277D01*
X405126Y453217D01*
X405162Y453152D01*
X405229Y453078D01*
X405289Y452997D01*
X405346Y452949D01*
X405396Y452894D01*
X405479Y452837D01*
X405555Y452772D01*
X405622Y452738D01*
X405683Y452696D01*
X405776Y452659D01*
X405866Y452613D01*
X405938Y452595D01*
X406007Y452568D01*
X406106Y452554D01*
X406204Y452529D01*
X406278Y452528D01*
X406352Y452517D01*
X406452Y452526D01*
X406552Y452524D01*
X406625Y452540D01*
X406699Y452546D01*
X406795Y452577D01*
X406893Y452599D01*
X406960Y452630D01*
X407031Y452653D01*
X407117Y452705D01*
X407208Y452748D01*
X407266Y452795D01*
X407329Y452833D01*
X407401Y452903D01*
X407480Y452966D01*
X407526Y453024D01*
X407579Y453076D01*
X407634Y453160D01*
X407696Y453239D01*
X407742Y453329D01*
X407768Y453369D01*
X407780Y453403D01*
X407807Y453457D01*
X409410Y457325D01*
X412625Y460540D01*
X416826Y462281D01*
X421374Y462281D01*
X425575Y460540D01*
X428790Y457325D01*
X430393Y453457D01*
X430442Y453369D01*
X430482Y453277D01*
X430526Y453217D01*
X430562Y453152D01*
X430629Y453078D01*
X430689Y452997D01*
X430746Y452949D01*
X430796Y452894D01*
X430879Y452837D01*
X430955Y452772D01*
X431022Y452738D01*
X431083Y452696D01*
X431176Y452659D01*
X431266Y452613D01*
X431338Y452595D01*
X431407Y452568D01*
X431506Y452554D01*
X431604Y452529D01*
X431678Y452528D01*
X431752Y452517D01*
X431852Y452526D01*
X431952Y452524D01*
X432025Y452540D01*
X432099Y452546D01*
X432195Y452577D01*
X432293Y452599D01*
X432360Y452630D01*
X432431Y452653D01*
X432517Y452705D01*
X432608Y452748D01*
X432666Y452795D01*
X432729Y452833D01*
X432801Y452903D01*
X432880Y452966D01*
X432926Y453024D01*
X432979Y453076D01*
X433034Y453160D01*
X433096Y453239D01*
X433142Y453329D01*
X433168Y453369D01*
X433180Y453403D01*
X433207Y453457D01*
X434810Y457325D01*
X438025Y460540D01*
X442226Y462281D01*
X446774Y462281D01*
X450975Y460540D01*
X454190Y457325D01*
X455793Y453457D01*
X455842Y453369D01*
X455882Y453277D01*
X455926Y453217D01*
X455962Y453152D01*
X456029Y453078D01*
X456089Y452997D01*
X456146Y452949D01*
X456196Y452894D01*
X456279Y452837D01*
X456355Y452772D01*
X456422Y452738D01*
X456483Y452696D01*
X456576Y452659D01*
X456666Y452613D01*
X456738Y452595D01*
X456807Y452568D01*
X456906Y452554D01*
X457004Y452529D01*
X457078Y452528D01*
X457152Y452517D01*
X457252Y452526D01*
X457352Y452524D01*
X457425Y452540D01*
X457499Y452546D01*
X457595Y452577D01*
X457693Y452599D01*
X457760Y452630D01*
X457831Y452653D01*
X457917Y452705D01*
X458008Y452748D01*
X458066Y452795D01*
X458129Y452833D01*
X458201Y452903D01*
X458280Y452966D01*
X458326Y453024D01*
X458379Y453076D01*
X458434Y453160D01*
X458496Y453239D01*
X458542Y453329D01*
X458568Y453369D01*
X458580Y453403D01*
X458607Y453457D01*
X460210Y457325D01*
X463425Y460540D01*
X467626Y462281D01*
X472174Y462281D01*
X476375Y460540D01*
X479590Y457325D01*
X481193Y453457D01*
X481242Y453369D01*
X481282Y453277D01*
X481326Y453217D01*
X481362Y453152D01*
X481429Y453078D01*
X481489Y452997D01*
X481546Y452949D01*
X481596Y452894D01*
X481679Y452837D01*
X481755Y452772D01*
X481822Y452738D01*
X481883Y452696D01*
X481976Y452659D01*
X482066Y452613D01*
X482138Y452595D01*
X482207Y452568D01*
X482306Y452554D01*
X482404Y452529D01*
X482478Y452528D01*
X482552Y452517D01*
X482652Y452526D01*
X482752Y452524D01*
X482825Y452540D01*
X482899Y452546D01*
X482995Y452577D01*
X483093Y452599D01*
X483160Y452630D01*
X483231Y452653D01*
X483317Y452705D01*
X483408Y452748D01*
X483466Y452795D01*
X483529Y452833D01*
X483601Y452903D01*
X483680Y452966D01*
X483726Y453024D01*
X483779Y453076D01*
X483834Y453160D01*
X483896Y453239D01*
X483942Y453329D01*
X483968Y453369D01*
X483980Y453403D01*
X484007Y453457D01*
X485610Y457325D01*
X488825Y460540D01*
X493026Y462281D01*
X497574Y462281D01*
X501775Y460540D01*
X504990Y457325D01*
X506593Y453457D01*
X506642Y453369D01*
X506682Y453277D01*
X506726Y453217D01*
X506762Y453152D01*
X506829Y453078D01*
X506889Y452997D01*
X506946Y452949D01*
X506996Y452894D01*
X507079Y452837D01*
X507155Y452772D01*
X507222Y452738D01*
X507283Y452696D01*
X507376Y452659D01*
X507466Y452613D01*
X507538Y452595D01*
X507607Y452568D01*
X507706Y452554D01*
X507804Y452529D01*
X507878Y452528D01*
X507952Y452517D01*
X508052Y452526D01*
X508152Y452524D01*
X508225Y452540D01*
X508299Y452546D01*
X508395Y452577D01*
X508493Y452599D01*
X508560Y452630D01*
X508631Y452653D01*
X508717Y452705D01*
X508808Y452748D01*
X508866Y452795D01*
X508929Y452833D01*
X509001Y452903D01*
X509080Y452966D01*
X509126Y453024D01*
X509179Y453076D01*
X509234Y453160D01*
X509296Y453239D01*
X509342Y453329D01*
X509368Y453369D01*
X509380Y453403D01*
X509407Y453457D01*
X511010Y457325D01*
X514225Y460540D01*
X518426Y462281D01*
X522974Y462281D01*
X527175Y460540D01*
X530390Y457325D01*
X531993Y453457D01*
X532042Y453369D01*
X532082Y453277D01*
X532126Y453217D01*
X532162Y453152D01*
X532229Y453078D01*
X532289Y452997D01*
X532346Y452949D01*
X532396Y452894D01*
X532479Y452837D01*
X532555Y452772D01*
X532622Y452738D01*
X532683Y452696D01*
X532776Y452659D01*
X532866Y452613D01*
X532938Y452595D01*
X533007Y452568D01*
X533106Y452554D01*
X533204Y452529D01*
X533278Y452528D01*
X533352Y452517D01*
X533452Y452526D01*
X533552Y452524D01*
X533625Y452540D01*
X533699Y452546D01*
X533795Y452577D01*
X533893Y452599D01*
X533960Y452630D01*
X534031Y452653D01*
X534117Y452705D01*
X534208Y452748D01*
X534266Y452795D01*
X534329Y452833D01*
X534401Y452903D01*
X534480Y452966D01*
X534526Y453024D01*
X534579Y453076D01*
X534634Y453160D01*
X534696Y453239D01*
X534742Y453329D01*
X534768Y453369D01*
X534780Y453403D01*
X534807Y453457D01*
X536410Y457325D01*
X539625Y460540D01*
X543826Y462281D01*
X548374Y462281D01*
X552575Y460540D01*
X555790Y457325D01*
X557393Y453457D01*
X557442Y453369D01*
X557482Y453277D01*
X557526Y453217D01*
X557562Y453152D01*
X557629Y453078D01*
X557689Y452997D01*
X557746Y452949D01*
X557796Y452894D01*
X557879Y452837D01*
X557955Y452772D01*
X558022Y452738D01*
X558083Y452696D01*
X558176Y452659D01*
X558266Y452613D01*
X558338Y452595D01*
X558407Y452568D01*
X558506Y452554D01*
X558604Y452529D01*
X558678Y452528D01*
X558752Y452517D01*
X558852Y452526D01*
X558952Y452524D01*
X559025Y452540D01*
X559099Y452546D01*
X559195Y452577D01*
X559293Y452599D01*
X559360Y452630D01*
X559431Y452653D01*
X559517Y452705D01*
X559608Y452748D01*
X559666Y452795D01*
X559729Y452833D01*
X559801Y452903D01*
X559880Y452966D01*
X559926Y453024D01*
X559979Y453076D01*
X560034Y453160D01*
X560096Y453239D01*
X560142Y453329D01*
X560168Y453369D01*
X560180Y453403D01*
X560207Y453457D01*
X561810Y457325D01*
X565025Y460540D01*
X569226Y462281D01*
X573774Y462281D01*
X577975Y460540D01*
X581190Y457325D01*
X582793Y453457D01*
X582842Y453369D01*
X582882Y453277D01*
X582926Y453217D01*
X582962Y453152D01*
X583029Y453078D01*
X583089Y452997D01*
X583146Y452949D01*
X583196Y452894D01*
X583279Y452837D01*
X583355Y452772D01*
X583422Y452738D01*
X583483Y452696D01*
X583576Y452659D01*
X583666Y452613D01*
X583738Y452595D01*
X583807Y452568D01*
X583906Y452554D01*
X584004Y452529D01*
X584078Y452528D01*
X584152Y452517D01*
X584252Y452526D01*
X584352Y452524D01*
X584425Y452540D01*
X584499Y452546D01*
X584595Y452577D01*
X584693Y452599D01*
X584760Y452630D01*
X584831Y452653D01*
X584917Y452705D01*
X585008Y452748D01*
X585066Y452795D01*
X585129Y452833D01*
X585201Y452903D01*
X585280Y452966D01*
X585326Y453024D01*
X585379Y453076D01*
X585434Y453160D01*
X585496Y453239D01*
X585542Y453329D01*
X585568Y453369D01*
X585580Y453403D01*
X585607Y453457D01*
X587210Y457325D01*
X590425Y460540D01*
X594626Y462281D01*
X599174Y462281D01*
X603375Y460540D01*
X606590Y457325D01*
X608193Y453457D01*
X608242Y453369D01*
X608282Y453277D01*
X608326Y453217D01*
X608362Y453152D01*
X608429Y453078D01*
X608489Y452997D01*
X608546Y452949D01*
X608596Y452894D01*
X608679Y452837D01*
X608755Y452772D01*
X608822Y452738D01*
X608883Y452696D01*
X608976Y452659D01*
X609066Y452613D01*
X609138Y452595D01*
X609207Y452568D01*
X609306Y452554D01*
X609404Y452529D01*
X609478Y452528D01*
X609552Y452517D01*
X609652Y452526D01*
X609752Y452524D01*
X609825Y452540D01*
X609899Y452546D01*
X609995Y452577D01*
X610093Y452599D01*
X610160Y452630D01*
X610231Y452653D01*
X610317Y452705D01*
X610408Y452748D01*
X610466Y452795D01*
X610529Y452833D01*
X610601Y452903D01*
X610680Y452966D01*
X610726Y453024D01*
X610779Y453076D01*
X610834Y453160D01*
X610896Y453239D01*
X610942Y453329D01*
X610968Y453369D01*
X610980Y453403D01*
X611007Y453457D01*
X612610Y457325D01*
X615825Y460540D01*
X620026Y462281D01*
X624574Y462281D01*
X628775Y460540D01*
X631990Y457325D01*
X633593Y453457D01*
X633642Y453369D01*
X633682Y453277D01*
X633726Y453217D01*
X633762Y453152D01*
X633829Y453078D01*
X633889Y452997D01*
X633946Y452949D01*
X633996Y452894D01*
X634079Y452837D01*
X634155Y452772D01*
X634222Y452738D01*
X634283Y452696D01*
X634376Y452659D01*
X634466Y452613D01*
X634538Y452595D01*
X634607Y452568D01*
X634706Y452554D01*
X634804Y452529D01*
X634878Y452528D01*
X634952Y452517D01*
X635052Y452526D01*
X635152Y452524D01*
X635225Y452540D01*
X635299Y452546D01*
X635395Y452577D01*
X635493Y452599D01*
X635560Y452630D01*
X635631Y452653D01*
X635717Y452705D01*
X635808Y452748D01*
X635866Y452795D01*
X635929Y452833D01*
X636001Y452903D01*
X636080Y452966D01*
X636126Y453024D01*
X636179Y453076D01*
X636234Y453160D01*
X636296Y453239D01*
X636342Y453329D01*
X636368Y453369D01*
X636380Y453403D01*
X636407Y453457D01*
X638010Y457325D01*
X641225Y460540D01*
X645426Y462281D01*
X649974Y462281D01*
X654175Y460540D01*
X657390Y457325D01*
X659131Y453124D01*
X659131Y448576D01*
X657390Y444375D01*
X654175Y441160D01*
X652197Y440340D01*
X652130Y440303D01*
X652059Y440275D01*
X651978Y440219D01*
X651892Y440171D01*
X651836Y440120D01*
X651773Y440076D01*
X651707Y440003D01*
X651634Y439937D01*
X651591Y439874D01*
X651540Y439817D01*
X651492Y439731D01*
X651436Y439650D01*
X651408Y439579D01*
X651371Y439512D01*
X651344Y439417D01*
X651308Y439326D01*
X651297Y439250D01*
X651276Y439177D01*
X651264Y439028D01*
X651257Y438981D01*
X651259Y438962D01*
X651257Y438933D01*
X651257Y437367D01*
X651265Y437291D01*
X651264Y437215D01*
X651285Y437118D01*
X651297Y437021D01*
X651322Y436949D01*
X651339Y436874D01*
X651381Y436785D01*
X651414Y436693D01*
X651456Y436628D01*
X651488Y436560D01*
X651550Y436483D01*
X651603Y436400D01*
X651658Y436347D01*
X651706Y436287D01*
X651783Y436226D01*
X651854Y436158D01*
X651919Y436119D01*
X651979Y436071D01*
X652112Y436003D01*
X652153Y435979D01*
X652171Y435973D01*
X652197Y435960D01*
X654175Y435140D01*
X657390Y431925D01*
X659131Y427724D01*
X659131Y423176D01*
X657390Y418975D01*
X654175Y415760D01*
X652197Y414940D01*
X652130Y414903D01*
X652059Y414875D01*
X651978Y414819D01*
X651892Y414771D01*
X651836Y414720D01*
X651773Y414676D01*
X651707Y414603D01*
X651634Y414537D01*
X651591Y414474D01*
X651540Y414417D01*
X651492Y414331D01*
X651436Y414250D01*
X651408Y414179D01*
X651371Y414112D01*
X651344Y414017D01*
X651308Y413926D01*
X651297Y413850D01*
X651276Y413777D01*
X651264Y413628D01*
X651257Y413581D01*
X651259Y413562D01*
X651257Y413533D01*
X651257Y319604D01*
X651271Y319479D01*
X651278Y319352D01*
X651291Y319306D01*
X651297Y319258D01*
X651339Y319139D01*
X651374Y319018D01*
X651398Y318975D01*
X651414Y318930D01*
X651483Y318824D01*
X651544Y318713D01*
X651584Y318667D01*
X651603Y318637D01*
X651638Y318604D01*
X651703Y318527D01*
X744360Y225870D01*
X744420Y225822D01*
X744473Y225767D01*
X744556Y225714D01*
X744633Y225653D01*
X744702Y225620D01*
X744767Y225579D01*
X744860Y225546D01*
X744948Y225504D01*
X745023Y225488D01*
X745095Y225462D01*
X745193Y225451D01*
X745289Y225431D01*
X745365Y225432D01*
X745442Y225423D01*
X745539Y225435D01*
X745638Y225437D01*
X745712Y225455D01*
X745788Y225464D01*
X745930Y225510D01*
X745976Y225522D01*
X745993Y225531D01*
X746020Y225539D01*
X747279Y226061D01*
X751321Y226061D01*
X755056Y224514D01*
X757914Y221656D01*
X759461Y217921D01*
X759461Y213879D01*
X757914Y210144D01*
X755056Y207286D01*
X751321Y205739D01*
X747279Y205739D01*
X746020Y206261D01*
X745947Y206282D01*
X745877Y206312D01*
X745780Y206329D01*
X745685Y206356D01*
X745609Y206360D01*
X745534Y206373D01*
X745435Y206368D01*
X745337Y206373D01*
X745262Y206359D01*
X745186Y206356D01*
X745091Y206328D01*
X744994Y206311D01*
X744924Y206280D01*
X744851Y206259D01*
X744765Y206211D01*
X744675Y206172D01*
X744613Y206126D01*
X744547Y206089D01*
X744433Y205992D01*
X744395Y205964D01*
X744383Y205949D01*
X744360Y205930D01*
X715203Y176773D01*
X712673Y174243D01*
X451633Y174243D01*
X451508Y174229D01*
X451381Y174222D01*
X451335Y174209D01*
X451287Y174203D01*
X451168Y174161D01*
X451046Y174126D01*
X451004Y174102D01*
X450959Y174086D01*
X450853Y174017D01*
X450742Y173956D01*
X450696Y173916D01*
X450666Y173897D01*
X450632Y173862D01*
X450556Y173797D01*
X448529Y171770D01*
X445915Y170687D01*
X443085Y170687D01*
X440471Y171770D01*
X438470Y173771D01*
X437387Y176385D01*
X437387Y179215D01*
X438470Y181829D01*
X439714Y183073D01*
X439730Y183093D01*
X439750Y183110D01*
X439838Y183230D01*
X439931Y183346D01*
X439942Y183370D01*
X439957Y183391D01*
X440016Y183527D01*
X440080Y183661D01*
X440085Y183687D01*
X440095Y183711D01*
X440122Y183857D01*
X440153Y184002D01*
X440152Y184028D01*
X440157Y184054D01*
X440149Y184202D01*
X440147Y184350D01*
X440141Y184376D01*
X440139Y184402D01*
X440098Y184544D01*
X440062Y184688D01*
X440050Y184711D01*
X440043Y184737D01*
X439970Y184866D01*
X439902Y184998D01*
X439885Y185018D01*
X439872Y185041D01*
X439714Y185227D01*
X438470Y186471D01*
X437387Y189085D01*
X437387Y191915D01*
X438470Y194529D01*
X440471Y196530D01*
X443085Y197613D01*
X445915Y197613D01*
X448529Y196530D01*
X450556Y194503D01*
X450655Y194424D01*
X450749Y194340D01*
X450791Y194316D01*
X450829Y194286D01*
X450943Y194232D01*
X451054Y194171D01*
X451100Y194158D01*
X451144Y194137D01*
X451268Y194111D01*
X451389Y194076D01*
X451450Y194071D01*
X451485Y194064D01*
X451533Y194065D01*
X451633Y194057D01*
X696396Y194057D01*
X696521Y194071D01*
X696648Y194078D01*
X696694Y194091D01*
X696742Y194097D01*
X696861Y194139D01*
X696982Y194174D01*
X697025Y194198D01*
X697070Y194214D01*
X697176Y194283D01*
X697287Y194344D01*
X697333Y194384D01*
X697363Y194403D01*
X697396Y194438D01*
X697473Y194503D01*
X713930Y210960D01*
X713978Y211020D01*
X714033Y211073D01*
X714086Y211156D01*
X714147Y211233D01*
X714180Y211302D01*
X714221Y211367D01*
X714254Y211460D01*
X714296Y211548D01*
X714312Y211623D01*
X714338Y211695D01*
X714349Y211793D01*
X714369Y211889D01*
X714368Y211965D01*
X714377Y212042D01*
X714365Y212139D01*
X714363Y212238D01*
X714345Y212312D01*
X714336Y212388D01*
X714290Y212530D01*
X714278Y212576D01*
X714269Y212593D01*
X714261Y212620D01*
X713739Y213879D01*
X713739Y217921D01*
X714261Y219180D01*
X714282Y219253D01*
X714312Y219323D01*
X714329Y219420D01*
X714356Y219515D01*
X714360Y219591D01*
X714373Y219666D01*
X714368Y219765D01*
X714373Y219863D01*
X714359Y219938D01*
X714356Y220014D01*
X714328Y220109D01*
X714311Y220206D01*
X714280Y220276D01*
X714259Y220349D01*
X714211Y220435D01*
X714172Y220525D01*
X714126Y220587D01*
X714089Y220653D01*
X713992Y220767D01*
X713964Y220805D01*
X713949Y220817D01*
X713930Y220840D01*
X618743Y316027D01*
X618743Y413533D01*
X618735Y413609D01*
X618736Y413685D01*
X618715Y413782D01*
X618703Y413879D01*
X618678Y413951D01*
X618661Y414026D01*
X618619Y414115D01*
X618586Y414207D01*
X618544Y414272D01*
X618512Y414340D01*
X618450Y414417D01*
X618397Y414500D01*
X618342Y414553D01*
X618294Y414613D01*
X618217Y414674D01*
X618146Y414742D01*
X618081Y414781D01*
X618021Y414829D01*
X617888Y414897D01*
X617847Y414921D01*
X617829Y414927D01*
X617803Y414940D01*
X615825Y415760D01*
X612610Y418975D01*
X611007Y422843D01*
X610959Y422931D01*
X610919Y423023D01*
X610874Y423083D01*
X610838Y423148D01*
X610770Y423222D01*
X610711Y423303D01*
X610654Y423351D01*
X610604Y423406D01*
X610521Y423463D01*
X610445Y423528D01*
X610378Y423562D01*
X610317Y423604D01*
X610224Y423641D01*
X610134Y423687D01*
X610062Y423705D01*
X609993Y423732D01*
X609894Y423746D01*
X609796Y423771D01*
X609722Y423772D01*
X609648Y423783D01*
X609548Y423774D01*
X609448Y423776D01*
X609375Y423760D01*
X609301Y423754D01*
X609205Y423723D01*
X609107Y423701D01*
X609040Y423670D01*
X608969Y423647D01*
X608883Y423595D01*
X608792Y423552D01*
X608734Y423505D01*
X608671Y423467D01*
X608598Y423397D01*
X608520Y423334D01*
X608474Y423276D01*
X608421Y423224D01*
X608366Y423140D01*
X608304Y423061D01*
X608258Y422971D01*
X608232Y422931D01*
X608220Y422897D01*
X608193Y422843D01*
X606590Y418975D01*
X603375Y415760D01*
X601397Y414940D01*
X601330Y414903D01*
X601259Y414875D01*
X601178Y414819D01*
X601092Y414771D01*
X601036Y414720D01*
X600973Y414676D01*
X600907Y414603D01*
X600834Y414537D01*
X600791Y414474D01*
X600740Y414417D01*
X600692Y414331D01*
X600636Y414250D01*
X600608Y414179D01*
X600571Y414112D01*
X600544Y414017D01*
X600508Y413926D01*
X600497Y413850D01*
X600476Y413777D01*
X600464Y413628D01*
X600457Y413581D01*
X600459Y413562D01*
X600457Y413533D01*
X600457Y319604D01*
X600471Y319479D01*
X600478Y319352D01*
X600491Y319306D01*
X600497Y319258D01*
X600539Y319139D01*
X600574Y319018D01*
X600598Y318975D01*
X600614Y318930D01*
X600683Y318824D01*
X600744Y318713D01*
X600784Y318667D01*
X600803Y318637D01*
X600838Y318603D01*
X600903Y318527D01*
X693560Y225870D01*
X693620Y225822D01*
X693673Y225767D01*
X693756Y225714D01*
X693833Y225653D01*
X693902Y225620D01*
X693967Y225579D01*
X694060Y225546D01*
X694148Y225504D01*
X694223Y225488D01*
X694295Y225462D01*
X694393Y225451D01*
X694489Y225431D01*
X694565Y225432D01*
X694641Y225423D01*
X694739Y225435D01*
X694838Y225437D01*
X694912Y225455D01*
X694988Y225464D01*
X695130Y225510D01*
X695176Y225522D01*
X695193Y225530D01*
X695220Y225539D01*
X696479Y226061D01*
X700521Y226061D01*
X704256Y224514D01*
X707114Y221656D01*
X708661Y217921D01*
X708661Y213879D01*
X707114Y210144D01*
X704256Y207286D01*
X700521Y205739D01*
X696479Y205739D01*
X692744Y207286D01*
X689886Y210144D01*
X688339Y213879D01*
X688339Y217921D01*
X688861Y219180D01*
X688882Y219253D01*
X688912Y219323D01*
X688929Y219420D01*
X688956Y219515D01*
X688960Y219591D01*
X688973Y219666D01*
X688968Y219765D01*
X688973Y219863D01*
X688959Y219938D01*
X688956Y220014D01*
X688928Y220109D01*
X688911Y220206D01*
X688880Y220276D01*
X688859Y220349D01*
X688811Y220435D01*
X688772Y220525D01*
X688726Y220587D01*
X688689Y220653D01*
X688592Y220767D01*
X688564Y220805D01*
X688549Y220817D01*
X688530Y220840D01*
X595873Y313497D01*
X593343Y316027D01*
X593343Y413533D01*
X593335Y413609D01*
X593336Y413685D01*
X593315Y413782D01*
X593303Y413879D01*
X593278Y413951D01*
X593261Y414026D01*
X593219Y414115D01*
X593186Y414207D01*
X593144Y414272D01*
X593112Y414340D01*
X593050Y414417D01*
X592997Y414500D01*
X592942Y414553D01*
X592894Y414613D01*
X592817Y414674D01*
X592746Y414742D01*
X592681Y414781D01*
X592621Y414829D01*
X592488Y414897D01*
X592447Y414921D01*
X592429Y414927D01*
X592403Y414940D01*
X590425Y415760D01*
X587210Y418975D01*
X585607Y422843D01*
X585559Y422931D01*
X585519Y423023D01*
X585474Y423083D01*
X585438Y423148D01*
X585370Y423222D01*
X585311Y423303D01*
X585254Y423351D01*
X585204Y423406D01*
X585121Y423463D01*
X585045Y423528D01*
X584978Y423562D01*
X584917Y423604D01*
X584824Y423641D01*
X584734Y423687D01*
X584662Y423705D01*
X584593Y423732D01*
X584494Y423746D01*
X584396Y423771D01*
X584322Y423772D01*
X584248Y423783D01*
X584148Y423774D01*
X584048Y423776D01*
X583975Y423760D01*
X583901Y423754D01*
X583805Y423723D01*
X583707Y423701D01*
X583640Y423670D01*
X583569Y423647D01*
X583483Y423595D01*
X583392Y423552D01*
X583334Y423505D01*
X583271Y423467D01*
X583198Y423397D01*
X583120Y423334D01*
X583074Y423276D01*
X583021Y423224D01*
X582966Y423140D01*
X582904Y423061D01*
X582858Y422971D01*
X582832Y422931D01*
X582820Y422897D01*
X582793Y422843D01*
X581190Y418975D01*
X577975Y415760D01*
X575997Y414940D01*
X575930Y414903D01*
X575859Y414875D01*
X575778Y414819D01*
X575692Y414771D01*
X575636Y414720D01*
X575573Y414676D01*
X575507Y414603D01*
X575434Y414537D01*
X575391Y414474D01*
X575340Y414417D01*
X575292Y414331D01*
X575236Y414250D01*
X575208Y414179D01*
X575171Y414112D01*
X575144Y414017D01*
X575108Y413926D01*
X575097Y413850D01*
X575076Y413777D01*
X575064Y413628D01*
X575057Y413581D01*
X575059Y413562D01*
X575057Y413533D01*
X575057Y319604D01*
X575071Y319479D01*
X575078Y319352D01*
X575091Y319306D01*
X575097Y319258D01*
X575139Y319139D01*
X575174Y319018D01*
X575198Y318975D01*
X575214Y318930D01*
X575283Y318824D01*
X575344Y318713D01*
X575384Y318667D01*
X575403Y318637D01*
X575438Y318603D01*
X575503Y318527D01*
X668160Y225870D01*
X668220Y225822D01*
X668273Y225767D01*
X668356Y225714D01*
X668433Y225653D01*
X668502Y225620D01*
X668567Y225579D01*
X668659Y225546D01*
X668748Y225504D01*
X668823Y225488D01*
X668895Y225462D01*
X668993Y225451D01*
X669089Y225431D01*
X669165Y225432D01*
X669242Y225423D01*
X669339Y225435D01*
X669438Y225437D01*
X669512Y225455D01*
X669588Y225464D01*
X669730Y225510D01*
X669776Y225522D01*
X669793Y225530D01*
X669820Y225539D01*
X671079Y226061D01*
X675121Y226061D01*
X678856Y224514D01*
X681714Y221656D01*
X683261Y217921D01*
X683261Y213879D01*
X681714Y210144D01*
X678856Y207286D01*
X675121Y205739D01*
X671079Y205739D01*
X667344Y207286D01*
X664486Y210144D01*
X662939Y213879D01*
X662939Y217921D01*
X663461Y219180D01*
X663482Y219253D01*
X663512Y219323D01*
X663529Y219420D01*
X663556Y219515D01*
X663560Y219591D01*
X663574Y219666D01*
X663568Y219765D01*
X663573Y219863D01*
X663560Y219938D01*
X663556Y220014D01*
X663528Y220109D01*
X663511Y220206D01*
X663480Y220276D01*
X663459Y220349D01*
X663411Y220435D01*
X663372Y220525D01*
X663326Y220587D01*
X663289Y220653D01*
X663192Y220767D01*
X663164Y220805D01*
X663149Y220817D01*
X663130Y220840D01*
X567943Y316027D01*
X567943Y413533D01*
X567935Y413609D01*
X567936Y413685D01*
X567915Y413782D01*
X567903Y413879D01*
X567878Y413951D01*
X567861Y414026D01*
X567819Y414115D01*
X567786Y414207D01*
X567744Y414272D01*
X567712Y414340D01*
X567650Y414417D01*
X567597Y414500D01*
X567542Y414553D01*
X567494Y414613D01*
X567417Y414674D01*
X567346Y414742D01*
X567281Y414781D01*
X567221Y414829D01*
X567088Y414897D01*
X567047Y414921D01*
X567029Y414927D01*
X567003Y414940D01*
X565025Y415760D01*
X561810Y418975D01*
X560207Y422843D01*
X560159Y422931D01*
X560119Y423023D01*
X560074Y423083D01*
X560038Y423148D01*
X559970Y423222D01*
X559911Y423303D01*
X559854Y423351D01*
X559804Y423406D01*
X559721Y423463D01*
X559645Y423528D01*
X559578Y423562D01*
X559517Y423604D01*
X559424Y423641D01*
X559334Y423687D01*
X559262Y423705D01*
X559193Y423732D01*
X559094Y423746D01*
X558996Y423771D01*
X558922Y423772D01*
X558848Y423783D01*
X558748Y423774D01*
X558648Y423776D01*
X558575Y423760D01*
X558501Y423754D01*
X558405Y423723D01*
X558307Y423701D01*
X558240Y423670D01*
X558169Y423647D01*
X558083Y423595D01*
X557992Y423552D01*
X557934Y423505D01*
X557871Y423467D01*
X557798Y423397D01*
X557720Y423334D01*
X557674Y423276D01*
X557621Y423224D01*
X557566Y423140D01*
X557504Y423061D01*
X557458Y422971D01*
X557432Y422931D01*
X557420Y422897D01*
X557393Y422843D01*
X555790Y418975D01*
X552575Y415760D01*
X550597Y414940D01*
X550530Y414903D01*
X550459Y414875D01*
X550378Y414819D01*
X550292Y414771D01*
X550236Y414720D01*
X550173Y414676D01*
X550107Y414603D01*
X550034Y414537D01*
X549991Y414474D01*
X549940Y414417D01*
X549892Y414331D01*
X549836Y414250D01*
X549808Y414179D01*
X549771Y414112D01*
X549744Y414017D01*
X549708Y413926D01*
X549697Y413850D01*
X549676Y413777D01*
X549664Y413628D01*
X549657Y413581D01*
X549659Y413562D01*
X549657Y413533D01*
X549657Y319604D01*
X549671Y319479D01*
X549678Y319352D01*
X549691Y319306D01*
X549697Y319258D01*
X549739Y319139D01*
X549774Y319018D01*
X549798Y318975D01*
X549814Y318930D01*
X549883Y318824D01*
X549944Y318713D01*
X549984Y318667D01*
X550003Y318637D01*
X550038Y318603D01*
X550103Y318527D01*
X642760Y225870D01*
X642820Y225822D01*
X642873Y225767D01*
X642956Y225714D01*
X643033Y225653D01*
X643102Y225620D01*
X643167Y225579D01*
X643259Y225546D01*
X643348Y225504D01*
X643423Y225488D01*
X643495Y225462D01*
X643593Y225451D01*
X643689Y225431D01*
X643765Y225432D01*
X643842Y225423D01*
X643939Y225435D01*
X644038Y225437D01*
X644112Y225455D01*
X644188Y225464D01*
X644330Y225510D01*
X644376Y225522D01*
X644393Y225530D01*
X644420Y225539D01*
X645679Y226061D01*
X649721Y226061D01*
X653456Y224514D01*
X656314Y221656D01*
X657861Y217921D01*
X657861Y213879D01*
X656314Y210144D01*
X653456Y207286D01*
X649721Y205739D01*
X645679Y205739D01*
X641944Y207286D01*
X639086Y210144D01*
X637539Y213879D01*
X637539Y217921D01*
X638061Y219180D01*
X638082Y219253D01*
X638112Y219323D01*
X638129Y219420D01*
X638156Y219515D01*
X638160Y219591D01*
X638174Y219666D01*
X638168Y219765D01*
X638173Y219863D01*
X638160Y219938D01*
X638156Y220014D01*
X638128Y220109D01*
X638111Y220206D01*
X638080Y220276D01*
X638059Y220349D01*
X638011Y220435D01*
X637972Y220525D01*
X637926Y220587D01*
X637889Y220653D01*
X637792Y220767D01*
X637764Y220805D01*
X637749Y220817D01*
X637730Y220840D01*
X542543Y316027D01*
X542543Y413533D01*
X542535Y413609D01*
X542536Y413685D01*
X542515Y413782D01*
X542503Y413879D01*
X542478Y413951D01*
X542461Y414026D01*
X542419Y414115D01*
X542386Y414207D01*
X542344Y414272D01*
X542312Y414340D01*
X542250Y414417D01*
X542197Y414500D01*
X542142Y414553D01*
X542094Y414613D01*
X542017Y414674D01*
X541946Y414742D01*
X541881Y414781D01*
X541821Y414829D01*
X541688Y414897D01*
X541647Y414921D01*
X541629Y414927D01*
X541603Y414940D01*
X539625Y415760D01*
X536410Y418975D01*
X534807Y422843D01*
X534759Y422931D01*
X534719Y423023D01*
X534674Y423083D01*
X534638Y423148D01*
X534570Y423222D01*
X534511Y423303D01*
X534454Y423351D01*
X534404Y423406D01*
X534321Y423463D01*
X534245Y423528D01*
X534178Y423562D01*
X534117Y423604D01*
X534024Y423641D01*
X533934Y423687D01*
X533862Y423705D01*
X533793Y423732D01*
X533694Y423746D01*
X533596Y423771D01*
X533522Y423772D01*
X533448Y423783D01*
X533348Y423774D01*
X533248Y423776D01*
X533175Y423760D01*
X533101Y423754D01*
X533005Y423723D01*
X532907Y423701D01*
X532840Y423670D01*
X532769Y423647D01*
X532683Y423595D01*
X532592Y423552D01*
X532534Y423505D01*
X532471Y423467D01*
X532398Y423397D01*
X532320Y423334D01*
X532274Y423276D01*
X532221Y423224D01*
X532166Y423140D01*
X532104Y423061D01*
X532058Y422971D01*
X532032Y422931D01*
X532020Y422897D01*
X531993Y422843D01*
X530390Y418975D01*
X527175Y415760D01*
X525197Y414940D01*
X525130Y414903D01*
X525059Y414875D01*
X524978Y414819D01*
X524892Y414771D01*
X524836Y414720D01*
X524773Y414676D01*
X524707Y414603D01*
X524634Y414537D01*
X524591Y414474D01*
X524540Y414417D01*
X524492Y414331D01*
X524436Y414250D01*
X524408Y414179D01*
X524371Y414112D01*
X524344Y414017D01*
X524308Y413926D01*
X524297Y413850D01*
X524276Y413777D01*
X524264Y413628D01*
X524257Y413581D01*
X524259Y413562D01*
X524257Y413533D01*
X524257Y226442D01*
X524259Y226423D01*
X524258Y226406D01*
X524265Y226355D01*
X524264Y226290D01*
X524285Y226194D01*
X524297Y226096D01*
X524322Y226024D01*
X524339Y225950D01*
X524381Y225861D01*
X524414Y225768D01*
X524456Y225704D01*
X524488Y225635D01*
X524550Y225558D01*
X524603Y225475D01*
X524658Y225422D01*
X524706Y225362D01*
X524783Y225302D01*
X524854Y225233D01*
X524919Y225194D01*
X524979Y225147D01*
X525112Y225078D01*
X525153Y225054D01*
X525171Y225048D01*
X525197Y225035D01*
X526456Y224514D01*
X529314Y221656D01*
X530861Y217921D01*
X530861Y213879D01*
X529314Y210144D01*
X526456Y207286D01*
X522721Y205739D01*
X518679Y205739D01*
X514944Y207286D01*
X512086Y210144D01*
X510539Y213879D01*
X510539Y217921D01*
X512086Y221656D01*
X514944Y224514D01*
X516203Y225035D01*
X516270Y225072D01*
X516341Y225101D01*
X516422Y225157D01*
X516508Y225204D01*
X516564Y225256D01*
X516627Y225299D01*
X516693Y225372D01*
X516766Y225439D01*
X516809Y225502D01*
X516860Y225558D01*
X516908Y225644D01*
X516964Y225725D01*
X516992Y225796D01*
X517029Y225863D01*
X517056Y225958D01*
X517092Y226050D01*
X517103Y226125D01*
X517108Y226143D01*
X517114Y226163D01*
X517115Y226167D01*
X517124Y226199D01*
X517136Y226348D01*
X517143Y226394D01*
X517141Y226413D01*
X517143Y226442D01*
X517143Y413533D01*
X517135Y413609D01*
X517136Y413685D01*
X517115Y413782D01*
X517103Y413879D01*
X517078Y413951D01*
X517061Y414026D01*
X517019Y414115D01*
X516986Y414207D01*
X516944Y414272D01*
X516912Y414340D01*
X516850Y414417D01*
X516797Y414500D01*
X516742Y414553D01*
X516694Y414613D01*
X516617Y414674D01*
X516546Y414742D01*
X516481Y414781D01*
X516421Y414829D01*
X516288Y414897D01*
X516247Y414921D01*
X516229Y414927D01*
X516203Y414940D01*
X514225Y415760D01*
X511010Y418975D01*
X509407Y422843D01*
X509359Y422931D01*
X509319Y423023D01*
X509274Y423083D01*
X509238Y423148D01*
X509170Y423222D01*
X509111Y423303D01*
X509054Y423351D01*
X509004Y423406D01*
X508921Y423463D01*
X508845Y423528D01*
X508778Y423562D01*
X508717Y423604D01*
X508624Y423641D01*
X508534Y423687D01*
X508462Y423705D01*
X508393Y423732D01*
X508294Y423746D01*
X508196Y423771D01*
X508122Y423772D01*
X508048Y423783D01*
X507948Y423774D01*
X507848Y423776D01*
X507775Y423760D01*
X507701Y423754D01*
X507605Y423723D01*
X507507Y423701D01*
X507440Y423670D01*
X507369Y423647D01*
X507283Y423595D01*
X507192Y423552D01*
X507134Y423505D01*
X507071Y423467D01*
X506998Y423397D01*
X506920Y423334D01*
X506874Y423276D01*
X506821Y423224D01*
X506766Y423140D01*
X506704Y423061D01*
X506658Y422971D01*
X506632Y422931D01*
X506620Y422897D01*
X506593Y422843D01*
X504990Y418975D01*
X501775Y415760D01*
X499797Y414940D01*
X499730Y414903D01*
X499659Y414875D01*
X499578Y414819D01*
X499492Y414771D01*
X499436Y414720D01*
X499373Y414676D01*
X499307Y414603D01*
X499234Y414537D01*
X499191Y414474D01*
X499140Y414417D01*
X499092Y414331D01*
X499036Y414250D01*
X499008Y414179D01*
X498971Y414112D01*
X498944Y414017D01*
X498908Y413926D01*
X498897Y413850D01*
X498876Y413777D01*
X498864Y413628D01*
X498857Y413581D01*
X498859Y413562D01*
X498857Y413533D01*
X498857Y226442D01*
X498859Y226423D01*
X498858Y226406D01*
X498865Y226355D01*
X498864Y226290D01*
X498885Y226194D01*
X498897Y226096D01*
X498922Y226024D01*
X498939Y225950D01*
X498981Y225861D01*
X499014Y225768D01*
X499056Y225704D01*
X499088Y225635D01*
X499150Y225558D01*
X499203Y225475D01*
X499258Y225422D01*
X499306Y225362D01*
X499383Y225302D01*
X499454Y225233D01*
X499519Y225194D01*
X499579Y225147D01*
X499712Y225078D01*
X499753Y225054D01*
X499771Y225048D01*
X499797Y225035D01*
X501056Y224514D01*
X503914Y221656D01*
X505461Y217921D01*
X505461Y213879D01*
X503914Y210144D01*
X501056Y207286D01*
X497321Y205739D01*
X493279Y205739D01*
X489544Y207286D01*
X486686Y210144D01*
X485139Y213879D01*
X485139Y217921D01*
X486686Y221656D01*
X489544Y224514D01*
X490803Y225035D01*
X490870Y225072D01*
X490941Y225101D01*
X491022Y225157D01*
X491108Y225204D01*
X491164Y225256D01*
X491227Y225299D01*
X491293Y225372D01*
X491366Y225439D01*
X491409Y225502D01*
X491460Y225558D01*
X491508Y225644D01*
X491564Y225725D01*
X491592Y225796D01*
X491629Y225863D01*
X491656Y225958D01*
X491692Y226050D01*
X491703Y226125D01*
X491708Y226143D01*
X491714Y226163D01*
X491715Y226167D01*
X491724Y226199D01*
X491736Y226348D01*
X491743Y226394D01*
X491741Y226413D01*
X491743Y226442D01*
X491743Y413533D01*
X491735Y413609D01*
X491736Y413685D01*
X491715Y413782D01*
X491703Y413879D01*
X491678Y413951D01*
X491661Y414026D01*
X491619Y414115D01*
X491586Y414207D01*
X491544Y414272D01*
X491512Y414340D01*
X491450Y414417D01*
X491397Y414500D01*
X491342Y414553D01*
X491294Y414613D01*
X491217Y414674D01*
X491146Y414742D01*
X491081Y414781D01*
X491021Y414829D01*
X490888Y414897D01*
X490847Y414921D01*
X490829Y414927D01*
X490803Y414940D01*
X488825Y415760D01*
X485610Y418975D01*
X484007Y422843D01*
X483959Y422931D01*
X483919Y423023D01*
X483874Y423083D01*
X483838Y423148D01*
X483770Y423222D01*
X483711Y423303D01*
X483654Y423351D01*
X483604Y423406D01*
X483521Y423463D01*
X483445Y423528D01*
X483378Y423562D01*
X483317Y423604D01*
X483224Y423641D01*
X483134Y423687D01*
X483062Y423705D01*
X482993Y423732D01*
X482894Y423746D01*
X482796Y423771D01*
X482722Y423772D01*
X482648Y423783D01*
X482548Y423774D01*
X482448Y423776D01*
X482375Y423760D01*
X482301Y423754D01*
X482205Y423723D01*
X482107Y423701D01*
X482040Y423670D01*
X481969Y423647D01*
X481883Y423595D01*
X481792Y423552D01*
X481734Y423505D01*
X481671Y423467D01*
X481598Y423397D01*
X481520Y423334D01*
X481474Y423276D01*
X481421Y423224D01*
X481366Y423140D01*
X481304Y423061D01*
X481258Y422971D01*
X481232Y422931D01*
X481220Y422897D01*
X481193Y422843D01*
X479590Y418975D01*
X476375Y415760D01*
X474397Y414940D01*
X474330Y414903D01*
X474259Y414875D01*
X474178Y414819D01*
X474092Y414771D01*
X474036Y414720D01*
X473973Y414676D01*
X473907Y414603D01*
X473834Y414537D01*
X473791Y414474D01*
X473740Y414417D01*
X473692Y414331D01*
X473636Y414250D01*
X473608Y414179D01*
X473571Y414112D01*
X473544Y414017D01*
X473508Y413926D01*
X473497Y413850D01*
X473476Y413777D01*
X473464Y413628D01*
X473457Y413581D01*
X473459Y413562D01*
X473457Y413533D01*
X473457Y226442D01*
X473459Y226423D01*
X473458Y226406D01*
X473465Y226355D01*
X473464Y226290D01*
X473485Y226194D01*
X473497Y226096D01*
X473522Y226024D01*
X473539Y225950D01*
X473581Y225861D01*
X473614Y225768D01*
X473656Y225704D01*
X473688Y225635D01*
X473750Y225558D01*
X473803Y225475D01*
X473858Y225422D01*
X473906Y225362D01*
X473983Y225302D01*
X474054Y225233D01*
X474119Y225194D01*
X474179Y225147D01*
X474312Y225078D01*
X474353Y225054D01*
X474371Y225048D01*
X474397Y225035D01*
X475656Y224514D01*
X478514Y221656D01*
X480061Y217921D01*
X480061Y213879D01*
X478514Y210144D01*
X475656Y207286D01*
X471921Y205739D01*
X467879Y205739D01*
X464144Y207286D01*
X461286Y210144D01*
X459739Y213879D01*
X459739Y217921D01*
X461286Y221656D01*
X464144Y224514D01*
X465403Y225035D01*
X465470Y225072D01*
X465541Y225101D01*
X465622Y225157D01*
X465708Y225204D01*
X465764Y225256D01*
X465827Y225299D01*
X465893Y225372D01*
X465966Y225439D01*
X466009Y225502D01*
X466060Y225558D01*
X466108Y225644D01*
X466164Y225725D01*
X466192Y225796D01*
X466229Y225863D01*
X466256Y225958D01*
X466292Y226050D01*
X466303Y226125D01*
X466308Y226143D01*
X466314Y226163D01*
X466315Y226167D01*
X466324Y226199D01*
X466336Y226348D01*
X466343Y226394D01*
X466341Y226413D01*
X466343Y226442D01*
X466343Y413533D01*
X466335Y413609D01*
X466336Y413685D01*
X466315Y413782D01*
X466303Y413879D01*
X466278Y413951D01*
X466261Y414026D01*
X466219Y414115D01*
X466186Y414207D01*
X466144Y414272D01*
X466112Y414340D01*
X466050Y414417D01*
X465997Y414500D01*
X465942Y414553D01*
X465894Y414613D01*
X465817Y414674D01*
X465746Y414742D01*
X465681Y414781D01*
X465621Y414829D01*
X465488Y414897D01*
X465447Y414921D01*
X465429Y414927D01*
X465403Y414940D01*
X463425Y415760D01*
X460210Y418975D01*
X458607Y422843D01*
X458559Y422931D01*
X458519Y423023D01*
X458474Y423083D01*
X458438Y423148D01*
X458370Y423222D01*
X458311Y423303D01*
X458254Y423351D01*
X458204Y423406D01*
X458121Y423463D01*
X458045Y423528D01*
X457978Y423562D01*
X457917Y423604D01*
X457824Y423641D01*
X457734Y423687D01*
X457662Y423705D01*
X457593Y423732D01*
X457494Y423746D01*
X457396Y423771D01*
X457322Y423772D01*
X457248Y423783D01*
X457148Y423774D01*
X457048Y423776D01*
X456975Y423760D01*
X456901Y423754D01*
X456805Y423723D01*
X456707Y423701D01*
X456640Y423670D01*
X456569Y423647D01*
X456483Y423595D01*
X456392Y423552D01*
X456334Y423505D01*
X456271Y423467D01*
X456198Y423397D01*
X456120Y423334D01*
X456074Y423276D01*
X456021Y423224D01*
X455966Y423140D01*
X455904Y423061D01*
X455858Y422971D01*
X455832Y422931D01*
X455820Y422897D01*
X455793Y422843D01*
X454190Y418975D01*
X450975Y415760D01*
X448997Y414940D01*
X448930Y414903D01*
X448859Y414875D01*
X448778Y414819D01*
X448692Y414771D01*
X448636Y414720D01*
X448573Y414676D01*
X448507Y414603D01*
X448434Y414537D01*
X448391Y414474D01*
X448340Y414417D01*
X448292Y414331D01*
X448236Y414250D01*
X448208Y414179D01*
X448171Y414112D01*
X448144Y414017D01*
X448108Y413926D01*
X448097Y413850D01*
X448076Y413777D01*
X448064Y413628D01*
X448057Y413581D01*
X448059Y413562D01*
X448057Y413533D01*
X448057Y226442D01*
X448059Y226423D01*
X448058Y226406D01*
X448065Y226355D01*
X448064Y226290D01*
X448085Y226194D01*
X448097Y226096D01*
X448122Y226024D01*
X448139Y225950D01*
X448181Y225861D01*
X448214Y225768D01*
X448256Y225704D01*
X448288Y225635D01*
X448350Y225558D01*
X448403Y225475D01*
X448458Y225422D01*
X448506Y225362D01*
X448583Y225302D01*
X448654Y225233D01*
X448719Y225194D01*
X448779Y225147D01*
X448912Y225078D01*
X448953Y225054D01*
X448971Y225048D01*
X448997Y225035D01*
X450256Y224514D01*
X453114Y221656D01*
X454661Y217921D01*
X454661Y213879D01*
X453114Y210144D01*
X450256Y207286D01*
X446521Y205739D01*
X442479Y205739D01*
X438744Y207286D01*
X435886Y210144D01*
X434339Y213879D01*
X434339Y217921D01*
X435886Y221656D01*
X438744Y224514D01*
X440003Y225035D01*
X440070Y225072D01*
X440141Y225101D01*
X440222Y225157D01*
X440308Y225204D01*
X440364Y225256D01*
X440427Y225299D01*
X440493Y225372D01*
X440566Y225439D01*
X440609Y225502D01*
X440660Y225558D01*
X440708Y225644D01*
X440764Y225725D01*
X440792Y225796D01*
X440829Y225863D01*
X440856Y225958D01*
X440892Y226050D01*
X440903Y226125D01*
X440908Y226143D01*
X440914Y226163D01*
X440915Y226167D01*
X440924Y226199D01*
X440936Y226348D01*
X440943Y226394D01*
X440941Y226413D01*
X440943Y226442D01*
X440943Y413533D01*
X440935Y413609D01*
X440936Y413685D01*
X440915Y413782D01*
X440903Y413879D01*
X440878Y413951D01*
X440861Y414026D01*
X440819Y414115D01*
X440786Y414207D01*
X440744Y414272D01*
X440712Y414340D01*
X440650Y414417D01*
X440597Y414500D01*
X440542Y414553D01*
X440494Y414613D01*
X440417Y414674D01*
X440346Y414742D01*
X440281Y414781D01*
X440221Y414829D01*
X440088Y414897D01*
X440047Y414921D01*
X440029Y414927D01*
X440003Y414940D01*
X438025Y415760D01*
X434810Y418975D01*
X433207Y422843D01*
X433159Y422931D01*
X433119Y423023D01*
X433074Y423083D01*
X433038Y423148D01*
X432971Y423222D01*
X432911Y423303D01*
X432854Y423351D01*
X432804Y423406D01*
X432721Y423463D01*
X432645Y423528D01*
X432578Y423562D01*
X432517Y423604D01*
X432424Y423641D01*
X432334Y423687D01*
X432262Y423705D01*
X432193Y423732D01*
X432094Y423746D01*
X431996Y423771D01*
X431922Y423772D01*
X431848Y423783D01*
X431748Y423774D01*
X431648Y423776D01*
X431575Y423760D01*
X431501Y423754D01*
X431405Y423723D01*
X431307Y423701D01*
X431240Y423670D01*
X431169Y423647D01*
X431083Y423595D01*
X430992Y423552D01*
X430934Y423505D01*
X430871Y423467D01*
X430798Y423397D01*
X430720Y423334D01*
X430674Y423276D01*
X430621Y423224D01*
X430566Y423140D01*
X430504Y423061D01*
X430458Y422971D01*
X430432Y422931D01*
X430420Y422897D01*
X430393Y422843D01*
X429123Y419777D01*
X429122Y419775D01*
X429121Y419773D01*
X429075Y419611D01*
X429027Y419442D01*
X429027Y419440D01*
X429026Y419438D01*
X429007Y419194D01*
X429007Y160854D01*
X429021Y160729D01*
X429028Y160602D01*
X429041Y160556D01*
X429047Y160508D01*
X429089Y160389D01*
X429124Y160268D01*
X429148Y160225D01*
X429164Y160180D01*
X429233Y160074D01*
X429294Y159963D01*
X429334Y159917D01*
X429353Y159887D01*
X429388Y159854D01*
X429453Y159777D01*
X439560Y149670D01*
X439620Y149622D01*
X439673Y149567D01*
X439756Y149514D01*
X439833Y149453D01*
X439902Y149420D01*
X439967Y149379D01*
X440060Y149346D01*
X440148Y149304D01*
X440223Y149288D01*
X440295Y149262D01*
X440393Y149251D01*
X440489Y149231D01*
X440565Y149232D01*
X440642Y149223D01*
X440739Y149235D01*
X440838Y149237D01*
X440912Y149255D01*
X440988Y149264D01*
X441130Y149310D01*
X441176Y149322D01*
X441193Y149331D01*
X441220Y149339D01*
X442479Y149861D01*
X446521Y149861D01*
X450256Y148314D01*
X453114Y145456D01*
X454661Y141721D01*
X454661Y137679D01*
X453114Y133944D01*
X450256Y131086D01*
X446521Y129539D01*
X442479Y129539D01*
X438744Y131086D01*
X435886Y133944D01*
X434339Y137679D01*
X434339Y141721D01*
X434861Y142980D01*
X434882Y143053D01*
X434912Y143123D01*
X434929Y143220D01*
X434956Y143315D01*
X434960Y143391D01*
X434973Y143466D01*
X434968Y143565D01*
X434973Y143663D01*
X434959Y143738D01*
X434956Y143814D01*
X434928Y143909D01*
X434911Y144006D01*
X434880Y144076D01*
X434859Y144149D01*
X434811Y144235D01*
X434772Y144325D01*
X434726Y144387D01*
X434689Y144453D01*
X434592Y144567D01*
X434564Y144605D01*
X434549Y144617D01*
X434530Y144640D01*
X425257Y153913D01*
X425179Y153975D01*
X425106Y154045D01*
X425042Y154083D01*
X424984Y154130D01*
X424893Y154172D01*
X424807Y154224D01*
X424736Y154247D01*
X424669Y154278D01*
X424571Y154300D01*
X424475Y154330D01*
X424401Y154336D01*
X424328Y154352D01*
X424228Y154350D01*
X424128Y154358D01*
X424054Y154347D01*
X423980Y154346D01*
X423883Y154321D01*
X423783Y154307D01*
X423714Y154279D01*
X423642Y154261D01*
X423552Y154215D01*
X423459Y154178D01*
X423398Y154135D01*
X423332Y154101D01*
X423255Y154036D01*
X423173Y153979D01*
X423123Y153924D01*
X423067Y153875D01*
X423007Y153795D01*
X422940Y153720D01*
X422904Y153655D01*
X422859Y153595D01*
X422820Y153503D01*
X422771Y153415D01*
X422751Y153343D01*
X422721Y153275D01*
X422704Y153176D01*
X422676Y153080D01*
X422668Y152980D01*
X422660Y152932D01*
X422662Y152896D01*
X422657Y152836D01*
X422657Y141804D01*
X422671Y141679D01*
X422678Y141552D01*
X422691Y141506D01*
X422697Y141458D01*
X422739Y141339D01*
X422774Y141218D01*
X422798Y141175D01*
X422814Y141130D01*
X422883Y141024D01*
X422944Y140913D01*
X422984Y140867D01*
X423003Y140837D01*
X423038Y140803D01*
X423103Y140727D01*
X439177Y124653D01*
X439276Y124574D01*
X439370Y124490D01*
X439412Y124466D01*
X439450Y124436D01*
X439564Y124382D01*
X439675Y124321D01*
X439722Y124308D01*
X439765Y124287D01*
X439889Y124261D01*
X440010Y124226D01*
X440071Y124221D01*
X440106Y124214D01*
X440154Y124215D01*
X440254Y124207D01*
X455096Y124207D01*
X455221Y124221D01*
X455348Y124228D01*
X455394Y124241D01*
X455442Y124247D01*
X455561Y124289D01*
X455682Y124324D01*
X455725Y124348D01*
X455770Y124364D01*
X455876Y124433D01*
X455987Y124494D01*
X456033Y124534D01*
X456063Y124553D01*
X456097Y124588D01*
X456173Y124653D01*
X462298Y130778D01*
X462314Y130799D01*
X462335Y130816D01*
X462423Y130935D01*
X462515Y131051D01*
X462526Y131075D01*
X462542Y131096D01*
X462600Y131232D01*
X462664Y131366D01*
X462669Y131392D01*
X462680Y131416D01*
X462706Y131562D01*
X462737Y131707D01*
X462737Y131733D01*
X462741Y131759D01*
X462734Y131908D01*
X462731Y132055D01*
X462725Y132081D01*
X462723Y132107D01*
X462682Y132250D01*
X462646Y132393D01*
X462634Y132417D01*
X462627Y132442D01*
X462554Y132571D01*
X462487Y132703D01*
X462470Y132723D01*
X462457Y132746D01*
X462298Y132932D01*
X461286Y133944D01*
X459739Y137679D01*
X459739Y141721D01*
X461286Y145456D01*
X464144Y148314D01*
X467879Y149861D01*
X471921Y149861D01*
X475656Y148314D01*
X478514Y145456D01*
X480061Y141721D01*
X480061Y137679D01*
X478514Y133944D01*
X475656Y131086D01*
X471921Y129539D01*
X471750Y129539D01*
X471625Y129525D01*
X471498Y129518D01*
X471452Y129505D01*
X471404Y129499D01*
X471285Y129457D01*
X471164Y129422D01*
X471121Y129398D01*
X471076Y129382D01*
X470970Y129313D01*
X470859Y129252D01*
X470813Y129212D01*
X470783Y129193D01*
X470750Y129158D01*
X470673Y129093D01*
X462037Y120457D01*
X461975Y120379D01*
X461905Y120306D01*
X461867Y120242D01*
X461820Y120184D01*
X461778Y120093D01*
X461726Y120007D01*
X461703Y119936D01*
X461672Y119869D01*
X461650Y119771D01*
X461620Y119675D01*
X461614Y119601D01*
X461598Y119528D01*
X461600Y119428D01*
X461592Y119328D01*
X461603Y119254D01*
X461604Y119180D01*
X461629Y119083D01*
X461643Y118983D01*
X461671Y118914D01*
X461689Y118842D01*
X461735Y118752D01*
X461772Y118659D01*
X461815Y118598D01*
X461849Y118532D01*
X461914Y118455D01*
X461971Y118373D01*
X462026Y118323D01*
X462075Y118267D01*
X462155Y118207D01*
X462230Y118140D01*
X462295Y118104D01*
X462355Y118059D01*
X462447Y118020D01*
X462535Y117971D01*
X462607Y117951D01*
X462675Y117921D01*
X462774Y117904D01*
X462870Y117876D01*
X462970Y117868D01*
X463018Y117860D01*
X463054Y117862D01*
X463114Y117857D01*
X467796Y117857D01*
X467921Y117871D01*
X468048Y117878D01*
X468094Y117891D01*
X468142Y117897D01*
X468261Y117939D01*
X468382Y117974D01*
X468425Y117998D01*
X468470Y118014D01*
X468576Y118083D01*
X468687Y118144D01*
X468733Y118184D01*
X468763Y118203D01*
X468796Y118238D01*
X468873Y118303D01*
X485330Y134760D01*
X485378Y134820D01*
X485433Y134873D01*
X485486Y134956D01*
X485547Y135033D01*
X485580Y135102D01*
X485621Y135167D01*
X485654Y135260D01*
X485696Y135348D01*
X485712Y135423D01*
X485738Y135495D01*
X485749Y135593D01*
X485769Y135689D01*
X485768Y135765D01*
X485777Y135842D01*
X485765Y135939D01*
X485763Y136038D01*
X485745Y136112D01*
X485736Y136188D01*
X485690Y136330D01*
X485678Y136376D01*
X485669Y136393D01*
X485661Y136420D01*
X485139Y137679D01*
X485139Y141721D01*
X486686Y145456D01*
X489544Y148314D01*
X493279Y149861D01*
X497321Y149861D01*
X501056Y148314D01*
X503914Y145456D01*
X505461Y141721D01*
X505461Y137679D01*
X503914Y133944D01*
X501056Y131086D01*
X497321Y129539D01*
X493279Y129539D01*
X492020Y130061D01*
X491947Y130082D01*
X491877Y130112D01*
X491780Y130129D01*
X491685Y130156D01*
X491609Y130160D01*
X491534Y130173D01*
X491435Y130168D01*
X491337Y130173D01*
X491262Y130159D01*
X491186Y130156D01*
X491091Y130128D01*
X490994Y130111D01*
X490924Y130080D01*
X490851Y130059D01*
X490765Y130011D01*
X490675Y129972D01*
X490613Y129926D01*
X490547Y129889D01*
X490433Y129792D01*
X490395Y129764D01*
X490383Y129749D01*
X490360Y129730D01*
X474737Y114107D01*
X474675Y114029D01*
X474605Y113956D01*
X474567Y113892D01*
X474520Y113834D01*
X474478Y113743D01*
X474426Y113657D01*
X474403Y113586D01*
X474372Y113519D01*
X474350Y113421D01*
X474320Y113325D01*
X474314Y113251D01*
X474298Y113178D01*
X474300Y113078D01*
X474292Y112978D01*
X474303Y112904D01*
X474304Y112830D01*
X474329Y112733D01*
X474343Y112633D01*
X474371Y112564D01*
X474389Y112492D01*
X474435Y112402D01*
X474472Y112309D01*
X474515Y112248D01*
X474549Y112182D01*
X474614Y112105D01*
X474671Y112023D01*
X474726Y111973D01*
X474775Y111917D01*
X474855Y111857D01*
X474930Y111790D01*
X474995Y111754D01*
X475055Y111709D01*
X475147Y111670D01*
X475235Y111621D01*
X475307Y111601D01*
X475375Y111571D01*
X475474Y111554D01*
X475570Y111526D01*
X475670Y111518D01*
X475718Y111510D01*
X475754Y111512D01*
X475814Y111507D01*
X486846Y111507D01*
X486971Y111521D01*
X487098Y111528D01*
X487144Y111541D01*
X487192Y111547D01*
X487311Y111589D01*
X487432Y111624D01*
X487475Y111648D01*
X487520Y111664D01*
X487626Y111733D01*
X487737Y111794D01*
X487783Y111834D01*
X487813Y111853D01*
X487846Y111888D01*
X487923Y111953D01*
X510730Y134760D01*
X510778Y134820D01*
X510833Y134873D01*
X510886Y134956D01*
X510947Y135033D01*
X510980Y135102D01*
X511021Y135167D01*
X511054Y135260D01*
X511096Y135348D01*
X511112Y135423D01*
X511138Y135495D01*
X511149Y135593D01*
X511169Y135689D01*
X511168Y135765D01*
X511177Y135842D01*
X511165Y135939D01*
X511163Y136038D01*
X511145Y136112D01*
X511136Y136188D01*
X511090Y136330D01*
X511078Y136376D01*
X511069Y136393D01*
X511061Y136420D01*
X510539Y137679D01*
X510539Y141721D01*
X512086Y145456D01*
X514944Y148314D01*
X518679Y149861D01*
X522721Y149861D01*
X526456Y148314D01*
X529314Y145456D01*
X530861Y141721D01*
X530861Y137679D01*
X529314Y133944D01*
X526456Y131086D01*
X522721Y129539D01*
X518679Y129539D01*
X517420Y130061D01*
X517347Y130082D01*
X517277Y130112D01*
X517180Y130129D01*
X517085Y130156D01*
X517009Y130160D01*
X516934Y130173D01*
X516835Y130168D01*
X516737Y130173D01*
X516662Y130159D01*
X516586Y130156D01*
X516491Y130128D01*
X516394Y130111D01*
X516324Y130080D01*
X516251Y130059D01*
X516165Y130011D01*
X516075Y129972D01*
X516013Y129926D01*
X515947Y129889D01*
X515833Y129792D01*
X515795Y129764D01*
X515783Y129749D01*
X515760Y129730D01*
X493787Y107757D01*
X493725Y107679D01*
X493655Y107606D01*
X493617Y107542D01*
X493570Y107484D01*
X493528Y107393D01*
X493476Y107307D01*
X493453Y107236D01*
X493422Y107169D01*
X493400Y107071D01*
X493370Y106975D01*
X493364Y106901D01*
X493348Y106828D01*
X493350Y106728D01*
X493342Y106628D01*
X493353Y106554D01*
X493354Y106480D01*
X493379Y106383D01*
X493393Y106283D01*
X493421Y106214D01*
X493439Y106142D01*
X493485Y106052D01*
X493522Y105959D01*
X493565Y105898D01*
X493599Y105832D01*
X493664Y105755D01*
X493721Y105673D01*
X493776Y105623D01*
X493825Y105567D01*
X493905Y105507D01*
X493980Y105440D01*
X494045Y105404D01*
X494105Y105359D01*
X494197Y105320D01*
X494285Y105271D01*
X494357Y105251D01*
X494425Y105221D01*
X494524Y105204D01*
X494620Y105176D01*
X494720Y105168D01*
X494768Y105160D01*
X494804Y105162D01*
X494864Y105157D01*
X505896Y105157D01*
X506021Y105171D01*
X506148Y105178D01*
X506194Y105191D01*
X506242Y105197D01*
X506361Y105239D01*
X506482Y105274D01*
X506525Y105298D01*
X506570Y105314D01*
X506676Y105383D01*
X506787Y105444D01*
X506833Y105484D01*
X506863Y105503D01*
X506896Y105538D01*
X506973Y105603D01*
X536130Y134760D01*
X536178Y134820D01*
X536233Y134873D01*
X536286Y134956D01*
X536347Y135033D01*
X536380Y135102D01*
X536421Y135167D01*
X536454Y135260D01*
X536496Y135348D01*
X536512Y135423D01*
X536538Y135495D01*
X536549Y135593D01*
X536569Y135689D01*
X536568Y135765D01*
X536577Y135842D01*
X536565Y135939D01*
X536563Y136038D01*
X536545Y136112D01*
X536536Y136188D01*
X536490Y136330D01*
X536478Y136376D01*
X536469Y136393D01*
X536461Y136420D01*
X535939Y137679D01*
X535939Y141721D01*
X537486Y145456D01*
X540344Y148314D01*
X544079Y149861D01*
X548121Y149861D01*
X551856Y148314D01*
X554714Y145456D01*
X556261Y141721D01*
X556261Y137679D01*
X554714Y133944D01*
X551856Y131086D01*
X548121Y129539D01*
X544079Y129539D01*
X542820Y130061D01*
X542747Y130082D01*
X542677Y130112D01*
X542580Y130129D01*
X542485Y130156D01*
X542409Y130160D01*
X542334Y130173D01*
X542235Y130168D01*
X542137Y130173D01*
X542062Y130159D01*
X541986Y130156D01*
X541891Y130128D01*
X541794Y130111D01*
X541724Y130080D01*
X541651Y130059D01*
X541565Y130011D01*
X541475Y129972D01*
X541413Y129926D01*
X541347Y129889D01*
X541233Y129792D01*
X541195Y129764D01*
X541183Y129749D01*
X541160Y129730D01*
X512837Y101407D01*
X512775Y101329D01*
X512705Y101256D01*
X512667Y101192D01*
X512620Y101134D01*
X512578Y101043D01*
X512526Y100957D01*
X512503Y100886D01*
X512472Y100819D01*
X512450Y100721D01*
X512420Y100625D01*
X512414Y100551D01*
X512398Y100478D01*
X512400Y100378D01*
X512392Y100278D01*
X512403Y100204D01*
X512404Y100130D01*
X512429Y100033D01*
X512443Y99933D01*
X512471Y99864D01*
X512489Y99792D01*
X512535Y99702D01*
X512572Y99609D01*
X512615Y99548D01*
X512649Y99482D01*
X512714Y99405D01*
X512771Y99323D01*
X512826Y99273D01*
X512875Y99217D01*
X512955Y99157D01*
X513030Y99090D01*
X513095Y99054D01*
X513155Y99009D01*
X513247Y98970D01*
X513335Y98921D01*
X513407Y98901D01*
X513475Y98871D01*
X513574Y98854D01*
X513670Y98826D01*
X513770Y98818D01*
X513818Y98810D01*
X513854Y98812D01*
X513914Y98807D01*
X577067Y98807D01*
X577192Y98821D01*
X577319Y98828D01*
X577365Y98841D01*
X577413Y98847D01*
X577532Y98889D01*
X577654Y98924D01*
X577696Y98948D01*
X577741Y98964D01*
X577847Y99033D01*
X577958Y99094D01*
X578004Y99134D01*
X578034Y99153D01*
X578068Y99188D01*
X578144Y99253D01*
X580171Y101280D01*
X582785Y102363D01*
X585615Y102363D01*
X588229Y101280D01*
X590230Y99279D01*
X591313Y96665D01*
X591313Y93835D01*
X590230Y91221D01*
X588229Y89220D01*
X585615Y88137D01*
X582785Y88137D01*
G37*
%LPD*%
%LPC*%
G36*
X620026Y13969D02*
X620026Y13969D01*
X615825Y15710D01*
X612610Y18925D01*
X610869Y23126D01*
X610869Y27674D01*
X612610Y31875D01*
X615825Y35090D01*
X617803Y35910D01*
X617870Y35947D01*
X617941Y35975D01*
X618021Y36031D01*
X618108Y36079D01*
X618164Y36131D01*
X618227Y36174D01*
X618293Y36247D01*
X618366Y36313D01*
X618409Y36376D01*
X618460Y36433D01*
X618508Y36519D01*
X618564Y36600D01*
X618592Y36671D01*
X618629Y36738D01*
X618656Y36833D01*
X618692Y36924D01*
X618703Y37000D01*
X618724Y37073D01*
X618736Y37222D01*
X618743Y37269D01*
X618741Y37288D01*
X618743Y37317D01*
X618743Y38883D01*
X618735Y38959D01*
X618736Y39035D01*
X618715Y39132D01*
X618703Y39229D01*
X618678Y39301D01*
X618661Y39376D01*
X618619Y39465D01*
X618586Y39557D01*
X618544Y39622D01*
X618512Y39690D01*
X618450Y39767D01*
X618397Y39850D01*
X618342Y39903D01*
X618294Y39963D01*
X618217Y40024D01*
X618146Y40092D01*
X618081Y40131D01*
X618021Y40179D01*
X617888Y40247D01*
X617847Y40271D01*
X617829Y40277D01*
X617803Y40290D01*
X615825Y41110D01*
X612610Y44325D01*
X610869Y48526D01*
X610869Y53074D01*
X612610Y57275D01*
X615825Y60490D01*
X617803Y61310D01*
X617870Y61347D01*
X617941Y61375D01*
X618022Y61431D01*
X618108Y61479D01*
X618164Y61530D01*
X618227Y61574D01*
X618293Y61647D01*
X618366Y61713D01*
X618409Y61776D01*
X618460Y61833D01*
X618508Y61919D01*
X618564Y62000D01*
X618592Y62071D01*
X618629Y62138D01*
X618656Y62233D01*
X618692Y62324D01*
X618703Y62400D01*
X618724Y62473D01*
X618736Y62622D01*
X618743Y62669D01*
X618741Y62688D01*
X618743Y62717D01*
X618743Y115773D01*
X621273Y118303D01*
X637730Y134760D01*
X637778Y134820D01*
X637833Y134873D01*
X637886Y134956D01*
X637947Y135033D01*
X637980Y135102D01*
X638021Y135167D01*
X638054Y135260D01*
X638096Y135348D01*
X638112Y135423D01*
X638138Y135495D01*
X638149Y135593D01*
X638169Y135689D01*
X638168Y135765D01*
X638177Y135841D01*
X638165Y135939D01*
X638163Y136038D01*
X638145Y136112D01*
X638136Y136188D01*
X638090Y136330D01*
X638078Y136376D01*
X638070Y136393D01*
X638061Y136420D01*
X637539Y137679D01*
X637539Y141721D01*
X639086Y145456D01*
X641944Y148314D01*
X645679Y149861D01*
X649721Y149861D01*
X653456Y148314D01*
X656314Y145456D01*
X657861Y141721D01*
X657861Y137679D01*
X656314Y133944D01*
X653456Y131086D01*
X649721Y129539D01*
X645679Y129539D01*
X644420Y130061D01*
X644347Y130082D01*
X644277Y130112D01*
X644180Y130129D01*
X644085Y130156D01*
X644009Y130160D01*
X643934Y130173D01*
X643835Y130168D01*
X643737Y130173D01*
X643662Y130159D01*
X643586Y130156D01*
X643491Y130128D01*
X643394Y130111D01*
X643324Y130080D01*
X643251Y130059D01*
X643165Y130011D01*
X643075Y129972D01*
X643013Y129926D01*
X642947Y129889D01*
X642833Y129792D01*
X642795Y129764D01*
X642783Y129749D01*
X642760Y129730D01*
X626303Y113273D01*
X626238Y113191D01*
X626190Y113141D01*
X626180Y113124D01*
X626140Y113080D01*
X626116Y113038D01*
X626086Y113000D01*
X626032Y112886D01*
X625971Y112775D01*
X625958Y112728D01*
X625937Y112685D01*
X625911Y112561D01*
X625876Y112440D01*
X625871Y112379D01*
X625864Y112344D01*
X625865Y112296D01*
X625857Y112196D01*
X625857Y62717D01*
X625865Y62641D01*
X625864Y62565D01*
X625885Y62468D01*
X625897Y62371D01*
X625922Y62299D01*
X625939Y62224D01*
X625981Y62135D01*
X626014Y62043D01*
X626056Y61978D01*
X626088Y61910D01*
X626150Y61833D01*
X626203Y61750D01*
X626258Y61697D01*
X626306Y61637D01*
X626383Y61576D01*
X626454Y61508D01*
X626519Y61469D01*
X626579Y61421D01*
X626712Y61353D01*
X626753Y61329D01*
X626771Y61323D01*
X626797Y61310D01*
X628775Y60490D01*
X631990Y57275D01*
X633593Y53407D01*
X633641Y53319D01*
X633681Y53227D01*
X633726Y53167D01*
X633762Y53102D01*
X633829Y53028D01*
X633889Y52947D01*
X633946Y52899D01*
X633996Y52844D01*
X634079Y52787D01*
X634155Y52722D01*
X634222Y52688D01*
X634283Y52646D01*
X634376Y52609D01*
X634466Y52563D01*
X634538Y52546D01*
X634607Y52518D01*
X634706Y52504D01*
X634804Y52479D01*
X634878Y52478D01*
X634952Y52467D01*
X635052Y52476D01*
X635152Y52474D01*
X635225Y52490D01*
X635299Y52496D01*
X635395Y52527D01*
X635493Y52549D01*
X635560Y52581D01*
X635631Y52603D01*
X635717Y52655D01*
X635808Y52698D01*
X635866Y52745D01*
X635929Y52783D01*
X636002Y52853D01*
X636080Y52916D01*
X636126Y52974D01*
X636179Y53026D01*
X636234Y53110D01*
X636296Y53189D01*
X636342Y53279D01*
X636368Y53319D01*
X636380Y53353D01*
X636407Y53407D01*
X638010Y57275D01*
X641225Y60490D01*
X643203Y61310D01*
X643270Y61347D01*
X643341Y61375D01*
X643421Y61431D01*
X643508Y61479D01*
X643564Y61531D01*
X643627Y61574D01*
X643693Y61647D01*
X643766Y61713D01*
X643809Y61776D01*
X643860Y61833D01*
X643908Y61919D01*
X643964Y62000D01*
X643992Y62071D01*
X644029Y62138D01*
X644056Y62233D01*
X644092Y62324D01*
X644103Y62400D01*
X644124Y62473D01*
X644136Y62622D01*
X644143Y62669D01*
X644141Y62688D01*
X644143Y62717D01*
X644143Y115773D01*
X663130Y134760D01*
X663178Y134820D01*
X663233Y134873D01*
X663286Y134956D01*
X663347Y135033D01*
X663380Y135102D01*
X663421Y135167D01*
X663454Y135260D01*
X663496Y135348D01*
X663512Y135423D01*
X663538Y135495D01*
X663549Y135593D01*
X663569Y135689D01*
X663568Y135765D01*
X663577Y135841D01*
X663565Y135939D01*
X663563Y136038D01*
X663545Y136112D01*
X663536Y136188D01*
X663490Y136330D01*
X663478Y136376D01*
X663470Y136393D01*
X663461Y136420D01*
X662939Y137679D01*
X662939Y141721D01*
X664486Y145456D01*
X667344Y148314D01*
X671079Y149861D01*
X675121Y149861D01*
X678856Y148314D01*
X681714Y145456D01*
X683261Y141721D01*
X683261Y137679D01*
X681714Y133944D01*
X678856Y131086D01*
X675121Y129539D01*
X671079Y129539D01*
X669820Y130061D01*
X669747Y130082D01*
X669677Y130112D01*
X669580Y130129D01*
X669485Y130156D01*
X669409Y130160D01*
X669334Y130173D01*
X669235Y130168D01*
X669137Y130173D01*
X669062Y130159D01*
X668986Y130156D01*
X668891Y130128D01*
X668794Y130111D01*
X668724Y130080D01*
X668651Y130059D01*
X668565Y130011D01*
X668475Y129972D01*
X668413Y129926D01*
X668347Y129889D01*
X668233Y129792D01*
X668195Y129764D01*
X668183Y129749D01*
X668160Y129730D01*
X651703Y113273D01*
X651638Y113191D01*
X651590Y113141D01*
X651580Y113124D01*
X651540Y113080D01*
X651516Y113038D01*
X651486Y113000D01*
X651432Y112886D01*
X651371Y112775D01*
X651358Y112728D01*
X651337Y112685D01*
X651311Y112561D01*
X651276Y112440D01*
X651271Y112379D01*
X651264Y112344D01*
X651265Y112296D01*
X651257Y112196D01*
X651257Y62717D01*
X651265Y62641D01*
X651264Y62565D01*
X651285Y62469D01*
X651297Y62371D01*
X651322Y62299D01*
X651339Y62224D01*
X651381Y62135D01*
X651414Y62043D01*
X651456Y61979D01*
X651488Y61910D01*
X651550Y61833D01*
X651603Y61750D01*
X651658Y61697D01*
X651706Y61637D01*
X651783Y61576D01*
X651854Y61508D01*
X651919Y61469D01*
X651979Y61421D01*
X652113Y61353D01*
X652153Y61329D01*
X652171Y61323D01*
X652197Y61310D01*
X654175Y60490D01*
X657390Y57275D01*
X658993Y53407D01*
X659041Y53319D01*
X659081Y53227D01*
X659126Y53167D01*
X659162Y53102D01*
X659229Y53028D01*
X659289Y52947D01*
X659346Y52899D01*
X659396Y52844D01*
X659479Y52787D01*
X659555Y52722D01*
X659622Y52688D01*
X659683Y52646D01*
X659776Y52609D01*
X659866Y52563D01*
X659938Y52546D01*
X660007Y52518D01*
X660106Y52504D01*
X660204Y52479D01*
X660278Y52478D01*
X660352Y52467D01*
X660452Y52476D01*
X660552Y52474D01*
X660625Y52490D01*
X660699Y52496D01*
X660795Y52527D01*
X660893Y52549D01*
X660960Y52581D01*
X661031Y52603D01*
X661117Y52655D01*
X661208Y52698D01*
X661266Y52745D01*
X661329Y52783D01*
X661402Y52853D01*
X661480Y52916D01*
X661526Y52974D01*
X661579Y53026D01*
X661634Y53110D01*
X661696Y53189D01*
X661742Y53279D01*
X661768Y53319D01*
X661780Y53353D01*
X661807Y53407D01*
X663410Y57275D01*
X666625Y60490D01*
X668603Y61310D01*
X668670Y61347D01*
X668741Y61375D01*
X668821Y61431D01*
X668908Y61479D01*
X668964Y61531D01*
X669027Y61574D01*
X669093Y61647D01*
X669166Y61713D01*
X669209Y61776D01*
X669260Y61833D01*
X669308Y61919D01*
X669364Y62000D01*
X669392Y62071D01*
X669429Y62138D01*
X669456Y62233D01*
X669492Y62324D01*
X669503Y62400D01*
X669524Y62473D01*
X669536Y62622D01*
X669543Y62669D01*
X669541Y62688D01*
X669543Y62717D01*
X669543Y115773D01*
X688530Y134760D01*
X688578Y134820D01*
X688633Y134873D01*
X688686Y134956D01*
X688747Y135033D01*
X688780Y135102D01*
X688821Y135167D01*
X688854Y135260D01*
X688896Y135348D01*
X688912Y135423D01*
X688938Y135495D01*
X688949Y135593D01*
X688969Y135689D01*
X688968Y135765D01*
X688977Y135841D01*
X688965Y135939D01*
X688963Y136038D01*
X688945Y136112D01*
X688936Y136188D01*
X688890Y136330D01*
X688878Y136376D01*
X688870Y136393D01*
X688861Y136420D01*
X688339Y137679D01*
X688339Y141721D01*
X689886Y145456D01*
X692744Y148314D01*
X696479Y149861D01*
X700521Y149861D01*
X704256Y148314D01*
X707114Y145456D01*
X708661Y141721D01*
X708661Y137679D01*
X707114Y133944D01*
X704256Y131086D01*
X700521Y129539D01*
X696479Y129539D01*
X695220Y130061D01*
X695147Y130082D01*
X695077Y130112D01*
X694980Y130129D01*
X694885Y130156D01*
X694809Y130160D01*
X694734Y130173D01*
X694635Y130168D01*
X694537Y130173D01*
X694462Y130159D01*
X694386Y130156D01*
X694291Y130128D01*
X694194Y130111D01*
X694124Y130080D01*
X694051Y130059D01*
X693965Y130011D01*
X693875Y129972D01*
X693813Y129926D01*
X693747Y129889D01*
X693633Y129792D01*
X693595Y129764D01*
X693583Y129749D01*
X693560Y129730D01*
X677103Y113273D01*
X677038Y113191D01*
X676990Y113141D01*
X676980Y113124D01*
X676940Y113080D01*
X676916Y113038D01*
X676886Y113000D01*
X676832Y112886D01*
X676771Y112775D01*
X676758Y112728D01*
X676737Y112685D01*
X676711Y112561D01*
X676676Y112440D01*
X676671Y112379D01*
X676664Y112344D01*
X676665Y112296D01*
X676657Y112196D01*
X676657Y62717D01*
X676665Y62641D01*
X676664Y62565D01*
X676685Y62469D01*
X676697Y62371D01*
X676722Y62299D01*
X676739Y62224D01*
X676781Y62135D01*
X676814Y62043D01*
X676856Y61979D01*
X676888Y61910D01*
X676950Y61833D01*
X677003Y61750D01*
X677058Y61697D01*
X677106Y61637D01*
X677183Y61576D01*
X677254Y61508D01*
X677319Y61469D01*
X677379Y61421D01*
X677513Y61353D01*
X677553Y61329D01*
X677571Y61323D01*
X677597Y61310D01*
X679575Y60490D01*
X682790Y57275D01*
X684393Y53407D01*
X684441Y53319D01*
X684481Y53227D01*
X684526Y53167D01*
X684562Y53102D01*
X684629Y53028D01*
X684689Y52947D01*
X684746Y52899D01*
X684796Y52844D01*
X684879Y52787D01*
X684955Y52722D01*
X685022Y52688D01*
X685083Y52646D01*
X685176Y52609D01*
X685266Y52563D01*
X685338Y52546D01*
X685407Y52518D01*
X685506Y52504D01*
X685604Y52479D01*
X685678Y52478D01*
X685752Y52467D01*
X685852Y52476D01*
X685952Y52474D01*
X686025Y52490D01*
X686099Y52496D01*
X686195Y52527D01*
X686293Y52549D01*
X686360Y52581D01*
X686431Y52603D01*
X686517Y52655D01*
X686608Y52698D01*
X686666Y52745D01*
X686729Y52783D01*
X686802Y52853D01*
X686880Y52916D01*
X686926Y52974D01*
X686979Y53026D01*
X687034Y53110D01*
X687096Y53189D01*
X687142Y53279D01*
X687168Y53319D01*
X687180Y53353D01*
X687207Y53407D01*
X688810Y57275D01*
X692025Y60490D01*
X694003Y61310D01*
X694070Y61347D01*
X694141Y61375D01*
X694221Y61431D01*
X694308Y61479D01*
X694364Y61531D01*
X694427Y61574D01*
X694493Y61647D01*
X694566Y61713D01*
X694609Y61776D01*
X694660Y61833D01*
X694708Y61919D01*
X694764Y62000D01*
X694792Y62071D01*
X694829Y62138D01*
X694856Y62233D01*
X694892Y62324D01*
X694903Y62400D01*
X694924Y62473D01*
X694936Y62622D01*
X694943Y62669D01*
X694941Y62688D01*
X694943Y62717D01*
X694943Y115773D01*
X697473Y118303D01*
X713930Y134760D01*
X713978Y134820D01*
X714033Y134873D01*
X714086Y134956D01*
X714147Y135033D01*
X714180Y135102D01*
X714221Y135167D01*
X714254Y135260D01*
X714296Y135348D01*
X714312Y135423D01*
X714338Y135495D01*
X714349Y135593D01*
X714369Y135689D01*
X714368Y135765D01*
X714377Y135841D01*
X714365Y135939D01*
X714363Y136038D01*
X714345Y136112D01*
X714336Y136188D01*
X714290Y136330D01*
X714278Y136376D01*
X714270Y136393D01*
X714261Y136420D01*
X713739Y137679D01*
X713739Y141721D01*
X715286Y145456D01*
X718144Y148314D01*
X721879Y149861D01*
X725921Y149861D01*
X729656Y148314D01*
X732514Y145456D01*
X734061Y141721D01*
X734061Y137679D01*
X732514Y133944D01*
X729656Y131086D01*
X725921Y129539D01*
X721879Y129539D01*
X720620Y130061D01*
X720547Y130082D01*
X720477Y130112D01*
X720380Y130129D01*
X720285Y130156D01*
X720209Y130160D01*
X720134Y130173D01*
X720035Y130168D01*
X719937Y130173D01*
X719862Y130159D01*
X719786Y130156D01*
X719691Y130128D01*
X719594Y130111D01*
X719524Y130080D01*
X719451Y130059D01*
X719365Y130011D01*
X719275Y129972D01*
X719213Y129926D01*
X719147Y129889D01*
X719033Y129792D01*
X718995Y129764D01*
X718983Y129749D01*
X718960Y129730D01*
X702503Y113273D01*
X702438Y113191D01*
X702390Y113141D01*
X702380Y113124D01*
X702340Y113080D01*
X702316Y113038D01*
X702286Y113000D01*
X702232Y112886D01*
X702171Y112775D01*
X702158Y112728D01*
X702137Y112685D01*
X702111Y112561D01*
X702076Y112440D01*
X702071Y112379D01*
X702064Y112344D01*
X702065Y112296D01*
X702057Y112196D01*
X702057Y62717D01*
X702065Y62641D01*
X702064Y62565D01*
X702085Y62469D01*
X702097Y62371D01*
X702122Y62299D01*
X702139Y62224D01*
X702181Y62135D01*
X702214Y62043D01*
X702256Y61979D01*
X702288Y61910D01*
X702350Y61833D01*
X702403Y61750D01*
X702458Y61697D01*
X702506Y61637D01*
X702583Y61576D01*
X702654Y61508D01*
X702719Y61469D01*
X702779Y61421D01*
X702913Y61353D01*
X702953Y61329D01*
X702971Y61323D01*
X702997Y61310D01*
X704975Y60490D01*
X708190Y57275D01*
X709793Y53407D01*
X709841Y53319D01*
X709881Y53227D01*
X709926Y53167D01*
X709962Y53102D01*
X710029Y53028D01*
X710089Y52947D01*
X710146Y52899D01*
X710196Y52844D01*
X710279Y52787D01*
X710355Y52722D01*
X710422Y52688D01*
X710483Y52646D01*
X710576Y52609D01*
X710666Y52563D01*
X710738Y52546D01*
X710807Y52518D01*
X710906Y52504D01*
X711004Y52479D01*
X711078Y52478D01*
X711152Y52467D01*
X711252Y52476D01*
X711352Y52474D01*
X711425Y52490D01*
X711499Y52496D01*
X711595Y52527D01*
X711693Y52549D01*
X711760Y52581D01*
X711831Y52603D01*
X711917Y52655D01*
X712008Y52698D01*
X712066Y52745D01*
X712129Y52783D01*
X712202Y52853D01*
X712280Y52916D01*
X712326Y52974D01*
X712379Y53026D01*
X712434Y53110D01*
X712496Y53189D01*
X712542Y53279D01*
X712568Y53319D01*
X712580Y53353D01*
X712607Y53407D01*
X714210Y57275D01*
X717425Y60490D01*
X719403Y61310D01*
X719470Y61347D01*
X719541Y61375D01*
X719621Y61431D01*
X719708Y61479D01*
X719764Y61531D01*
X719827Y61574D01*
X719893Y61647D01*
X719966Y61713D01*
X720009Y61776D01*
X720060Y61833D01*
X720108Y61919D01*
X720164Y62000D01*
X720192Y62071D01*
X720229Y62138D01*
X720256Y62233D01*
X720292Y62324D01*
X720303Y62400D01*
X720324Y62473D01*
X720336Y62622D01*
X720343Y62669D01*
X720341Y62688D01*
X720343Y62717D01*
X720343Y115773D01*
X739330Y134760D01*
X739378Y134820D01*
X739433Y134873D01*
X739486Y134956D01*
X739547Y135033D01*
X739580Y135102D01*
X739621Y135167D01*
X739654Y135260D01*
X739696Y135348D01*
X739712Y135423D01*
X739738Y135495D01*
X739749Y135593D01*
X739769Y135689D01*
X739768Y135765D01*
X739777Y135842D01*
X739765Y135939D01*
X739763Y136038D01*
X739745Y136112D01*
X739736Y136188D01*
X739690Y136330D01*
X739678Y136376D01*
X739669Y136393D01*
X739661Y136420D01*
X739139Y137679D01*
X739139Y141721D01*
X740686Y145456D01*
X743544Y148314D01*
X747279Y149861D01*
X751321Y149861D01*
X755056Y148314D01*
X757914Y145456D01*
X759461Y141721D01*
X759461Y137679D01*
X757914Y133944D01*
X755056Y131086D01*
X751321Y129539D01*
X747279Y129539D01*
X746020Y130061D01*
X745947Y130082D01*
X745877Y130112D01*
X745780Y130129D01*
X745685Y130156D01*
X745609Y130160D01*
X745534Y130173D01*
X745435Y130168D01*
X745337Y130173D01*
X745262Y130159D01*
X745186Y130156D01*
X745091Y130128D01*
X744994Y130111D01*
X744924Y130080D01*
X744851Y130059D01*
X744765Y130011D01*
X744675Y129972D01*
X744613Y129926D01*
X744547Y129889D01*
X744433Y129792D01*
X744395Y129764D01*
X744383Y129749D01*
X744360Y129730D01*
X727903Y113273D01*
X727838Y113191D01*
X727790Y113141D01*
X727780Y113124D01*
X727740Y113080D01*
X727716Y113038D01*
X727686Y113000D01*
X727632Y112886D01*
X727571Y112775D01*
X727558Y112728D01*
X727537Y112685D01*
X727511Y112561D01*
X727476Y112440D01*
X727471Y112379D01*
X727464Y112344D01*
X727465Y112296D01*
X727457Y112196D01*
X727457Y62717D01*
X727465Y62641D01*
X727464Y62565D01*
X727485Y62469D01*
X727497Y62371D01*
X727522Y62299D01*
X727539Y62224D01*
X727581Y62135D01*
X727614Y62043D01*
X727656Y61979D01*
X727688Y61910D01*
X727750Y61833D01*
X727803Y61750D01*
X727858Y61697D01*
X727906Y61637D01*
X727983Y61576D01*
X728054Y61508D01*
X728119Y61469D01*
X728179Y61421D01*
X728313Y61353D01*
X728353Y61329D01*
X728371Y61323D01*
X728397Y61310D01*
X730375Y60490D01*
X733590Y57275D01*
X735193Y53407D01*
X735241Y53319D01*
X735281Y53227D01*
X735326Y53167D01*
X735362Y53102D01*
X735429Y53028D01*
X735489Y52947D01*
X735546Y52899D01*
X735596Y52844D01*
X735679Y52787D01*
X735755Y52722D01*
X735822Y52688D01*
X735883Y52646D01*
X735976Y52609D01*
X736066Y52563D01*
X736138Y52546D01*
X736207Y52518D01*
X736306Y52504D01*
X736404Y52479D01*
X736478Y52478D01*
X736552Y52467D01*
X736652Y52476D01*
X736752Y52474D01*
X736825Y52490D01*
X736899Y52496D01*
X736995Y52527D01*
X737093Y52549D01*
X737160Y52581D01*
X737231Y52603D01*
X737317Y52655D01*
X737408Y52698D01*
X737466Y52745D01*
X737529Y52783D01*
X737602Y52853D01*
X737680Y52916D01*
X737726Y52974D01*
X737779Y53026D01*
X737834Y53110D01*
X737896Y53189D01*
X737942Y53279D01*
X737968Y53319D01*
X737980Y53353D01*
X738007Y53407D01*
X739610Y57275D01*
X742825Y60490D01*
X744803Y61310D01*
X744870Y61347D01*
X744941Y61375D01*
X745021Y61431D01*
X745108Y61479D01*
X745164Y61531D01*
X745227Y61574D01*
X745293Y61647D01*
X745366Y61713D01*
X745409Y61776D01*
X745460Y61833D01*
X745508Y61919D01*
X745564Y62000D01*
X745592Y62071D01*
X745629Y62138D01*
X745656Y62233D01*
X745692Y62324D01*
X745703Y62400D01*
X745724Y62473D01*
X745736Y62622D01*
X745743Y62669D01*
X745741Y62688D01*
X745743Y62717D01*
X745743Y115773D01*
X748273Y118303D01*
X764730Y134760D01*
X764778Y134820D01*
X764833Y134873D01*
X764886Y134956D01*
X764947Y135033D01*
X764980Y135102D01*
X765021Y135167D01*
X765054Y135260D01*
X765096Y135348D01*
X765112Y135423D01*
X765138Y135495D01*
X765149Y135593D01*
X765169Y135689D01*
X765168Y135765D01*
X765177Y135841D01*
X765165Y135939D01*
X765163Y136038D01*
X765145Y136112D01*
X765136Y136188D01*
X765090Y136330D01*
X765078Y136376D01*
X765070Y136393D01*
X765061Y136420D01*
X764539Y137679D01*
X764539Y141721D01*
X766086Y145456D01*
X768944Y148314D01*
X772679Y149861D01*
X776721Y149861D01*
X780456Y148314D01*
X783314Y145456D01*
X784861Y141721D01*
X784861Y137679D01*
X783314Y133944D01*
X780456Y131086D01*
X776721Y129539D01*
X772679Y129539D01*
X771420Y130061D01*
X771347Y130082D01*
X771277Y130112D01*
X771180Y130129D01*
X771085Y130156D01*
X771009Y130160D01*
X770934Y130173D01*
X770835Y130168D01*
X770737Y130173D01*
X770662Y130159D01*
X770586Y130156D01*
X770491Y130128D01*
X770394Y130111D01*
X770324Y130080D01*
X770251Y130059D01*
X770165Y130011D01*
X770075Y129972D01*
X770013Y129926D01*
X769947Y129889D01*
X769833Y129792D01*
X769795Y129764D01*
X769783Y129749D01*
X769760Y129730D01*
X753303Y113273D01*
X753238Y113191D01*
X753190Y113141D01*
X753180Y113124D01*
X753140Y113080D01*
X753116Y113038D01*
X753086Y113000D01*
X753032Y112886D01*
X752971Y112775D01*
X752958Y112728D01*
X752937Y112685D01*
X752911Y112561D01*
X752876Y112440D01*
X752871Y112379D01*
X752864Y112344D01*
X752865Y112296D01*
X752857Y112196D01*
X752857Y62717D01*
X752865Y62641D01*
X752864Y62565D01*
X752885Y62469D01*
X752897Y62371D01*
X752922Y62299D01*
X752939Y62224D01*
X752981Y62135D01*
X753014Y62043D01*
X753056Y61979D01*
X753088Y61910D01*
X753150Y61833D01*
X753203Y61750D01*
X753258Y61697D01*
X753306Y61637D01*
X753383Y61576D01*
X753454Y61508D01*
X753519Y61469D01*
X753579Y61421D01*
X753713Y61353D01*
X753753Y61329D01*
X753771Y61323D01*
X753797Y61310D01*
X755775Y60490D01*
X758990Y57275D01*
X760731Y53074D01*
X760731Y48526D01*
X758990Y44325D01*
X755775Y41110D01*
X753797Y40290D01*
X753730Y40253D01*
X753659Y40225D01*
X753579Y40169D01*
X753492Y40121D01*
X753436Y40069D01*
X753373Y40026D01*
X753307Y39953D01*
X753234Y39887D01*
X753191Y39824D01*
X753140Y39767D01*
X753092Y39681D01*
X753036Y39600D01*
X753008Y39529D01*
X752971Y39462D01*
X752944Y39367D01*
X752908Y39276D01*
X752897Y39200D01*
X752876Y39127D01*
X752864Y38978D01*
X752857Y38931D01*
X752859Y38912D01*
X752857Y38883D01*
X752857Y37317D01*
X752865Y37241D01*
X752864Y37165D01*
X752885Y37068D01*
X752897Y36971D01*
X752922Y36899D01*
X752939Y36824D01*
X752981Y36735D01*
X753014Y36643D01*
X753056Y36578D01*
X753088Y36510D01*
X753150Y36433D01*
X753203Y36350D01*
X753258Y36297D01*
X753306Y36237D01*
X753383Y36176D01*
X753454Y36108D01*
X753519Y36069D01*
X753579Y36021D01*
X753712Y35953D01*
X753753Y35929D01*
X753771Y35923D01*
X753797Y35910D01*
X755775Y35090D01*
X758990Y31875D01*
X760731Y27674D01*
X760731Y23126D01*
X758990Y18925D01*
X755775Y15710D01*
X751574Y13969D01*
X747026Y13969D01*
X742825Y15710D01*
X739610Y18925D01*
X738007Y22793D01*
X737959Y22881D01*
X737918Y22973D01*
X737874Y23033D01*
X737838Y23098D01*
X737771Y23172D01*
X737711Y23253D01*
X737654Y23301D01*
X737604Y23356D01*
X737521Y23413D01*
X737445Y23478D01*
X737378Y23512D01*
X737317Y23554D01*
X737224Y23591D01*
X737134Y23637D01*
X737062Y23655D01*
X736993Y23682D01*
X736894Y23696D01*
X736796Y23721D01*
X736722Y23722D01*
X736648Y23733D01*
X736548Y23724D01*
X736448Y23726D01*
X736375Y23710D01*
X736301Y23704D01*
X736205Y23673D01*
X736107Y23651D01*
X736040Y23620D01*
X735969Y23597D01*
X735883Y23545D01*
X735792Y23502D01*
X735734Y23455D01*
X735671Y23417D01*
X735599Y23347D01*
X735520Y23284D01*
X735474Y23226D01*
X735421Y23174D01*
X735366Y23090D01*
X735304Y23011D01*
X735258Y22921D01*
X735232Y22881D01*
X735220Y22847D01*
X735193Y22793D01*
X733590Y18925D01*
X730375Y15710D01*
X726174Y13969D01*
X721626Y13969D01*
X717425Y15710D01*
X714210Y18925D01*
X712607Y22793D01*
X712559Y22881D01*
X712518Y22973D01*
X712474Y23033D01*
X712438Y23098D01*
X712371Y23172D01*
X712311Y23253D01*
X712254Y23301D01*
X712204Y23356D01*
X712121Y23413D01*
X712045Y23478D01*
X711978Y23512D01*
X711917Y23554D01*
X711824Y23591D01*
X711734Y23637D01*
X711662Y23655D01*
X711593Y23682D01*
X711494Y23696D01*
X711396Y23721D01*
X711322Y23722D01*
X711248Y23733D01*
X711148Y23724D01*
X711048Y23726D01*
X710975Y23710D01*
X710901Y23704D01*
X710805Y23673D01*
X710707Y23651D01*
X710640Y23620D01*
X710569Y23597D01*
X710483Y23545D01*
X710392Y23502D01*
X710334Y23455D01*
X710271Y23417D01*
X710199Y23347D01*
X710120Y23284D01*
X710074Y23226D01*
X710021Y23174D01*
X709966Y23090D01*
X709904Y23011D01*
X709858Y22921D01*
X709832Y22881D01*
X709820Y22847D01*
X709793Y22793D01*
X708190Y18925D01*
X704975Y15710D01*
X700774Y13969D01*
X696226Y13969D01*
X692025Y15710D01*
X688810Y18925D01*
X687207Y22793D01*
X687159Y22881D01*
X687118Y22973D01*
X687074Y23033D01*
X687038Y23098D01*
X686971Y23172D01*
X686911Y23253D01*
X686854Y23301D01*
X686804Y23356D01*
X686721Y23413D01*
X686645Y23478D01*
X686578Y23512D01*
X686517Y23554D01*
X686424Y23591D01*
X686334Y23637D01*
X686262Y23655D01*
X686193Y23682D01*
X686094Y23696D01*
X685996Y23721D01*
X685922Y23722D01*
X685848Y23733D01*
X685748Y23724D01*
X685648Y23726D01*
X685575Y23710D01*
X685501Y23704D01*
X685405Y23673D01*
X685307Y23651D01*
X685240Y23620D01*
X685169Y23597D01*
X685083Y23545D01*
X684992Y23502D01*
X684934Y23455D01*
X684871Y23417D01*
X684799Y23347D01*
X684720Y23284D01*
X684674Y23226D01*
X684621Y23174D01*
X684566Y23090D01*
X684504Y23011D01*
X684458Y22921D01*
X684432Y22881D01*
X684420Y22847D01*
X684393Y22793D01*
X682790Y18925D01*
X679575Y15710D01*
X675374Y13969D01*
X670826Y13969D01*
X666625Y15710D01*
X663410Y18925D01*
X661807Y22793D01*
X661759Y22881D01*
X661719Y22973D01*
X661674Y23033D01*
X661638Y23098D01*
X661570Y23172D01*
X661511Y23253D01*
X661454Y23301D01*
X661404Y23356D01*
X661321Y23413D01*
X661245Y23478D01*
X661178Y23512D01*
X661117Y23554D01*
X661024Y23591D01*
X660934Y23637D01*
X660862Y23655D01*
X660793Y23682D01*
X660694Y23696D01*
X660596Y23721D01*
X660522Y23722D01*
X660448Y23733D01*
X660348Y23724D01*
X660248Y23726D01*
X660175Y23710D01*
X660101Y23704D01*
X660005Y23673D01*
X659907Y23651D01*
X659840Y23620D01*
X659769Y23597D01*
X659683Y23545D01*
X659592Y23502D01*
X659534Y23455D01*
X659471Y23417D01*
X659398Y23347D01*
X659320Y23284D01*
X659274Y23226D01*
X659221Y23174D01*
X659166Y23090D01*
X659104Y23011D01*
X659058Y22921D01*
X659032Y22881D01*
X659020Y22847D01*
X658993Y22793D01*
X657390Y18925D01*
X654175Y15710D01*
X649974Y13969D01*
X645426Y13969D01*
X641225Y15710D01*
X638010Y18925D01*
X636407Y22793D01*
X636359Y22881D01*
X636318Y22973D01*
X636274Y23033D01*
X636238Y23098D01*
X636171Y23172D01*
X636111Y23253D01*
X636054Y23301D01*
X636004Y23356D01*
X635921Y23413D01*
X635845Y23478D01*
X635778Y23512D01*
X635717Y23554D01*
X635624Y23591D01*
X635534Y23637D01*
X635462Y23654D01*
X635393Y23682D01*
X635293Y23696D01*
X635196Y23721D01*
X635122Y23722D01*
X635048Y23733D01*
X634948Y23724D01*
X634848Y23726D01*
X634775Y23710D01*
X634701Y23704D01*
X634605Y23673D01*
X634507Y23651D01*
X634440Y23619D01*
X634369Y23597D01*
X634283Y23545D01*
X634192Y23502D01*
X634134Y23455D01*
X634071Y23417D01*
X633999Y23347D01*
X633920Y23284D01*
X633874Y23226D01*
X633821Y23174D01*
X633766Y23090D01*
X633704Y23011D01*
X633658Y22921D01*
X633632Y22881D01*
X633620Y22847D01*
X633593Y22793D01*
X631990Y18925D01*
X628775Y15710D01*
X624574Y13969D01*
X620026Y13969D01*
G37*
%LPD*%
%LPC*%
G36*
X772679Y205739D02*
X772679Y205739D01*
X768944Y207286D01*
X766086Y210144D01*
X764539Y213879D01*
X764539Y217921D01*
X765271Y219688D01*
X765292Y219761D01*
X765322Y219831D01*
X765340Y219928D01*
X765367Y220023D01*
X765370Y220099D01*
X765384Y220174D01*
X765379Y220273D01*
X765384Y220371D01*
X765370Y220446D01*
X765366Y220522D01*
X765339Y220617D01*
X765321Y220714D01*
X765291Y220784D01*
X765269Y220857D01*
X765221Y220943D01*
X765182Y221033D01*
X765137Y221095D01*
X765099Y221161D01*
X765003Y221275D01*
X764974Y221313D01*
X764960Y221325D01*
X764941Y221348D01*
X674527Y311762D01*
X674467Y311809D01*
X674414Y311864D01*
X674331Y311917D01*
X674254Y311978D01*
X674185Y312011D01*
X674120Y312052D01*
X674028Y312085D01*
X673939Y312127D01*
X673864Y312143D01*
X673792Y312169D01*
X673694Y312180D01*
X673598Y312201D01*
X673522Y312199D01*
X673446Y312208D01*
X673348Y312196D01*
X673250Y312195D01*
X673175Y312176D01*
X673100Y312167D01*
X672958Y312121D01*
X672912Y312110D01*
X672894Y312101D01*
X672867Y312092D01*
X671818Y311657D01*
X667270Y311657D01*
X663069Y313398D01*
X659854Y316613D01*
X658113Y320814D01*
X658113Y325362D01*
X659854Y329563D01*
X663069Y332778D01*
X667270Y334519D01*
X671818Y334519D01*
X676019Y332778D01*
X679234Y329563D01*
X680975Y325362D01*
X680975Y320814D01*
X679350Y316892D01*
X679329Y316818D01*
X679299Y316748D01*
X679283Y316660D01*
X679272Y316625D01*
X679271Y316615D01*
X679254Y316556D01*
X679250Y316480D01*
X679237Y316405D01*
X679242Y316306D01*
X679237Y316208D01*
X679251Y316133D01*
X679255Y316057D01*
X679282Y315962D01*
X679300Y315865D01*
X679330Y315795D01*
X679351Y315722D01*
X679399Y315636D01*
X679439Y315546D01*
X679484Y315484D01*
X679522Y315418D01*
X679618Y315304D01*
X679647Y315266D01*
X679661Y315254D01*
X679680Y315231D01*
X769252Y225659D01*
X769312Y225612D01*
X769365Y225557D01*
X769448Y225504D01*
X769525Y225443D01*
X769594Y225410D01*
X769659Y225369D01*
X769751Y225336D01*
X769840Y225294D01*
X769915Y225278D01*
X769987Y225252D01*
X770085Y225241D01*
X770181Y225220D01*
X770257Y225222D01*
X770334Y225213D01*
X770431Y225225D01*
X770530Y225226D01*
X770604Y225245D01*
X770680Y225254D01*
X770822Y225300D01*
X770868Y225311D01*
X770885Y225320D01*
X770912Y225329D01*
X772679Y226061D01*
X776721Y226061D01*
X780456Y224514D01*
X783314Y221656D01*
X784861Y217921D01*
X784861Y213879D01*
X783314Y210144D01*
X780456Y207286D01*
X776721Y205739D01*
X772679Y205739D01*
G37*
%LPD*%
%LPC*%
G36*
X694812Y425959D02*
X694812Y425959D01*
X687997Y428782D01*
X682782Y433997D01*
X679959Y440812D01*
X679959Y448188D01*
X682782Y455003D01*
X687997Y460218D01*
X694812Y463041D01*
X702188Y463041D01*
X709003Y460218D01*
X714218Y455003D01*
X717041Y448188D01*
X717041Y440812D01*
X714218Y433997D01*
X709003Y428782D01*
X702188Y425959D01*
X694812Y425959D01*
G37*
%LPD*%
%LPC*%
G36*
X771012Y57659D02*
X771012Y57659D01*
X764197Y60482D01*
X758982Y65697D01*
X756159Y72512D01*
X756159Y79888D01*
X758982Y86703D01*
X764197Y91918D01*
X771012Y94741D01*
X778388Y94741D01*
X785203Y91918D01*
X790418Y86703D01*
X793241Y79888D01*
X793241Y72512D01*
X790418Y65697D01*
X785203Y60482D01*
X778388Y57659D01*
X771012Y57659D01*
G37*
%LPD*%
%LPC*%
G36*
X85525Y135811D02*
X85525Y135811D01*
X81636Y137422D01*
X78660Y140398D01*
X77049Y144287D01*
X77049Y165593D01*
X78660Y169482D01*
X81636Y172458D01*
X85525Y174069D01*
X89735Y174069D01*
X93624Y172458D01*
X96600Y169482D01*
X98211Y165593D01*
X98211Y144287D01*
X96600Y140398D01*
X93624Y137422D01*
X89735Y135811D01*
X85525Y135811D01*
G37*
%LPD*%
%LPC*%
G36*
X34725Y135811D02*
X34725Y135811D01*
X30836Y137422D01*
X27860Y140398D01*
X26249Y144287D01*
X26249Y165593D01*
X27860Y169482D01*
X30836Y172458D01*
X34725Y174069D01*
X38935Y174069D01*
X42824Y172458D01*
X45800Y169482D01*
X47411Y165593D01*
X47411Y144287D01*
X45800Y140398D01*
X42824Y137422D01*
X38935Y135811D01*
X34725Y135811D01*
G37*
%LPD*%
%LPC*%
G36*
X60125Y135811D02*
X60125Y135811D01*
X56236Y137422D01*
X53260Y140398D01*
X51649Y144287D01*
X51649Y165593D01*
X53260Y169482D01*
X56236Y172458D01*
X60125Y174069D01*
X64335Y174069D01*
X68224Y172458D01*
X71200Y169482D01*
X72811Y165593D01*
X72811Y144287D01*
X71200Y140398D01*
X68224Y137422D01*
X64335Y135811D01*
X60125Y135811D01*
G37*
%LPD*%
%LPC*%
G36*
X712482Y376681D02*
X712482Y376681D01*
X708281Y378422D01*
X705066Y381637D01*
X703325Y385838D01*
X703325Y390386D01*
X705066Y394587D01*
X708281Y397802D01*
X712482Y399543D01*
X717030Y399543D01*
X721231Y397802D01*
X724446Y394587D01*
X726187Y390386D01*
X726187Y385838D01*
X724446Y381637D01*
X721231Y378422D01*
X717030Y376681D01*
X712482Y376681D01*
G37*
%LPD*%
%LPC*%
G36*
X667270Y376681D02*
X667270Y376681D01*
X663069Y378422D01*
X659854Y381637D01*
X658113Y385838D01*
X658113Y390386D01*
X659854Y394587D01*
X663069Y397802D01*
X667270Y399543D01*
X671818Y399543D01*
X676019Y397802D01*
X679234Y394587D01*
X680975Y390386D01*
X680975Y385838D01*
X679234Y381637D01*
X676019Y378422D01*
X671818Y376681D01*
X667270Y376681D01*
G37*
%LPD*%
%LPC*%
G36*
X459739Y27939D02*
X459739Y27939D01*
X459739Y48261D01*
X480061Y48261D01*
X480061Y27939D01*
X459739Y27939D01*
G37*
%LPD*%
%LPC*%
G36*
X620279Y205739D02*
X620279Y205739D01*
X616544Y207286D01*
X613686Y210144D01*
X612139Y213879D01*
X612139Y217921D01*
X613686Y221656D01*
X616544Y224514D01*
X620279Y226061D01*
X624321Y226061D01*
X628056Y224514D01*
X630914Y221656D01*
X632461Y217921D01*
X632461Y213879D01*
X630914Y210144D01*
X628056Y207286D01*
X624321Y205739D01*
X620279Y205739D01*
G37*
%LPD*%
%LPC*%
G36*
X569479Y129539D02*
X569479Y129539D01*
X565744Y131086D01*
X562886Y133944D01*
X561339Y137679D01*
X561339Y141721D01*
X562886Y145456D01*
X565744Y148314D01*
X569479Y149861D01*
X573521Y149861D01*
X577256Y148314D01*
X580114Y145456D01*
X581661Y141721D01*
X581661Y137679D01*
X580114Y133944D01*
X577256Y131086D01*
X573521Y129539D01*
X569479Y129539D01*
G37*
%LPD*%
%LPC*%
G36*
X594879Y129539D02*
X594879Y129539D01*
X591144Y131086D01*
X588286Y133944D01*
X586739Y137679D01*
X586739Y141721D01*
X588286Y145456D01*
X591144Y148314D01*
X594879Y149861D01*
X598921Y149861D01*
X602656Y148314D01*
X605514Y145456D01*
X607061Y141721D01*
X607061Y137679D01*
X605514Y133944D01*
X602656Y131086D01*
X598921Y129539D01*
X594879Y129539D01*
G37*
%LPD*%
%LPC*%
G36*
X569479Y205739D02*
X569479Y205739D01*
X565744Y207286D01*
X562886Y210144D01*
X561339Y213879D01*
X561339Y217921D01*
X562886Y221656D01*
X565744Y224514D01*
X569479Y226061D01*
X573521Y226061D01*
X577256Y224514D01*
X580114Y221656D01*
X581661Y217921D01*
X581661Y213879D01*
X580114Y210144D01*
X577256Y207286D01*
X573521Y205739D01*
X569479Y205739D01*
G37*
%LPD*%
%LPC*%
G36*
X544079Y205739D02*
X544079Y205739D01*
X540344Y207286D01*
X537486Y210144D01*
X535939Y213879D01*
X535939Y217921D01*
X537486Y221656D01*
X540344Y224514D01*
X544079Y226061D01*
X548121Y226061D01*
X551856Y224514D01*
X554714Y221656D01*
X556261Y217921D01*
X556261Y213879D01*
X554714Y210144D01*
X551856Y207286D01*
X548121Y205739D01*
X544079Y205739D01*
G37*
%LPD*%
%LPC*%
G36*
X80047Y79247D02*
X80047Y79247D01*
X80047Y100140D01*
X81049Y100027D01*
X83691Y99424D01*
X86249Y98529D01*
X88691Y97353D01*
X90986Y95911D01*
X93105Y94221D01*
X95021Y92305D01*
X96711Y90186D01*
X98153Y87891D01*
X99329Y85449D01*
X100224Y82891D01*
X100827Y80249D01*
X100940Y79247D01*
X80047Y79247D01*
G37*
%LPD*%
%LPC*%
G36*
X53060Y79247D02*
X53060Y79247D01*
X53173Y80248D01*
X53776Y82891D01*
X54671Y85449D01*
X55847Y87891D01*
X57289Y90186D01*
X58979Y92305D01*
X60895Y94221D01*
X63014Y95911D01*
X65309Y97353D01*
X67751Y98529D01*
X70309Y99424D01*
X72951Y100027D01*
X73953Y100140D01*
X73953Y79247D01*
X53060Y79247D01*
G37*
%LPD*%
%LPC*%
G36*
X80047Y73153D02*
X80047Y73153D01*
X100940Y73153D01*
X100827Y72151D01*
X100224Y69509D01*
X99329Y66951D01*
X98153Y64509D01*
X96711Y62214D01*
X95021Y60095D01*
X93105Y58179D01*
X90986Y56489D01*
X88691Y55047D01*
X86249Y53871D01*
X83691Y52976D01*
X81048Y52373D01*
X80047Y52260D01*
X80047Y73153D01*
G37*
%LPD*%
%LPC*%
G36*
X83060Y32247D02*
X83060Y32247D01*
X83173Y33248D01*
X83776Y35891D01*
X84671Y38449D01*
X85847Y40891D01*
X87289Y43186D01*
X88979Y45305D01*
X90895Y47221D01*
X93014Y48911D01*
X95309Y50353D01*
X97751Y51529D01*
X100309Y52424D01*
X102951Y53027D01*
X103953Y53140D01*
X103953Y32247D01*
X83060Y32247D01*
G37*
%LPD*%
%LPC*%
G36*
X72952Y52373D02*
X72952Y52373D01*
X70309Y52976D01*
X67751Y53871D01*
X65309Y55047D01*
X63014Y56489D01*
X60895Y58179D01*
X58979Y60095D01*
X57289Y62214D01*
X55847Y64509D01*
X54671Y66951D01*
X53776Y69509D01*
X53173Y72152D01*
X53060Y73153D01*
X73953Y73153D01*
X73953Y52260D01*
X72952Y52373D01*
G37*
%LPD*%
%LPC*%
G36*
X109247Y424306D02*
X109247Y424306D01*
X109247Y440201D01*
X109949Y440109D01*
X112378Y439458D01*
X114700Y438496D01*
X116878Y437239D01*
X118872Y435709D01*
X120650Y433931D01*
X122180Y431937D01*
X123437Y429759D01*
X124399Y427437D01*
X125050Y425008D01*
X125142Y424306D01*
X109247Y424306D01*
G37*
%LPD*%
%LPC*%
G36*
X109247Y292988D02*
X109247Y292988D01*
X109247Y308883D01*
X109949Y308791D01*
X112378Y308140D01*
X114700Y307178D01*
X116878Y305921D01*
X118872Y304391D01*
X120650Y302613D01*
X122180Y300619D01*
X123437Y298441D01*
X124399Y296119D01*
X125050Y293690D01*
X125142Y292988D01*
X109247Y292988D01*
G37*
%LPD*%
%LPC*%
G36*
X87258Y292988D02*
X87258Y292988D01*
X87350Y293690D01*
X88001Y296119D01*
X88963Y298441D01*
X90220Y300619D01*
X91046Y301695D01*
X91750Y302613D01*
X93528Y304391D01*
X95522Y305921D01*
X97700Y307178D01*
X100022Y308140D01*
X102451Y308791D01*
X103153Y308883D01*
X103153Y292988D01*
X87258Y292988D01*
G37*
%LPD*%
%LPC*%
G36*
X87258Y424306D02*
X87258Y424306D01*
X87350Y425008D01*
X88001Y427437D01*
X88963Y429759D01*
X90220Y431937D01*
X90801Y432694D01*
X90802Y432694D01*
X90802Y432695D01*
X91750Y433931D01*
X93528Y435709D01*
X95522Y437239D01*
X97700Y438496D01*
X100022Y439458D01*
X102451Y440109D01*
X103153Y440201D01*
X103153Y424306D01*
X87258Y424306D01*
G37*
%LPD*%
%LPC*%
G36*
X109247Y286894D02*
X109247Y286894D01*
X125142Y286894D01*
X125050Y286192D01*
X124399Y283763D01*
X123437Y281441D01*
X122180Y279263D01*
X122112Y279175D01*
X120944Y277652D01*
X120943Y277652D01*
X120650Y277269D01*
X118872Y275491D01*
X116878Y273961D01*
X114700Y272704D01*
X112378Y271742D01*
X109949Y271091D01*
X109247Y270999D01*
X109247Y286894D01*
G37*
%LPD*%
%LPC*%
G36*
X109247Y418212D02*
X109247Y418212D01*
X125142Y418212D01*
X125050Y417510D01*
X124399Y415081D01*
X123437Y412759D01*
X122180Y410581D01*
X121868Y410175D01*
X121868Y410174D01*
X120699Y408652D01*
X120699Y408651D01*
X120650Y408587D01*
X118872Y406809D01*
X116878Y405279D01*
X114700Y404022D01*
X112378Y403060D01*
X109949Y402409D01*
X109247Y402317D01*
X109247Y418212D01*
G37*
%LPD*%
%LPC*%
G36*
X102451Y402409D02*
X102451Y402409D01*
X100022Y403060D01*
X97700Y404022D01*
X95522Y405279D01*
X93528Y406809D01*
X91750Y408587D01*
X90220Y410581D01*
X88963Y412759D01*
X88001Y415081D01*
X87350Y417510D01*
X87258Y418212D01*
X103153Y418212D01*
X103153Y402317D01*
X102451Y402409D01*
G37*
%LPD*%
%LPC*%
G36*
X102451Y271091D02*
X102451Y271091D01*
X100022Y271742D01*
X97700Y272704D01*
X95522Y273961D01*
X93528Y275491D01*
X91750Y277269D01*
X90220Y279263D01*
X88963Y281441D01*
X88001Y283763D01*
X87350Y286192D01*
X87258Y286894D01*
X103153Y286894D01*
X103153Y270999D01*
X102451Y271091D01*
G37*
%LPD*%
%LPC*%
G36*
X459739Y53339D02*
X459739Y53339D01*
X459739Y62485D01*
X459996Y62445D01*
X461783Y61864D01*
X463457Y61011D01*
X464978Y59906D01*
X466306Y58578D01*
X467411Y57057D01*
X468264Y55383D01*
X468451Y54807D01*
X468470Y54765D01*
X468482Y54721D01*
X468542Y54607D01*
X468596Y54490D01*
X468624Y54454D01*
X468645Y54413D01*
X468730Y54316D01*
X468809Y54214D01*
X468845Y54185D01*
X468875Y54151D01*
X468979Y54075D01*
X469080Y53994D01*
X469120Y53974D01*
X469157Y53947D01*
X469277Y53898D01*
X469393Y53841D01*
X469437Y53831D01*
X469479Y53813D01*
X469607Y53792D01*
X469733Y53763D01*
X469778Y53763D01*
X469823Y53756D01*
X469952Y53764D01*
X470081Y53765D01*
X470125Y53775D01*
X470171Y53778D01*
X470294Y53816D01*
X470420Y53846D01*
X470461Y53866D01*
X470504Y53879D01*
X470616Y53944D01*
X470732Y54001D01*
X470767Y54030D01*
X470806Y54053D01*
X470901Y54141D01*
X471000Y54224D01*
X471028Y54260D01*
X471061Y54291D01*
X471133Y54398D01*
X471211Y54501D01*
X471229Y54543D01*
X471255Y54581D01*
X471349Y54807D01*
X471536Y55383D01*
X472389Y57057D01*
X473494Y58578D01*
X474822Y59906D01*
X476343Y61011D01*
X478017Y61864D01*
X479804Y62445D01*
X480061Y62485D01*
X480061Y53339D01*
X459739Y53339D01*
G37*
%LPD*%
%LPC*%
G36*
X717295Y325627D02*
X717295Y325627D01*
X717295Y334773D01*
X717552Y334733D01*
X719339Y334152D01*
X721013Y333299D01*
X722534Y332194D01*
X723862Y330866D01*
X724967Y329345D01*
X725820Y327671D01*
X726401Y325884D01*
X726441Y325627D01*
X717295Y325627D01*
G37*
%LPD*%
%LPC*%
G36*
X717295Y320549D02*
X717295Y320549D01*
X726441Y320549D01*
X726401Y320292D01*
X725820Y318505D01*
X724967Y316831D01*
X723862Y315310D01*
X722534Y313982D01*
X721013Y312877D01*
X719339Y312024D01*
X717552Y311443D01*
X717295Y311403D01*
X717295Y320549D01*
G37*
%LPD*%
%LPC*%
G36*
X703071Y325627D02*
X703071Y325627D01*
X703111Y325884D01*
X703692Y327671D01*
X704545Y329345D01*
X705650Y330866D01*
X706978Y332194D01*
X708499Y333299D01*
X710173Y334152D01*
X711960Y334733D01*
X712217Y334773D01*
X712217Y325627D01*
X703071Y325627D01*
G37*
%LPD*%
%LPC*%
G36*
X711960Y311443D02*
X711960Y311443D01*
X710173Y312024D01*
X708499Y312877D01*
X706978Y313982D01*
X705650Y315310D01*
X704545Y316831D01*
X703692Y318505D01*
X703111Y320292D01*
X703071Y320549D01*
X712217Y320549D01*
X712217Y311403D01*
X711960Y311443D01*
G37*
%LPD*%
%LPC*%
G36*
X598931Y217931D02*
X598931Y217931D01*
X598931Y226380D01*
X599398Y226306D01*
X600995Y225787D01*
X602492Y225025D01*
X603850Y224038D01*
X605038Y222850D01*
X606025Y221492D01*
X606787Y219995D01*
X607306Y218398D01*
X607380Y217931D01*
X598931Y217931D01*
G37*
%LPD*%
%LPC*%
G36*
X624331Y141731D02*
X624331Y141731D01*
X624331Y150180D01*
X624798Y150106D01*
X626395Y149587D01*
X627892Y148825D01*
X629250Y147838D01*
X630438Y146650D01*
X631425Y145292D01*
X632187Y143795D01*
X632706Y142198D01*
X632780Y141731D01*
X624331Y141731D01*
G37*
%LPD*%
%LPC*%
G36*
X586420Y217931D02*
X586420Y217931D01*
X586494Y218398D01*
X587013Y219995D01*
X587775Y221492D01*
X588762Y222850D01*
X589950Y224038D01*
X591308Y225025D01*
X592805Y225787D01*
X594402Y226306D01*
X594869Y226380D01*
X594869Y217931D01*
X586420Y217931D01*
G37*
%LPD*%
%LPC*%
G36*
X624331Y137669D02*
X624331Y137669D01*
X632780Y137669D01*
X632706Y137202D01*
X632187Y135605D01*
X631425Y134108D01*
X630438Y132750D01*
X629250Y131562D01*
X627892Y130575D01*
X626395Y129813D01*
X624798Y129294D01*
X624331Y129220D01*
X624331Y137669D01*
G37*
%LPD*%
%LPC*%
G36*
X598931Y213869D02*
X598931Y213869D01*
X607380Y213869D01*
X607306Y213402D01*
X606787Y211805D01*
X606025Y210308D01*
X605038Y208950D01*
X603850Y207762D01*
X602492Y206775D01*
X600995Y206013D01*
X599398Y205494D01*
X598931Y205420D01*
X598931Y213869D01*
G37*
%LPD*%
%LPC*%
G36*
X611820Y141731D02*
X611820Y141731D01*
X611894Y142198D01*
X612413Y143795D01*
X613175Y145292D01*
X614162Y146650D01*
X615350Y147838D01*
X616708Y148825D01*
X618205Y149587D01*
X619802Y150106D01*
X620269Y150180D01*
X620269Y141731D01*
X611820Y141731D01*
G37*
%LPD*%
%LPC*%
G36*
X594402Y205494D02*
X594402Y205494D01*
X592805Y206013D01*
X591308Y206775D01*
X589950Y207762D01*
X588762Y208950D01*
X587775Y210308D01*
X587013Y211805D01*
X586494Y213402D01*
X586420Y213869D01*
X594869Y213869D01*
X594869Y205420D01*
X594402Y205494D01*
G37*
%LPD*%
%LPC*%
G36*
X619802Y129294D02*
X619802Y129294D01*
X618205Y129813D01*
X616708Y130575D01*
X615350Y131562D01*
X614162Y132750D01*
X613175Y134108D01*
X612413Y135605D01*
X611894Y137202D01*
X611820Y137669D01*
X620269Y137669D01*
X620269Y129220D01*
X619802Y129294D01*
G37*
%LPD*%
%LPC*%
G36*
X106199Y421258D02*
X106199Y421258D01*
X106199Y421260D01*
X106201Y421260D01*
X106201Y421258D01*
X106199Y421258D01*
G37*
%LPD*%
%LPC*%
G36*
X106199Y289940D02*
X106199Y289940D01*
X106199Y289942D01*
X106201Y289942D01*
X106201Y289940D01*
X106199Y289940D01*
G37*
%LPD*%
%LPC*%
G36*
X76999Y76199D02*
X76999Y76199D01*
X76999Y76201D01*
X77001Y76201D01*
X77001Y76199D01*
X76999Y76199D01*
G37*
%LPD*%
D10*
X106200Y289941D03*
X106200Y421259D03*
D11*
X647700Y425450D03*
X622300Y425450D03*
X596900Y425450D03*
X571500Y425450D03*
X546100Y425450D03*
X520700Y425450D03*
X495300Y425450D03*
X469900Y425450D03*
X444500Y425450D03*
X419100Y425450D03*
X393700Y425450D03*
X368300Y425450D03*
X342900Y425450D03*
X317500Y425450D03*
X292100Y425450D03*
X266700Y425450D03*
X622300Y50800D03*
X647700Y50800D03*
X673100Y50800D03*
X698500Y50800D03*
X723900Y50800D03*
X749300Y50800D03*
X622300Y25400D03*
X647700Y25400D03*
X673100Y25400D03*
X698500Y25400D03*
X723900Y25400D03*
X749300Y25400D03*
X647700Y450850D03*
X622300Y450850D03*
X596900Y450850D03*
X571500Y450850D03*
X546100Y450850D03*
X520700Y450850D03*
X495300Y450850D03*
X469900Y450850D03*
X444500Y450850D03*
X419100Y450850D03*
X393700Y450850D03*
X368300Y450850D03*
X342900Y450850D03*
X317500Y450850D03*
X292100Y450850D03*
X266700Y450850D03*
X431800Y50800D03*
X457200Y50800D03*
X482600Y50800D03*
X508000Y50800D03*
X533400Y50800D03*
X558800Y50800D03*
X584200Y50800D03*
X431800Y25400D03*
X457200Y25400D03*
X482600Y25400D03*
X508000Y25400D03*
X533400Y25400D03*
X558800Y25400D03*
X584200Y25400D03*
D12*
X137000Y76200D03*
X77000Y76200D03*
X107000Y29200D03*
D13*
X36830Y146392D02*
X36830Y163488D01*
X62230Y163488D02*
X62230Y146392D01*
X87630Y146392D02*
X87630Y163488D01*
D14*
X774700Y215900D03*
X749300Y215900D03*
X723900Y215900D03*
X698500Y215900D03*
X673100Y215900D03*
X647700Y215900D03*
X622300Y215900D03*
X596900Y215900D03*
X571500Y215900D03*
X546100Y215900D03*
X520700Y215900D03*
X495300Y215900D03*
X469900Y215900D03*
X444500Y215900D03*
X444500Y139700D03*
X469900Y139700D03*
X495300Y139700D03*
X520700Y139700D03*
X546100Y139700D03*
X571500Y139700D03*
X596900Y139700D03*
X622300Y139700D03*
X647700Y139700D03*
X673100Y139700D03*
X698500Y139700D03*
X723900Y139700D03*
X749300Y139700D03*
X774700Y139700D03*
D11*
X669544Y323088D03*
X669544Y388112D03*
X714756Y323088D03*
X714756Y388112D03*
D15*
X508000Y50800D02*
X508000Y25400D01*
X508000Y50800D02*
X476250Y82550D01*
X279400Y209550D02*
X133350Y209550D01*
D16*
X133350Y209550D03*
D15*
X406400Y82550D02*
X476250Y82550D01*
X406400Y82550D02*
X279400Y209550D01*
D17*
X647700Y425450D02*
X647700Y450850D01*
X749300Y215900D02*
X711200Y177800D01*
X444500Y177800D01*
D16*
X444500Y177800D03*
X381000Y228600D03*
D17*
X165100Y228600D02*
X152400Y241300D01*
D16*
X152400Y241300D03*
D17*
X165100Y228600D02*
X381000Y228600D01*
X647700Y317500D02*
X749300Y215900D01*
X647700Y317500D02*
X647700Y425450D01*
X622300Y425450D02*
X622300Y450850D01*
X723900Y215900D02*
X698500Y190500D01*
X444500Y190500D01*
D16*
X444500Y190500D03*
D17*
X622300Y317500D02*
X723900Y215900D01*
X622300Y317500D02*
X622300Y425450D01*
D18*
X669544Y321056D02*
X774700Y215900D01*
X669544Y321056D02*
X669544Y323088D01*
D17*
X266700Y425450D02*
X266700Y450850D01*
D16*
X584200Y95250D03*
D17*
X412750Y95250D01*
X393700Y114300D01*
X393700Y298450D02*
X266700Y425450D01*
X393700Y298450D02*
X393700Y114300D01*
X622300Y50800D02*
X622300Y25400D01*
X622300Y50800D02*
X622300Y114300D01*
X647700Y139700D01*
X647700Y50800D02*
X647700Y25400D01*
X647700Y50800D02*
X647700Y114300D01*
X673100Y139700D01*
X673100Y50800D02*
X673100Y25400D01*
X673100Y50800D02*
X673100Y114300D01*
X698500Y139700D01*
X698500Y50800D02*
X698500Y25400D01*
X698500Y114300D02*
X723900Y139700D01*
X698500Y114300D02*
X698500Y50800D01*
X749300Y114300D02*
X774700Y139700D01*
X749300Y114300D02*
X749300Y50800D01*
X749300Y25400D01*
X698500Y215900D02*
X596900Y317500D01*
X596900Y425450D01*
X596900Y450850D01*
X546100Y425450D02*
X546100Y317500D01*
X647700Y215900D01*
X546100Y425450D02*
X546100Y450850D01*
X571500Y450850D02*
X571500Y425450D01*
X571500Y317500D01*
X673100Y215900D01*
X520700Y425450D02*
X520700Y450850D01*
X520700Y425450D02*
X520700Y215900D01*
X495300Y425450D02*
X495300Y450850D01*
X495300Y425450D02*
X495300Y215900D01*
X469900Y425450D02*
X469900Y450850D01*
X469900Y425450D02*
X469900Y215900D01*
X444500Y425450D02*
X444500Y450850D01*
X444500Y425450D02*
X444500Y215900D01*
X419100Y425450D02*
X419100Y450850D01*
X425450Y158750D02*
X444500Y139700D01*
X425450Y419100D02*
X419100Y425450D01*
X425450Y419100D02*
X425450Y158750D01*
X393700Y425450D02*
X393700Y450850D01*
X393700Y425450D02*
X419100Y400050D01*
X419100Y139700D01*
X438150Y120650D01*
X469900Y133350D02*
X469900Y139700D01*
X469900Y133350D02*
X457200Y120650D01*
X438150Y120650D01*
X368300Y425450D02*
X368300Y450850D01*
X495300Y139700D02*
X469900Y114300D01*
X431800Y114300D01*
X412750Y133350D01*
X412750Y381000D02*
X368300Y425450D01*
X412750Y381000D02*
X412750Y133350D01*
X342900Y425450D02*
X342900Y450850D01*
X520700Y139700D02*
X488950Y107950D01*
X425450Y107950D01*
X406400Y127000D01*
X406400Y361950D02*
X342900Y425450D01*
X406400Y361950D02*
X406400Y127000D01*
X317500Y425450D02*
X317500Y450850D01*
X546100Y139700D02*
X508000Y101600D01*
X419100Y101600D02*
X400050Y120650D01*
X400050Y342900D02*
X317500Y425450D01*
X400050Y342900D02*
X400050Y120650D01*
X419100Y101600D02*
X508000Y101600D01*
X723900Y50800D02*
X723900Y25400D01*
X723900Y114300D02*
X749300Y139700D01*
X723900Y114300D02*
X723900Y50800D01*
D19*
X137000Y40800D02*
X137000Y76200D01*
X171196Y6604D02*
X571500Y6604D01*
X584200Y19304D01*
X584200Y25400D01*
X171196Y6604D02*
X137000Y40800D01*
X584200Y50800D02*
X584200Y25400D01*
M02*
