G04 EAGLE Gerber RS-274X export*
G75*
%MOMM*%
%FSLAX34Y34*%
%LPD*%
%IN*%
%IPPOS*%
%AMOC8*
5,1,8,0,0,1.08239X$1,22.5*%
G01*
%ADD10C,0.254000*%


D10*
X0Y12700D02*
X48Y11593D01*
X193Y10495D01*
X433Y9413D01*
X766Y8356D01*
X1190Y7333D01*
X1701Y6350D01*
X2297Y5416D01*
X2971Y4537D01*
X3720Y3720D01*
X4537Y2971D01*
X5416Y2297D01*
X6350Y1701D01*
X7333Y1190D01*
X8356Y766D01*
X9413Y433D01*
X10495Y193D01*
X11593Y48D01*
X12700Y0D01*
X799900Y0D01*
X801007Y48D01*
X802105Y193D01*
X803187Y433D01*
X804244Y766D01*
X805267Y1190D01*
X806250Y1701D01*
X807184Y2297D01*
X808063Y2971D01*
X808880Y3720D01*
X809629Y4537D01*
X810303Y5416D01*
X810899Y6350D01*
X811410Y7333D01*
X811834Y8356D01*
X812167Y9413D01*
X812407Y10495D01*
X812552Y11593D01*
X812600Y12700D01*
X812600Y466600D01*
X812552Y467707D01*
X812407Y468805D01*
X812167Y469887D01*
X811834Y470944D01*
X811410Y471967D01*
X810899Y472950D01*
X810303Y473884D01*
X809629Y474763D01*
X808880Y475580D01*
X808063Y476329D01*
X807184Y477003D01*
X806250Y477599D01*
X805267Y478110D01*
X804244Y478534D01*
X803187Y478867D01*
X802105Y479107D01*
X801007Y479252D01*
X799900Y479300D01*
X12700Y479300D01*
X11593Y479252D01*
X10495Y479107D01*
X9413Y478867D01*
X8356Y478534D01*
X7333Y478110D01*
X6350Y477599D01*
X5416Y477003D01*
X4537Y476329D01*
X3720Y475580D01*
X2971Y474763D01*
X2297Y473884D01*
X1701Y472950D01*
X1190Y471967D01*
X766Y470944D01*
X433Y469887D01*
X193Y468805D01*
X48Y467707D01*
X0Y466600D01*
X0Y12700D01*
X54100Y456676D02*
X54032Y455631D01*
X53895Y454592D01*
X53690Y453565D01*
X53419Y452553D01*
X53083Y451561D01*
X52682Y450593D01*
X52218Y449654D01*
X51695Y448746D01*
X51113Y447875D01*
X50475Y447044D01*
X49784Y446257D01*
X49043Y445516D01*
X48256Y444825D01*
X47425Y444188D01*
X46554Y443606D01*
X45646Y443082D01*
X44707Y442618D01*
X43739Y442217D01*
X42747Y441881D01*
X41735Y441610D01*
X40708Y441405D01*
X39669Y441269D01*
X38624Y441200D01*
X37576Y441200D01*
X36531Y441269D01*
X35492Y441405D01*
X34465Y441610D01*
X33453Y441881D01*
X32461Y442217D01*
X31493Y442618D01*
X30554Y443082D01*
X29646Y443606D01*
X28775Y444188D01*
X27944Y444825D01*
X27157Y445516D01*
X26416Y446257D01*
X25725Y447044D01*
X25088Y447875D01*
X24506Y448746D01*
X23982Y449654D01*
X23518Y450593D01*
X23117Y451561D01*
X22781Y452553D01*
X22510Y453565D01*
X22305Y454592D01*
X22169Y455631D01*
X22100Y456676D01*
X22100Y457724D01*
X22169Y458769D01*
X22305Y459808D01*
X22510Y460835D01*
X22781Y461847D01*
X23117Y462839D01*
X23518Y463807D01*
X23982Y464746D01*
X24506Y465654D01*
X25088Y466525D01*
X25725Y467356D01*
X26416Y468143D01*
X27157Y468884D01*
X27944Y469575D01*
X28775Y470213D01*
X29646Y470795D01*
X30554Y471318D01*
X31493Y471782D01*
X32461Y472183D01*
X33453Y472519D01*
X34465Y472790D01*
X35492Y472995D01*
X36531Y473132D01*
X37576Y473200D01*
X38624Y473200D01*
X39669Y473132D01*
X40708Y472995D01*
X41735Y472790D01*
X42747Y472519D01*
X43739Y472183D01*
X44707Y471782D01*
X45646Y471318D01*
X46554Y470795D01*
X47425Y470213D01*
X48256Y469575D01*
X49043Y468884D01*
X49784Y468143D01*
X50475Y467356D01*
X51113Y466525D01*
X51695Y465654D01*
X52218Y464746D01*
X52682Y463807D01*
X53083Y462839D01*
X53419Y461847D01*
X53690Y460835D01*
X53895Y459808D01*
X54032Y458769D01*
X54100Y457724D01*
X54100Y456676D01*
X714500Y443976D02*
X714432Y442931D01*
X714295Y441892D01*
X714090Y440865D01*
X713819Y439853D01*
X713483Y438861D01*
X713082Y437893D01*
X712618Y436954D01*
X712095Y436046D01*
X711513Y435175D01*
X710875Y434344D01*
X710184Y433557D01*
X709443Y432816D01*
X708656Y432125D01*
X707825Y431488D01*
X706954Y430906D01*
X706046Y430382D01*
X705107Y429918D01*
X704139Y429517D01*
X703147Y429181D01*
X702135Y428910D01*
X701108Y428705D01*
X700069Y428569D01*
X699024Y428500D01*
X697976Y428500D01*
X696931Y428569D01*
X695892Y428705D01*
X694865Y428910D01*
X693853Y429181D01*
X692861Y429517D01*
X691893Y429918D01*
X690954Y430382D01*
X690046Y430906D01*
X689175Y431488D01*
X688344Y432125D01*
X687557Y432816D01*
X686816Y433557D01*
X686125Y434344D01*
X685488Y435175D01*
X684906Y436046D01*
X684382Y436954D01*
X683918Y437893D01*
X683517Y438861D01*
X683181Y439853D01*
X682910Y440865D01*
X682705Y441892D01*
X682569Y442931D01*
X682500Y443976D01*
X682500Y445024D01*
X682569Y446069D01*
X682705Y447108D01*
X682910Y448135D01*
X683181Y449147D01*
X683517Y450139D01*
X683918Y451107D01*
X684382Y452046D01*
X684906Y452954D01*
X685488Y453825D01*
X686125Y454656D01*
X686816Y455443D01*
X687557Y456184D01*
X688344Y456875D01*
X689175Y457513D01*
X690046Y458095D01*
X690954Y458618D01*
X691893Y459082D01*
X692861Y459483D01*
X693853Y459819D01*
X694865Y460090D01*
X695892Y460295D01*
X696931Y460432D01*
X697976Y460500D01*
X699024Y460500D01*
X700069Y460432D01*
X701108Y460295D01*
X702135Y460090D01*
X703147Y459819D01*
X704139Y459483D01*
X705107Y459082D01*
X706046Y458618D01*
X706954Y458095D01*
X707825Y457513D01*
X708656Y456875D01*
X709443Y456184D01*
X710184Y455443D01*
X710875Y454656D01*
X711513Y453825D01*
X712095Y452954D01*
X712618Y452046D01*
X713082Y451107D01*
X713483Y450139D01*
X713819Y449147D01*
X714090Y448135D01*
X714295Y447108D01*
X714432Y446069D01*
X714500Y445024D01*
X714500Y443976D01*
X790700Y75676D02*
X790632Y74631D01*
X790495Y73592D01*
X790290Y72565D01*
X790019Y71553D01*
X789683Y70561D01*
X789282Y69593D01*
X788818Y68654D01*
X788295Y67746D01*
X787713Y66875D01*
X787075Y66044D01*
X786384Y65257D01*
X785643Y64516D01*
X784856Y63825D01*
X784025Y63188D01*
X783154Y62606D01*
X782246Y62082D01*
X781307Y61618D01*
X780339Y61217D01*
X779347Y60881D01*
X778335Y60610D01*
X777308Y60405D01*
X776269Y60269D01*
X775224Y60200D01*
X774176Y60200D01*
X773131Y60269D01*
X772092Y60405D01*
X771065Y60610D01*
X770053Y60881D01*
X769061Y61217D01*
X768093Y61618D01*
X767154Y62082D01*
X766246Y62606D01*
X765375Y63188D01*
X764544Y63825D01*
X763757Y64516D01*
X763016Y65257D01*
X762325Y66044D01*
X761688Y66875D01*
X761106Y67746D01*
X760582Y68654D01*
X760118Y69593D01*
X759717Y70561D01*
X759381Y71553D01*
X759110Y72565D01*
X758905Y73592D01*
X758769Y74631D01*
X758700Y75676D01*
X758700Y76724D01*
X758769Y77769D01*
X758905Y78808D01*
X759110Y79835D01*
X759381Y80847D01*
X759717Y81839D01*
X760118Y82807D01*
X760582Y83746D01*
X761106Y84654D01*
X761688Y85525D01*
X762325Y86356D01*
X763016Y87143D01*
X763757Y87884D01*
X764544Y88575D01*
X765375Y89213D01*
X766246Y89795D01*
X767154Y90318D01*
X768093Y90782D01*
X769061Y91183D01*
X770053Y91519D01*
X771065Y91790D01*
X772092Y91995D01*
X773131Y92132D01*
X774176Y92200D01*
X775224Y92200D01*
X776269Y92132D01*
X777308Y91995D01*
X778335Y91790D01*
X779347Y91519D01*
X780339Y91183D01*
X781307Y90782D01*
X782246Y90318D01*
X783154Y89795D01*
X784025Y89213D01*
X784856Y88575D01*
X785643Y87884D01*
X786384Y87143D01*
X787075Y86356D01*
X787713Y85525D01*
X788295Y84654D01*
X788818Y83746D01*
X789282Y82807D01*
X789683Y81839D01*
X790019Y80847D01*
X790290Y79835D01*
X790495Y78808D01*
X790632Y77769D01*
X790700Y76724D01*
X790700Y75676D01*
M02*
