G04 EAGLE Gerber RS-274X export*
G75*
%MOMM*%
%FSLAX34Y34*%
%LPD*%
%INSoldermask Top*%
%IPPOS*%
%AMOC8*
5,1,8,0,0,1.08239X$1,22.5*%
G01*
%ADD10C,3.403200*%
%ADD11R,3.203200X1.603200*%
%ADD12R,1.003200X1.403200*%
%ADD13R,1.403200X1.003200*%
%ADD14R,2.003200X1.903200*%
%ADD15R,1.903200X2.003200*%
%ADD16R,2.438400X1.422400*%
%ADD17R,2.403200X3.803200*%
%ADD18C,3.530600*%
%ADD19R,3.203200X1.103200*%
%ADD20C,2.082800*%
%ADD21R,1.403200X1.403200*%
%ADD22C,4.521200*%
%ADD23C,1.912800*%
%ADD24R,0.838200X1.727200*%
%ADD25R,10.503200X9.103200*%
%ADD26R,2.133600X4.013200*%
%ADD27C,1.828800*%
%ADD28R,2.133600X5.537200*%
%ADD29R,5.537200X2.133600*%


D10*
X38100Y457200D03*
X698500Y444500D03*
X774700Y76200D03*
D11*
X232280Y86360D03*
X184280Y86360D03*
D12*
X549800Y304800D03*
X567800Y304800D03*
X491600Y304800D03*
X473600Y304800D03*
X556150Y114300D03*
X574150Y114300D03*
X600600Y114300D03*
X618600Y114300D03*
X626000Y254000D03*
X644000Y254000D03*
D11*
X232280Y167640D03*
X184280Y167640D03*
D13*
X114300Y238650D03*
X114300Y256650D03*
X114300Y218550D03*
X114300Y200550D03*
X374650Y294750D03*
X374650Y276750D03*
X374650Y352950D03*
X374650Y370950D03*
D12*
X238650Y298450D03*
X256650Y298450D03*
D13*
X171450Y410100D03*
X171450Y428100D03*
X196850Y410100D03*
X196850Y428100D03*
D14*
X182700Y35560D03*
X223700Y35560D03*
X287200Y209550D03*
X246200Y209550D03*
D15*
X222250Y411300D03*
X222250Y452300D03*
D16*
X81788Y205486D03*
X81788Y228600D03*
X81788Y251714D03*
D17*
X19810Y228600D03*
D18*
X106200Y289941D03*
X106200Y421259D03*
D19*
X148320Y365600D03*
X148320Y390600D03*
X148320Y345600D03*
X148320Y320600D03*
D20*
X647700Y425450D03*
X622300Y425450D03*
X596900Y425450D03*
X571500Y425450D03*
X546100Y425450D03*
X520700Y425450D03*
X495300Y425450D03*
X469900Y425450D03*
X444500Y425450D03*
X419100Y425450D03*
X393700Y425450D03*
X368300Y425450D03*
X342900Y425450D03*
X317500Y425450D03*
X292100Y425450D03*
X266700Y425450D03*
X622300Y50800D03*
X647700Y50800D03*
X673100Y50800D03*
X698500Y50800D03*
X723900Y50800D03*
X749300Y50800D03*
X622300Y25400D03*
X647700Y25400D03*
X673100Y25400D03*
X698500Y25400D03*
X723900Y25400D03*
X749300Y25400D03*
X647700Y450850D03*
X622300Y450850D03*
X596900Y450850D03*
X571500Y450850D03*
X546100Y450850D03*
X520700Y450850D03*
X495300Y450850D03*
X469900Y450850D03*
X444500Y450850D03*
X419100Y450850D03*
X393700Y450850D03*
X368300Y450850D03*
X342900Y450850D03*
X317500Y450850D03*
X292100Y450850D03*
X266700Y450850D03*
X431800Y50800D03*
X457200Y50800D03*
X482600Y50800D03*
X508000Y50800D03*
X533400Y50800D03*
X558800Y50800D03*
X584200Y50800D03*
X431800Y25400D03*
X457200Y25400D03*
X482600Y25400D03*
X508000Y25400D03*
X533400Y25400D03*
X558800Y25400D03*
X584200Y25400D03*
D21*
X173650Y266700D03*
X194650Y266700D03*
X232750Y266700D03*
X211750Y266700D03*
X596900Y326050D03*
X596900Y347050D03*
X571500Y326050D03*
X571500Y347050D03*
X546100Y326050D03*
X546100Y347050D03*
X520700Y326050D03*
X520700Y347050D03*
X495300Y326050D03*
X495300Y347050D03*
D22*
X137000Y76200D03*
X77000Y76200D03*
X107000Y29200D03*
D12*
X175150Y247650D03*
X193150Y247650D03*
D13*
X495300Y365650D03*
X495300Y383650D03*
X190500Y283100D03*
X190500Y301100D03*
D12*
X231250Y247650D03*
X213250Y247650D03*
D13*
X215900Y283100D03*
X215900Y301100D03*
D12*
X626000Y279400D03*
X644000Y279400D03*
D13*
X596900Y365650D03*
X596900Y383650D03*
X571500Y365650D03*
X571500Y383650D03*
X546100Y365650D03*
X546100Y383650D03*
X520700Y365650D03*
X520700Y383650D03*
D23*
X36830Y163488D02*
X36830Y146392D01*
X62230Y146392D02*
X62230Y163488D01*
X87630Y163488D02*
X87630Y146392D01*
D24*
X209550Y328650D03*
X234950Y382550D03*
X196850Y328650D03*
X222250Y328650D03*
X234950Y328650D03*
X222250Y382550D03*
X247650Y382550D03*
X260350Y382550D03*
X260350Y328650D03*
X285750Y382550D03*
X247650Y328650D03*
X273050Y328650D03*
X273050Y382550D03*
X285750Y328650D03*
X209550Y382550D03*
X196850Y382550D03*
D25*
X323850Y63900D03*
D26*
X349350Y171400D03*
X298350Y171400D03*
D27*
X774700Y215900D03*
X749300Y215900D03*
X723900Y215900D03*
X698500Y215900D03*
X673100Y215900D03*
X647700Y215900D03*
X622300Y215900D03*
X596900Y215900D03*
X571500Y215900D03*
X546100Y215900D03*
X520700Y215900D03*
X495300Y215900D03*
X469900Y215900D03*
X444500Y215900D03*
X444500Y139700D03*
X469900Y139700D03*
X495300Y139700D03*
X520700Y139700D03*
X546100Y139700D03*
X571500Y139700D03*
X596900Y139700D03*
X622300Y139700D03*
X647700Y139700D03*
X673100Y139700D03*
X698500Y139700D03*
X723900Y139700D03*
X749300Y139700D03*
X774700Y139700D03*
D28*
X330200Y372110D03*
X330200Y275590D03*
D29*
X472440Y260350D03*
X568960Y260350D03*
D20*
X669544Y323088D03*
X669544Y388112D03*
X714756Y323088D03*
X714756Y388112D03*
M02*
