M48
;GenerationSoftware,Autodesk,EAGLE,9.6.1*%
;CreationDate,2020-05-26T13:58:24Z*%
FMAT,2
ICI,OFF
METRIC,TZ,000.000
T7C0.508
T6C0.813
T5C1.016
T4C1.100
T3C2.311
T2C2.997
T1C3.200
%
G90
M71
T1
X3810Y45720
X69850Y44450
X77470Y7620
T2
X13700Y7620
X10700Y2920
X7700Y7620
T3
X10620Y28994
X10620Y42126
T4
X8763Y15494
X6223Y15494
X3683Y15494
T5
X59690Y42545
X64770Y42545
X62230Y42545
X26670Y42545
X57150Y42545
X54610Y42545
X52070Y42545
X49530Y42545
X46990Y42545
X44450Y42545
X41910Y42545
X39370Y42545
X36830Y42545
X34290Y42545
X31750Y42545
X29210Y42545
X62230Y5080
X64770Y5080
X67310Y5080
X69850Y5080
X72390Y5080
X74930Y5080
X62230Y2540
X64770Y2540
X67310Y2540
X69850Y2540
X72390Y2540
X74930Y2540
X64770Y45085
X62230Y45085
X59690Y45085
X57150Y45085
X54610Y45085
X52070Y45085
X49530Y45085
X46990Y45085
X44450Y45085
X41910Y45085
X39370Y45085
X36830Y45085
X34290Y45085
X31750Y45085
X29210Y45085
X26670Y45085
X43180Y5080
X45720Y5080
X48260Y5080
X50800Y5080
X53340Y5080
X55880Y5080
X58420Y5080
X43180Y2540
X45720Y2540
X48260Y2540
X50800Y2540
X53340Y2540
X55880Y2540
X58420Y2540
X71476Y38811
X66954Y32309
X66954Y38811
X71476Y32309
T6
X46990Y13970
X74930Y13970
X77470Y21590
X74930Y21590
X72390Y21590
X69850Y21590
X67310Y21590
X77470Y13970
X62230Y21590
X59690Y21590
X57150Y21590
X54610Y21590
X52070Y21590
X49530Y21590
X46990Y21590
X44450Y21590
X44450Y13970
X54610Y13970
X49530Y13970
X52070Y13970
X64770Y21590
X57150Y13970
X59690Y13970
X62230Y13970
X64770Y13970
X67310Y13970
X69850Y13970
X72390Y13970
T7
X44450Y17780
X13335Y20955
X58420Y9525
X44450Y19050
X15240Y24130
X38100Y22860
M30